<svg xmlns="http://www.w3.org/2000/svg" xmlns:xlink="http://www.w3.org/1999/xlink" width="1366" zoomAndPan="magnify" viewBox="0 0 1024.5 576" height="768" preserveAspectRatio="xMidYMid meet" version="1.0"><defs><clipPath id="3c465ef7ae"><path d="M 351.636719 505 L 384 505 L 384 522 L 351.636719 522 Z M 351.636719 505 " clip-rule="nonzero"/></clipPath><clipPath id="05e971e9a9"><path d="M 351.636719 425 L 384 425 L 384 442 L 351.636719 442 Z M 351.636719 425 " clip-rule="nonzero"/></clipPath><clipPath id="69526a5b93"><path d="M 351.636719 346 L 384 346 L 384 363 L 351.636719 363 Z M 351.636719 346 " clip-rule="nonzero"/></clipPath><clipPath id="ae868945e1"><path d="M 351.636719 266 L 384 266 L 384 283 L 351.636719 283 Z M 351.636719 266 " clip-rule="nonzero"/></clipPath><clipPath id="4ed1292ee3"><path d="M 351.636719 187 L 384 187 L 384 204 L 351.636719 204 Z M 351.636719 187 " clip-rule="nonzero"/></clipPath><clipPath id="47e052ca90"><path d="M 351.636719 107 L 384 107 L 384 124 L 351.636719 124 Z M 351.636719 107 " clip-rule="nonzero"/></clipPath><clipPath id="f06709a803"><path d="M 351.636719 28 L 384 28 L 384 45 L 351.636719 45 Z M 351.636719 28 " clip-rule="nonzero"/></clipPath><clipPath id="433f15eb39"><path d="M 384.308594 509.835938 L 392 509.835938 L 392 518.082031 L 384.308594 518.082031 Z M 384.308594 509.835938 " clip-rule="nonzero"/></clipPath><clipPath id="44cdac2a53"><path d="M 385 509.835938 L 392.554688 509.835938 L 392.554688 518.082031 L 385 518.082031 Z M 385 509.835938 " clip-rule="nonzero"/></clipPath></defs><path fill="#8fb5f5" d="M 422.929688 28.226562 L 613.917969 28.226562 L 613.917969 521.296875 L 422.929688 521.296875 Z M 422.929688 28.226562 " fill-opacity="1" fill-rule="nonzero"/><path fill="#000000" d="M 621.828125 529.207031 L 415.015625 529.207031 L 415.015625 20.316406 L 430.914062 20.316406 L 430.914062 513.316406 L 605.933594 513.316406 L 605.933594 20.316406 L 621.828125 20.316406 Z M 621.828125 529.207031 " fill-opacity="1" fill-rule="nonzero"/><path fill="#be8550" d="M 582.050781 238.390625 C 578.234375 238.179688 574.417969 238.039062 570.601562 237.824219 C 559.863281 237.332031 548.839844 236.835938 538.738281 240.578125 C 532.800781 242.769531 526.441406 246.371094 520.507812 244.039062 C 515.84375 242.203125 513.230469 237.050781 508.636719 234.929688 C 502.773438 232.246094 495.988281 235.355469 489.699219 236.90625 C 478.042969 239.804688 466.101562 237.050781 454.65625 232.742188 L 454.65625 274.761719 L 581.980469 274.761719 L 581.980469 238.390625 Z M 582.050781 238.390625 " fill-opacity="1" fill-rule="nonzero"/><path fill="#000000" d="M 590.035156 282.742188 L 446.8125 282.742188 L 446.8125 221.230469 L 457.621094 225.324219 C 470.199219 230.128906 479.597656 231.328125 487.863281 229.210938 C 489.066406 228.925781 490.265625 228.574219 491.394531 228.222656 C 497.261719 226.457031 504.539062 224.335938 511.957031 227.726562 C 515.417969 229.351562 517.894531 231.753906 519.941406 233.730469 C 521.214844 235 522.554688 236.273438 523.476562 236.625 C 525.3125 237.332031 528.914062 235.917969 532.449219 234.4375 C 533.648438 233.941406 534.851562 233.519531 535.980469 233.023438 C 547.710938 228.714844 560.074219 229.28125 570.957031 229.847656 L 589.964844 230.765625 L 589.964844 282.742188 Z M 462.710938 266.78125 L 574.136719 266.78125 L 574.136719 245.875 L 570.25 245.664062 C 560.429688 245.171875 550.253906 244.675781 541.492188 247.925781 C 540.503906 248.277344 539.515625 248.703125 538.453125 249.125 C 532.589844 251.527344 525.382812 254.421875 517.539062 251.3125 C 513.652344 249.761719 510.96875 247.148438 508.777344 245.027344 C 507.507812 243.757812 506.234375 242.558594 505.316406 242.132812 C 503.335938 241.214844 499.523438 242.34375 495.917969 243.40625 C 494.503906 243.828125 493.09375 244.253906 491.679688 244.605469 C 481.363281 247.148438 471.1875 245.945312 462.710938 243.6875 Z M 462.710938 266.78125 " fill-opacity="1" fill-rule="nonzero"/><path fill="#f6cd52" d="M 489.769531 236.90625 C 496.058594 235.355469 502.773438 232.175781 508.707031 234.929688 C 513.230469 237.050781 515.914062 242.132812 520.578125 244.039062 C 526.441406 246.371094 532.800781 242.769531 538.808594 240.578125 C 548.910156 236.90625 559.933594 237.332031 570.675781 237.824219 C 574.488281 238.039062 578.304688 238.179688 582.121094 238.390625 L 582.121094 156.753906 C 579.71875 155.90625 577.246094 155.128906 574.703125 154.566406 C 567.28125 152.941406 559.226562 153.011719 552.160156 155.625 C 547.5 157.320312 542.128906 156.894531 538.59375 153.503906 C 532.378906 147.574219 522.34375 145.171875 513.582031 146.65625 C 505.105469 148.136719 497.472656 152.234375 490.265625 157.105469 C 485.957031 160.003906 480.089844 160.003906 476.132812 156.683594 C 470.128906 151.667969 462.640625 148.421875 454.867188 147.289062 L 454.867188 232.8125 C 466.242188 237.050781 478.113281 239.804688 489.769531 236.90625 Z M 489.769531 236.90625 " fill-opacity="1" fill-rule="nonzero"/><path fill="#000000" d="M 524.675781 252.726562 C 522.414062 252.726562 520.011719 252.304688 517.609375 251.386719 C 513.722656 249.832031 511.039062 247.21875 508.847656 245.101562 C 507.578125 243.828125 506.304688 242.628906 505.386719 242.203125 C 503.40625 241.285156 499.59375 242.417969 495.988281 243.476562 C 494.574219 243.898438 493.164062 244.324219 491.75 244.675781 C 476.628906 248.417969 461.789062 243.96875 451.96875 240.226562 L 446.8125 238.320312 L 446.8125 138.039062 L 455.925781 139.382812 C 465.253906 140.722656 474.015625 144.605469 481.152344 150.539062 C 482.28125 151.457031 484.261719 151.457031 485.8125 150.46875 C 492.527344 146.019531 501.570312 140.652344 512.238281 138.816406 C 524.039062 136.769531 536.265625 140.230469 544.105469 147.714844 C 545.308594 148.914062 547.640625 148.773438 549.476562 148.136719 C 557.53125 145.242188 567.070312 144.75 576.398438 146.796875 C 579.011719 147.359375 581.765625 148.207031 584.804688 149.269531 L 590.035156 151.175781 L 590.035156 246.652344 L 570.25 245.734375 C 560.429688 245.242188 550.253906 244.746094 541.492188 247.996094 C 540.503906 248.347656 539.515625 248.773438 538.453125 249.195312 C 534.425781 250.820312 529.761719 252.726562 524.675781 252.726562 Z M 489.769531 236.90625 L 489.839844 236.90625 Z M 503.550781 225.890625 C 506.304688 225.890625 509.132812 226.386719 511.957031 227.65625 C 515.417969 229.28125 517.894531 231.683594 519.941406 233.660156 C 521.214844 234.929688 522.554688 236.203125 523.476562 236.554688 C 525.3125 237.261719 528.914062 235.847656 532.449219 234.367188 C 533.648438 233.871094 534.851562 233.449219 535.980469 232.953125 C 547.710938 228.644531 560.074219 229.210938 570.957031 229.773438 L 574.066406 229.917969 L 574.066406 162.542969 C 573.640625 162.472656 573.289062 162.332031 572.863281 162.261719 C 566.433594 160.851562 560.003906 161.0625 554.777344 162.96875 C 546.863281 165.863281 538.453125 164.378906 533.011719 159.085938 C 528.84375 155.128906 521.496094 153.222656 514.855469 154.351562 C 507.152344 155.695312 500.015625 159.929688 494.644531 163.535156 C 487.296875 168.476562 477.546875 168.054688 470.976562 162.613281 C 468.503906 160.566406 465.746094 158.871094 462.710938 157.601562 L 462.710938 227.019531 C 472.8125 230.269531 480.65625 230.90625 487.863281 229.140625 C 489.066406 228.855469 490.265625 228.503906 491.394531 228.152344 C 495.070312 227.089844 499.167969 225.890625 503.550781 225.890625 Z M 503.550781 225.890625 " fill-opacity="1" fill-rule="nonzero"/><path fill="#f8bd86" d="M 490.195312 157.035156 C 497.402344 152.234375 505.03125 148.066406 513.511719 146.585938 C 522.34375 145.101562 532.308594 147.433594 538.523438 153.433594 C 542.058594 156.824219 547.425781 157.25 552.089844 155.554688 C 559.15625 153.011719 567.210938 152.871094 574.628906 154.492188 C 577.175781 155.058594 579.648438 155.835938 582.050781 156.683594 L 582.050781 112.828125 C 573.78125 111.769531 566.082031 109.085938 560.921875 102.660156 C 559.296875 100.679688 557.957031 98.351562 555.625 97.222656 C 552.089844 95.597656 547.921875 97.644531 544.953125 100.1875 C 541.988281 102.730469 539.230469 105.90625 535.488281 106.894531 C 524.746094 109.71875 517.1875 93.691406 506.023438 93.546875 C 496.90625 93.476562 488.429688 104.28125 480.375 100.046875 C 477.265625 98.421875 475.570312 94.960938 473.167969 92.277344 C 468.644531 87.261719 461.011719 85.78125 454.726562 87.898438 L 454.726562 147.007812 C 462.496094 148.136719 469.988281 151.386719 475.992188 156.402344 C 480.019531 159.929688 485.886719 159.929688 490.195312 157.035156 Z M 490.195312 157.035156 " fill-opacity="1" fill-rule="nonzero"/><path fill="#000000" d="M 590.035156 168.125 L 579.363281 164.308594 C 577.246094 163.535156 575.125 162.898438 572.933594 162.402344 C 566.503906 160.992188 560.074219 161.203125 554.847656 163.109375 C 546.933594 166.003906 538.523438 164.523438 533.085938 159.226562 C 528.914062 155.269531 521.566406 153.363281 514.925781 154.492188 C 507.222656 155.835938 500.085938 160.074219 494.71875 163.675781 C 487.367188 168.617188 477.617188 168.195312 471.046875 162.757812 C 466.242188 158.730469 460.09375 156.046875 453.734375 155.128906 L 446.953125 154.140625 L 446.953125 82.460938 L 452.324219 80.625 C 461.863281 77.304688 472.742188 79.988281 479.242188 87.191406 C 480.160156 88.253906 481.007812 89.382812 481.859375 90.511719 C 482.632812 91.570312 483.695312 92.984375 484.1875 93.265625 C 485.109375 93.691406 488.78125 91.78125 491.042969 90.652344 C 495.140625 88.535156 500.226562 85.851562 506.09375 85.851562 C 506.164062 85.851562 506.234375 85.851562 506.234375 85.851562 C 514.21875 85.921875 520.222656 90.722656 525.101562 94.609375 C 528.351562 97.222656 531.671875 99.90625 533.578125 99.410156 C 534.636719 99.128906 536.265625 97.644531 537.816406 96.230469 C 538.523438 95.597656 539.230469 94.960938 539.9375 94.324219 C 546.226562 88.957031 553.222656 87.40625 559.15625 90.160156 C 562.832031 91.855469 564.878906 94.679688 566.433594 96.726562 L 567.28125 97.785156 C 570.460938 101.742188 575.550781 104.070312 583.179688 104.988281 L 590.175781 105.835938 L 590.175781 168.125 Z M 490.195312 157.035156 L 490.265625 157.035156 Z M 462.710938 140.792969 C 469.492188 142.699219 475.710938 146.019531 481.152344 150.46875 C 482.28125 151.386719 484.261719 151.386719 485.742188 150.398438 C 492.457031 145.949219 501.5 140.582031 512.167969 138.746094 C 523.96875 136.699219 536.191406 140.15625 544.035156 147.644531 C 545.238281 148.84375 547.570312 148.703125 549.40625 148.066406 C 556.824219 145.382812 565.515625 144.75 574.136719 146.300781 L 574.136719 119.464844 C 565.796875 117.347656 559.4375 113.464844 554.777344 107.671875 L 553.644531 106.191406 C 553.363281 105.765625 552.9375 105.199219 552.585938 104.777344 C 552.089844 104.988281 551.242188 105.484375 550.253906 106.261719 L 548.558594 107.742188 C 545.875 110.214844 542.480469 113.320312 537.605469 114.59375 C 527.996094 117.136719 520.578125 111.132812 515.136719 106.824219 C 511.886719 104.210938 508.496094 101.527344 506.09375 101.527344 C 504.183594 101.527344 501.21875 103.011719 498.460938 104.496094 C 492.808594 107.390625 485.109375 111.414062 476.839844 107.109375 C 473.097656 105.128906 470.90625 102.164062 469.070312 99.761719 C 468.503906 99.058594 468.007812 98.28125 467.445312 97.644531 C 466.3125 96.375 464.6875 95.527344 462.851562 95.171875 L 462.851562 140.792969 Z M 462.710938 140.792969 " fill-opacity="1" fill-rule="nonzero"/><path fill="#90b316" d="M 473.238281 92.488281 C 475.640625 95.101562 477.265625 98.5625 480.445312 100.257812 C 488.5 104.496094 496.976562 93.691406 506.09375 93.761719 C 517.257812 93.832031 524.746094 109.933594 535.558594 107.109375 C 539.371094 106.117188 542.058594 102.941406 545.023438 100.398438 C 547.992188 97.855469 552.160156 95.738281 555.695312 97.433594 C 558.027344 98.492188 559.367188 100.894531 560.992188 102.871094 C 566.152344 109.296875 573.78125 111.980469 582.121094 113.039062 L 582.121094 52.164062 L 574.136719 44.183594 L 557.25 52.164062 L 542.339844 44.183594 L 510.542969 52.164062 L 494.644531 44.183594 L 470.765625 44.183594 L 454.867188 52.164062 L 454.867188 88.179688 C 461.085938 85.992188 468.714844 87.546875 473.238281 92.488281 Z M 473.238281 92.488281 " fill-opacity="1" fill-rule="nonzero"/><path fill="#000000" d="M 582.050781 120.878906 C 581.695312 120.878906 581.414062 120.878906 581.058594 120.808594 C 569.191406 119.324219 560.570312 115.085938 554.707031 107.742188 L 553.574219 106.261719 C 553.292969 105.835938 552.867188 105.269531 552.515625 104.847656 C 552.019531 105.058594 551.171875 105.554688 550.183594 106.332031 L 548.488281 107.8125 C 545.800781 110.285156 542.410156 113.394531 537.535156 114.664062 C 527.925781 117.207031 520.507812 111.203125 515.066406 106.894531 C 511.816406 104.28125 508.425781 101.597656 506.023438 101.597656 C 504.113281 101.597656 501.148438 103.082031 498.390625 104.566406 C 492.738281 107.460938 485.035156 111.484375 476.769531 107.179688 C 473.023438 105.199219 470.835938 102.234375 468.996094 99.832031 C 468.433594 99.128906 467.9375 98.351562 467.371094 97.714844 C 465.113281 95.242188 460.941406 94.324219 457.410156 95.527344 C 455.007812 96.375 452.324219 95.949219 450.203125 94.464844 C 448.082031 92.984375 446.882812 90.582031 446.882812 87.96875 L 446.882812 51.953125 C 446.882812 48.917969 448.578125 46.164062 451.261719 44.820312 L 467.160156 36.839844 C 468.292969 36.273438 469.492188 35.992188 470.695312 35.992188 L 494.574219 35.992188 C 495.777344 35.992188 497.046875 36.273438 498.109375 36.839844 L 511.390625 43.480469 L 540.363281 36.273438 C 542.269531 35.78125 544.320312 36.0625 546.015625 36.980469 L 557.390625 43.054688 L 570.675781 36.769531 C 573.710938 35.355469 577.316406 35.992188 579.71875 38.324219 L 587.703125 46.304688 C 589.1875 47.785156 590.035156 49.835938 590.035156 51.953125 L 590.035156 112.828125 C 590.035156 115.085938 589.042969 117.277344 587.347656 118.761719 C 585.867188 120.171875 584.027344 120.878906 582.050781 120.878906 Z M 552.9375 88.816406 C 555.058594 88.816406 557.109375 89.242188 559.015625 90.160156 C 562.691406 91.855469 564.738281 94.679688 566.292969 96.726562 L 567.140625 97.785156 C 568.90625 99.976562 571.167969 101.597656 574.136719 102.871094 L 574.136719 55.414062 L 572.441406 53.71875 L 560.570312 59.296875 C 558.308594 60.355469 555.625 60.285156 553.433594 59.085938 L 541.210938 52.589844 L 512.382812 59.792969 C 510.542969 60.285156 508.566406 60.074219 506.871094 59.226562 L 492.667969 52.09375 L 472.53125 52.09375 L 462.710938 57.039062 L 462.710938 79.355469 C 468.996094 79.847656 474.933594 82.601562 479.101562 87.191406 C 480.019531 88.253906 480.867188 89.382812 481.714844 90.511719 C 482.492188 91.570312 483.554688 92.984375 484.046875 93.265625 C 484.964844 93.691406 488.640625 91.78125 490.902344 90.652344 C 495 88.535156 500.085938 85.851562 505.953125 85.851562 C 506.023438 85.851562 506.09375 85.851562 506.09375 85.851562 C 514.078125 85.921875 520.082031 90.722656 524.957031 94.609375 C 528.207031 97.222656 531.53125 99.90625 533.4375 99.410156 C 534.496094 99.128906 536.121094 97.644531 537.675781 96.230469 C 538.382812 95.597656 539.089844 94.960938 539.796875 94.324219 C 544.035156 90.722656 548.628906 88.816406 552.9375 88.816406 Z M 552.9375 88.816406 " fill-opacity="1" fill-rule="nonzero"/><path fill="#be8550" d="M 454.796875 274.761719 L 582.121094 274.761719 L 582.121094 306.539062 L 454.796875 306.539062 Z M 454.796875 274.761719 " fill-opacity="1" fill-rule="nonzero"/><path fill="#000000" d="M 590.035156 314.519531 L 446.8125 314.519531 L 446.8125 266.78125 L 590.035156 266.78125 Z M 462.710938 298.628906 L 574.136719 298.628906 L 574.136719 282.742188 L 462.710938 282.742188 Z M 462.710938 298.628906 " fill-opacity="1" fill-rule="nonzero"/><path fill="#acacac" d="M 454.796875 362.257812 L 582.121094 362.257812 L 582.121094 394.039062 L 454.796875 394.039062 Z M 454.796875 362.257812 " fill-opacity="1" fill-rule="nonzero"/><path fill="#000000" d="M 590.035156 402.019531 L 446.8125 402.019531 L 446.8125 354.277344 L 590.035156 354.277344 Z M 462.710938 386.058594 L 574.136719 386.058594 L 574.136719 370.167969 L 462.710938 370.167969 Z M 462.710938 386.058594 " fill-opacity="1" fill-rule="nonzero"/><path fill="#be8550" d="M 558.167969 433.796875 L 534.355469 441.777344 L 526.371094 433.796875 L 502.488281 441.777344 L 486.589844 425.886719 L 462.710938 441.777344 L 454.796875 437.753906 L 454.796875 487.890625 L 486.589844 481.535156 L 518.386719 481.535156 L 534.355469 489.445312 L 550.253906 473.554688 L 566.152344 489.445312 L 582.050781 489.445312 L 582.050781 443.332031 Z M 558.167969 433.796875 " fill-opacity="1" fill-rule="nonzero"/><path fill="#000000" d="M 535.910156 499.121094 L 516.550781 489.445312 L 487.367188 489.445312 L 446.8125 497.566406 L 446.8125 424.898438 L 462.144531 432.597656 L 487.582031 415.648438 L 504.609375 432.667969 L 528.492188 424.6875 L 536.476562 432.667969 L 558.449219 425.324219 L 590.035156 437.964844 L 590.035156 497.425781 L 562.902344 497.425781 L 550.253906 484.785156 Z M 569.472656 481.535156 L 574.136719 481.535156 L 574.136719 448.769531 L 557.957031 442.273438 L 532.164062 450.886719 L 524.179688 442.90625 L 500.300781 450.886719 L 485.53125 436.128906 L 463.273438 450.957031 L 462.710938 450.675781 L 462.710938 478.21875 L 486.589844 473.554688 L 520.296875 473.554688 L 532.730469 479.769531 L 550.183594 462.328125 Z M 569.472656 481.535156 " fill-opacity="1" fill-rule="nonzero"/><path fill="#acacac" d="M 550.253906 473.554688 L 534.355469 489.445312 L 518.386719 481.535156 L 486.589844 481.535156 L 454.796875 487.890625 L 454.796875 521.296875 L 582.050781 521.296875 L 582.050781 489.445312 L 566.152344 489.445312 Z M 550.253906 473.554688 " fill-opacity="1" fill-rule="nonzero"/><path fill="#000000" d="M 590.035156 529.207031 L 446.8125 529.207031 L 446.8125 481.324219 L 486.589844 473.554688 L 520.296875 473.554688 L 532.730469 479.769531 L 550.183594 462.328125 L 569.402344 481.535156 L 589.964844 481.535156 L 589.964844 529.207031 Z M 462.710938 513.316406 L 574.136719 513.316406 L 574.136719 497.425781 L 562.902344 497.425781 L 550.253906 484.785156 L 535.910156 499.121094 L 516.550781 489.445312 L 487.367188 489.445312 L 462.710938 494.390625 Z M 462.710938 513.316406 " fill-opacity="1" fill-rule="nonzero"/><path fill="#865430" d="M 454.796875 306.539062 L 582.121094 306.539062 L 582.121094 362.1875 L 454.796875 362.1875 Z M 454.796875 306.539062 " fill-opacity="1" fill-rule="nonzero"/><path fill="#000000" d="M 590.035156 370.167969 L 446.8125 370.167969 L 446.8125 298.628906 L 590.035156 298.628906 Z M 462.710938 354.277344 L 574.136719 354.277344 L 574.136719 314.519531 L 462.710938 314.519531 Z M 462.710938 354.277344 " fill-opacity="1" fill-rule="nonzero"/><path fill="#7f7f7f" d="M 486.589844 425.886719 L 502.488281 441.777344 L 526.371094 433.796875 L 534.355469 441.777344 L 558.167969 433.796875 L 582.050781 443.332031 L 582.050781 394.039062 L 454.796875 394.039062 L 454.796875 437.753906 L 462.710938 441.777344 Z M 486.589844 425.886719 " fill-opacity="1" fill-rule="nonzero"/><path fill="#000000" d="M 590.035156 455.125 L 557.957031 442.273438 L 532.164062 450.886719 L 524.179688 442.90625 L 500.300781 450.886719 L 485.53125 436.128906 L 463.273438 450.957031 L 446.8125 442.695312 L 446.8125 386.058594 L 590.035156 386.058594 Z M 528.492188 424.6875 L 536.476562 432.667969 L 558.449219 425.324219 L 574.136719 431.609375 L 574.136719 402.019531 L 462.710938 402.019531 L 462.710938 432.242188 L 487.582031 415.648438 L 504.609375 432.667969 Z M 528.492188 424.6875 " fill-opacity="1" fill-rule="nonzero"/><path fill="#000000" d="M 367.25 20.316406 L 383.148438 20.316406 L 383.148438 529.277344 L 367.25 529.277344 Z M 367.25 20.316406 " fill-opacity="1" fill-rule="nonzero"/><g clip-path="url(#3c465ef7ae)"><path fill="#000000" d="M 351.351562 505.40625 L 383.148438 505.40625 L 383.148438 521.296875 L 351.351562 521.296875 Z M 351.351562 505.40625 " fill-opacity="1" fill-rule="nonzero"/></g><g clip-path="url(#05e971e9a9)"><path fill="#000000" d="M 351.351562 425.886719 L 383.148438 425.886719 L 383.148438 441.777344 L 351.351562 441.777344 Z M 351.351562 425.886719 " fill-opacity="1" fill-rule="nonzero"/></g><g clip-path="url(#69526a5b93)"><path fill="#000000" d="M 351.351562 346.296875 L 383.148438 346.296875 L 383.148438 362.1875 L 351.351562 362.1875 Z M 351.351562 346.296875 " fill-opacity="1" fill-rule="nonzero"/></g><g clip-path="url(#ae868945e1)"><path fill="#000000" d="M 351.351562 266.78125 L 383.148438 266.78125 L 383.148438 282.667969 L 351.351562 282.667969 Z M 351.351562 266.78125 " fill-opacity="1" fill-rule="nonzero"/></g><g clip-path="url(#4ed1292ee3)"><path fill="#000000" d="M 351.351562 187.261719 L 383.148438 187.261719 L 383.148438 203.152344 L 351.351562 203.152344 Z M 351.351562 187.261719 " fill-opacity="1" fill-rule="nonzero"/></g><g clip-path="url(#47e052ca90)"><path fill="#000000" d="M 351.351562 107.742188 L 383.148438 107.742188 L 383.148438 123.632812 L 351.351562 123.632812 Z M 351.351562 107.742188 " fill-opacity="1" fill-rule="nonzero"/></g><g clip-path="url(#f06709a803)"><path fill="#000000" d="M 351.351562 28.226562 L 383.148438 28.226562 L 383.148438 44.113281 L 351.351562 44.113281 Z M 351.351562 28.226562 " fill-opacity="1" fill-rule="nonzero"/></g><path fill="#000000" d="M 446.8125 179.351562 L 478.605469 179.351562 L 478.605469 195.242188 L 446.8125 195.242188 Z M 446.8125 179.351562 " fill-opacity="1" fill-rule="nonzero"/><path fill="#000000" d="M 478.605469 195.242188 L 510.402344 195.242188 L 510.402344 211.132812 L 478.605469 211.132812 Z M 478.605469 195.242188 " fill-opacity="1" fill-rule="nonzero"/><path fill="#000000" d="M 510.472656 179.351562 L 542.269531 179.351562 L 542.269531 195.242188 L 510.472656 195.242188 Z M 510.472656 179.351562 " fill-opacity="1" fill-rule="nonzero"/><path fill="#000000" d="M 558.167969 195.242188 L 589.964844 195.242188 L 589.964844 211.132812 L 558.167969 211.132812 Z M 558.167969 195.242188 " fill-opacity="1" fill-rule="nonzero"/><g clip-path="url(#433f15eb39)"><path fill="#ffffff" d="M 390.003906 512.703125 C 390.886719 512.703125 391.324219 513.332031 391.324219 514.058594 C 391.324219 514.765625 390.886719 515.402344 390.003906 515.402344 C 389.488281 515.402344 389.121094 515.1875 388.90625 514.859375 L 388.90625 515.226562 C 389.164062 515.472656 389.53125 515.628906 390.003906 515.628906 C 390.441406 515.628906 390.800781 515.492188 391.054688 515.269531 L 391.441406 515.640625 L 391.589844 515.488281 L 391.199219 515.109375 C 391.4375 514.816406 391.558594 514.429688 391.558594 514.058594 C 391.5625 513.214844 391.042969 512.476562 390.003906 512.476562 C 388.976562 512.476562 388.457031 513.210938 388.449219 514.03125 C 388.449219 514.039062 388.449219 514.050781 388.449219 514.058594 L 388.449219 518.058594 C 386.277344 518.015625 384.527344 516.238281 384.527344 514.058594 C 384.527344 512.226562 385.765625 510.679688 387.449219 510.207031 L 387.449219 509.976562 C 385.644531 510.457031 384.308594 512.105469 384.308594 514.058594 C 384.308594 516.386719 386.203125 518.28125 388.53125 518.28125 C 388.578125 518.28125 388.628906 518.28125 388.675781 518.277344 L 388.675781 514.058594 L 388.679688 514.058594 C 388.679688 514.050781 388.679688 514.039062 388.679688 514.03125 C 388.679688 513.277344 389.222656 512.703125 390.003906 512.703125 Z M 390.003906 512.703125 " fill-opacity="1" fill-rule="nonzero"/></g><g clip-path="url(#44cdac2a53)"><path fill="#ffffff" d="M 388.53125 509.835938 C 388.234375 509.835938 387.949219 509.867188 387.667969 509.925781 L 387.667969 513.980469 L 385.707031 513.980469 L 385.707031 512.515625 L 385.46875 512.515625 L 385.46875 515.597656 L 385.707031 515.597656 L 385.707031 514.199219 L 387.667969 514.199219 L 387.667969 515.597656 L 387.90625 515.597656 L 387.90625 510.105469 C 388.109375 510.074219 388.316406 510.054688 388.53125 510.054688 C 390.738281 510.054688 392.53125 511.851562 392.53125 514.058594 C 392.53125 516.136719 390.9375 517.851562 388.90625 518.042969 L 388.90625 518.261719 C 391.058594 518.070312 392.75 516.257812 392.75 514.058594 C 392.753906 511.730469 390.859375 509.835938 388.53125 509.835938 Z M 388.53125 509.835938 " fill-opacity="1" fill-rule="nonzero"/></g></svg>