<svg xmlns="http://www.w3.org/2000/svg" xmlns:xlink="http://www.w3.org/1999/xlink" width="1366" zoomAndPan="magnify" viewBox="0 0 1024.5 576" height="768" preserveAspectRatio="xMidYMid meet" version="1.0"><defs><clipPath id="806a418889"><path d="M 628.199219 248 L 741 248 L 741 376.742188 L 628.199219 376.742188 Z M 628.199219 248 " clip-rule="nonzero"/></clipPath><clipPath id="bed391fd78"><path d="M 646 246.304688 L 758.636719 246.304688 L 758.636719 376.742188 L 646 376.742188 Z M 646 246.304688 " clip-rule="nonzero"/></clipPath><clipPath id="f634fa6e2e"><path d="M 237.34375 276 L 792.824219 276 L 792.824219 568 L 237.34375 568 Z M 237.34375 276 " clip-rule="nonzero"/></clipPath><clipPath id="6095d45b79"><path d="M 237.34375 391 L 792 391 L 792 568 L 237.34375 568 Z M 237.34375 391 " clip-rule="nonzero"/></clipPath><clipPath id="6efab831a4"><path d="M 610 13.34375 L 702 13.34375 L 702 221 L 610 221 Z M 610 13.34375 " clip-rule="nonzero"/></clipPath><clipPath id="73122a7562"><path d="M 237.34375 228 L 792 228 L 792 568 L 237.34375 568 Z M 237.34375 228 " clip-rule="nonzero"/></clipPath></defs><g clip-path="url(#806a418889)"><path fill="#ffffff" d="M 716.230469 290.566406 C 729.824219 290.566406 736.621094 300.285156 736.621094 311.5 C 736.621094 322.441406 729.824219 332.296875 716.230469 332.296875 C 708.210938 332.296875 702.5625 328.941406 699.261719 323.921875 L 699.261719 329.558594 C 703.242188 333.382812 708.894531 335.761719 716.230469 335.761719 C 722.960938 335.761719 728.53125 333.65625 732.40625 330.257812 L 738.390625 335.96875 L 740.699219 333.589844 L 734.648438 327.746094 C 738.320312 323.257812 740.222656 317.277344 740.222656 311.5 C 740.292969 298.519531 732.273438 287.101562 716.230469 287.101562 C 700.324219 287.101562 692.304688 298.453125 692.171875 311.09375 C 692.167969 311.242188 692.179688 311.386719 692.179688 311.535156 L 692.167969 311.535156 L 692.167969 373.332031 C 658.65625 372.652344 631.597656 345.203125 631.597656 311.535156 C 631.597656 283.222656 650.730469 259.3125 676.742188 252.011719 L 676.742188 248.476562 C 648.835938 255.867188 628.199219 281.332031 628.199219 311.535156 C 628.199219 347.5 657.460938 376.761719 693.429688 376.761719 C 694.195312 376.761719 694.953125 376.726562 695.714844 376.703125 L 695.714844 311.535156 L 695.777344 311.535156 C 695.777344 311.386719 695.769531 311.238281 695.773438 311.089844 C 695.769531 299.46875 704.132812 290.566406 716.230469 290.566406 Z M 716.230469 290.566406 " fill-opacity="1" fill-rule="nonzero"/></g><g clip-path="url(#bed391fd78)"><path fill="#ffffff" d="M 693.429688 246.304688 C 688.875 246.304688 684.433594 246.777344 680.144531 247.667969 L 680.140625 310.34375 L 649.828125 310.34375 L 649.828125 287.710938 L 646.15625 287.710938 L 646.15625 335.289062 L 649.828125 335.289062 L 649.828125 313.675781 L 680.140625 313.675781 L 680.140625 335.289062 L 683.8125 335.289062 L 683.8125 250.46875 C 686.945312 249.96875 690.15625 249.703125 693.429688 249.703125 C 727.519531 249.703125 755.253906 277.4375 755.253906 311.53125 C 755.253906 343.65625 730.625 370.125 699.257812 373.074219 L 699.257812 376.484375 C 732.5 373.519531 758.652344 345.527344 758.652344 311.53125 C 758.65625 275.566406 729.394531 246.304688 693.429688 246.304688 Z M 693.429688 246.304688 " fill-opacity="1" fill-rule="nonzero"/></g><path fill="#ffffff" d="M 781.332031 243.519531 L 781.332031 557.332031 L 247.808594 557.332031 L 247.808594 241.253906 C 260.535156 241.253906 260.535156 239.523438 273.199219 239.523438 C 285.925781 239.523438 284.859375 246.585938 297.585938 246.585938 C 310.316406 246.585938 311.316406 240.390625 323.976562 240.390625 C 336.707031 240.390625 335.304688 246.121094 347.96875 246.121094 C 360.628906 246.121094 362.828125 241.65625 375.558594 241.65625 C 388.285156 241.65625 390.285156 245.519531 402.945312 245.519531 C 415.675781 245.519531 412.808594 242.988281 425.539062 242.988281 C 438.265625 242.988281 439.730469 247.785156 452.394531 247.785156 C 465.121094 247.785156 463.65625 240.789062 476.316406 240.789062 C 488.980469 240.789062 489.179688 245.1875 501.839844 245.1875 C 514.570312 245.1875 514.304688 243.320312 527.03125 243.320312 C 539.757812 243.320312 539.558594 247.785156 552.289062 247.785156 C 565.015625 247.785156 565.148438 244.71875 577.8125 244.71875 C 590.472656 244.71875 590.804688 246.320312 603.535156 246.320312 C 616.261719 246.320312 615.929688 243.722656 628.65625 243.722656 C 633.855469 243.722656 636.921875 244.789062 639.585938 246.054688 C 643.453125 247.851562 646.449219 250.117188 653.914062 250.117188 C 663.179688 250.117188 665.777344 247.253906 671.441406 245.71875 C 673.507812 245.121094 675.972656 244.789062 679.371094 244.789062 C 692.101562 244.789062 695.230469 249.519531 707.894531 249.519531 C 720.621094 249.519531 717.488281 242.1875 730.21875 242.1875 C 742.945312 242.1875 742.878906 250.050781 755.542969 250.050781 C 768.46875 250.25 768.601562 243.519531 781.332031 243.519531 Z M 781.332031 243.519531 " fill-opacity="1" fill-rule="nonzero"/><path fill="#ffffff" d="M 781.332031 317.890625 L 781.332031 557.332031 L 247.808594 557.332031 L 247.808594 296.632812 C 277.863281 286.703125 324.644531 281.773438 393.417969 299.097656 C 537.761719 335.351562 628.589844 322.691406 659.445312 315.425781 C 684.167969 309.695312 720.886719 306.164062 781.332031 317.890625 Z M 781.332031 317.890625 " fill-opacity="1" fill-rule="nonzero"/><g clip-path="url(#f634fa6e2e)"><path fill="#000000" d="M 781.332031 567.992188 L 247.808594 567.992188 C 241.941406 567.992188 237.144531 563.195312 237.144531 557.332031 L 237.144531 296.632812 C 237.144531 292.035156 240.078125 287.96875 244.476562 286.503906 C 285.460938 272.976562 336.507812 273.710938 396.082031 288.769531 C 544.15625 325.957031 633.257812 310.628906 657.113281 305.03125 C 691.964844 296.898438 733.285156 297.632812 783.398438 307.429688 C 788.394531 308.429688 792.0625 312.828125 792.0625 317.890625 L 792.0625 557.332031 C 791.992188 563.195312 787.195312 567.992188 781.332031 567.992188 Z M 258.535156 546.667969 L 770.667969 546.667969 L 770.667969 326.753906 C 727.484375 319.089844 691.832031 318.824219 661.976562 325.820312 C 636.988281 331.6875 543.625 347.8125 390.882812 309.429688 C 339.636719 296.5 294.121094 294.902344 258.535156 304.5625 Z M 258.535156 546.667969 " fill-opacity="1" fill-rule="nonzero"/></g><path fill="#c68104" d="M 781.332031 424.515625 L 781.332031 557.265625 L 247.808594 557.265625 L 247.808594 404.792969 C 288.257812 401.191406 352.765625 399.328125 430.667969 410.855469 C 560.21875 430.046875 699.761719 448.441406 781.332031 424.515625 Z M 781.332031 424.515625 " fill-opacity="1" fill-rule="nonzero"/><g clip-path="url(#6095d45b79)"><path fill="#000000" d="M 781.332031 567.992188 L 247.808594 567.992188 C 241.941406 567.992188 237.144531 563.195312 237.144531 557.332031 L 237.144531 404.792969 C 237.144531 399.261719 241.34375 394.660156 246.875 394.195312 C 287.925781 390.53125 353.433594 388.664062 432.269531 400.328125 C 564.683594 419.917969 700.496094 437.113281 778.265625 414.320312 C 781.464844 413.386719 784.996094 413.988281 787.664062 415.988281 C 790.328125 417.984375 791.925781 421.183594 791.925781 424.515625 L 791.925781 557.265625 C 791.992188 563.195312 787.195312 567.992188 781.332031 567.992188 Z M 258.535156 546.667969 L 770.667969 546.667969 L 770.667969 438.3125 C 688.035156 457.039062 562.015625 441.109375 429.203125 421.453125 C 358.363281 410.988281 298.71875 411.722656 258.535156 414.652344 Z M 258.535156 546.667969 " fill-opacity="1" fill-rule="nonzero"/></g><path fill="#ffffff" d="M 690.300781 209.46875 L 620.996094 209.46875 L 634.65625 23.808594 L 676.640625 23.808594 Z M 690.300781 209.46875 " fill-opacity="1" fill-rule="nonzero"/><g clip-path="url(#6efab831a4)"><path fill="#000000" d="M 690.367188 220.195312 L 620.996094 220.195312 C 618.0625 220.195312 615.195312 218.929688 613.199219 216.796875 C 611.199219 214.597656 610.132812 211.734375 610.398438 208.734375 L 624.058594 23.074219 C 624.460938 17.476562 629.125 13.210938 634.722656 13.210938 L 676.707031 13.210938 C 682.304688 13.210938 686.96875 17.542969 687.367188 23.074219 L 701.097656 208.734375 C 701.296875 211.667969 700.296875 214.597656 698.296875 216.796875 C 696.164062 218.929688 693.300781 220.195312 690.367188 220.195312 Z M 632.457031 198.804688 L 678.839844 198.804688 L 666.710938 34.46875 L 644.585938 34.46875 Z M 632.457031 198.804688 " fill-opacity="1" fill-rule="nonzero"/></g><g clip-path="url(#73122a7562)"><path fill="#000000" d="M 781.332031 567.992188 L 247.808594 567.992188 C 241.941406 567.992188 237.144531 563.195312 237.144531 557.332031 L 237.144531 241.253906 C 237.144531 235.390625 241.941406 230.59375 247.808594 230.59375 C 253.472656 230.59375 256.070312 230.257812 259.070312 229.859375 C 261.46875 229.527344 264.199219 229.195312 268.265625 228.992188 C 274.0625 228.726562 279.128906 233.324219 279.328125 239.257812 C 279.59375 245.121094 274.996094 250.117188 269.132812 250.320312 C 266.066406 250.453125 264.132812 250.71875 261.933594 250.984375 C 260.867188 251.117188 259.734375 251.25 258.46875 251.382812 L 258.46875 546.601562 L 770.601562 546.601562 L 770.601562 257.78125 C 767.203125 259.382812 762.605469 260.914062 755.742188 260.914062 C 746.34375 260.914062 741.214844 257.714844 737.414062 255.316406 C 734.816406 253.652344 733.683594 252.984375 730.351562 252.984375 C 727.621094 252.984375 727.351562 253.183594 725.6875 254.449219 C 721.820312 257.382812 717.222656 260.316406 708.09375 260.316406 C 700.164062 260.316406 694.964844 258.78125 690.765625 257.515625 C 687.167969 256.449219 684.371094 255.582031 679.570312 255.582031 C 676.839844 255.582031 675.375 255.917969 674.507812 256.117188 C 672.972656 256.515625 671.90625 256.984375 670.773438 257.449219 C 667.242188 258.914062 662.445312 260.914062 654.046875 260.914062 C 645.183594 260.914062 640.253906 258.382812 636.65625 256.582031 L 635.121094 255.851562 C 633.589844 255.117188 632.058594 254.515625 628.726562 254.515625 C 623.460938 254.515625 621.195312 254.984375 618.328125 255.582031 C 614.929688 256.316406 611 257.117188 603.601562 257.117188 C 596.605469 257.117188 592.804688 256.648438 589.40625 256.25 C 586.273438 255.851562 583.542969 255.515625 577.878906 255.515625 C 572.746094 255.515625 570.480469 256.050781 567.546875 256.714844 C 563.949219 257.582031 559.886719 258.515625 552.289062 258.515625 C 544.089844 258.515625 539.625 256.914062 536.09375 255.648438 C 533.363281 254.648438 531.5625 254.050781 527.097656 254.050781 C 521.566406 254.050781 519.035156 254.449219 516.101562 254.851562 C 512.769531 255.316406 509.105469 255.917969 501.90625 255.917969 C 493.777344 255.917969 489.3125 254.382812 485.648438 253.183594 C 482.78125 252.183594 480.847656 251.585938 476.316406 251.585938 C 472.984375 251.585938 472.1875 252.117188 469.988281 253.449219 C 466.722656 255.449219 461.789062 258.582031 452.394531 258.582031 C 444.261719 258.582031 439.464844 256.914062 435.535156 255.648438 C 432.402344 254.582031 430.070312 253.785156 425.539062 253.785156 C 420.539062 253.785156 418.941406 254.183594 416.875 254.714844 C 413.476562 255.582031 410.078125 256.316406 402.945312 256.316406 C 395.214844 256.316406 390.617188 255.117188 386.554688 254.050781 C 383.152344 253.183594 380.488281 252.449219 375.558594 252.449219 C 370.757812 252.449219 368.292969 253.183594 364.828125 254.25 C 360.828125 255.449219 355.898438 256.914062 347.96875 256.914062 C 339.039062 256.914062 334.441406 254.582031 331.109375 252.851562 C 328.777344 251.652344 327.710938 251.117188 323.976562 251.117188 C 319.914062 251.117188 318.113281 251.917969 315.179688 253.25 L 313.78125 253.851562 C 308.382812 256.183594 302.121094 253.785156 299.71875 248.386719 C 297.386719 242.988281 299.785156 236.722656 305.183594 234.324219 L 306.382812 233.792969 C 310.183594 232.125 315.3125 229.792969 323.976562 229.792969 C 332.90625 229.792969 337.503906 232.125 340.835938 233.859375 C 343.171875 235.058594 344.234375 235.589844 347.96875 235.589844 C 352.765625 235.589844 355.230469 234.859375 358.695312 233.792969 C 362.695312 232.59375 367.628906 231.058594 375.558594 231.058594 C 383.289062 231.058594 387.886719 232.257812 391.949219 233.324219 C 395.347656 234.191406 398.015625 234.925781 402.945312 234.925781 C 407.945312 234.925781 409.542969 234.523438 411.609375 233.992188 C 415.007812 233.125 418.40625 232.390625 425.539062 232.390625 C 433.667969 232.390625 438.464844 234.058594 442.398438 235.324219 C 445.53125 236.390625 447.863281 237.191406 452.394531 237.191406 C 455.726562 237.191406 456.527344 236.65625 458.726562 235.324219 C 461.988281 233.324219 466.921875 230.191406 476.316406 230.191406 C 484.382812 230.191406 488.914062 231.726562 492.511719 232.925781 C 495.378906 233.925781 497.308594 234.523438 501.90625 234.523438 C 507.4375 234.523438 509.972656 234.125 512.902344 233.726562 C 516.167969 233.257812 519.902344 232.660156 527.097656 232.660156 C 535.292969 232.660156 539.757812 234.257812 543.292969 235.523438 C 546.089844 236.589844 547.890625 237.257812 552.421875 237.257812 C 557.550781 237.257812 559.816406 236.722656 562.75 235.992188 C 566.347656 235.125 570.414062 234.191406 578.011719 234.191406 C 585.007812 234.191406 588.808594 234.65625 592.207031 235.058594 C 595.335938 235.457031 598.070312 235.789062 603.734375 235.789062 C 609 235.789062 611.265625 235.324219 614.128906 234.722656 C 617.527344 233.992188 621.460938 233.191406 628.859375 233.191406 C 636.320312 233.191406 640.917969 234.925781 644.386719 236.589844 C 645.050781 236.921875 645.71875 237.257812 646.382812 237.589844 C 649.050781 238.921875 650.382812 239.65625 654.113281 239.65625 C 658.3125 239.65625 659.980469 238.988281 662.710938 237.789062 C 664.378906 237.125 666.441406 236.257812 668.976562 235.589844 C 672.042969 234.722656 675.507812 234.257812 679.636719 234.257812 C 687.570312 234.257812 692.765625 235.789062 696.964844 237.058594 C 700.5625 238.125 703.363281 238.988281 708.160156 238.988281 C 710.890625 238.988281 711.160156 238.789062 712.824219 237.523438 C 716.691406 234.589844 721.289062 231.660156 730.417969 231.660156 C 739.882812 231.660156 745.011719 234.859375 748.746094 237.257812 C 751.34375 238.921875 752.476562 239.589844 755.742188 239.589844 C 759.472656 239.589844 760.871094 238.855469 763.605469 237.457031 C 767.269531 235.523438 772.335938 232.859375 781.332031 232.859375 C 787.195312 232.859375 791.992188 237.65625 791.992188 243.519531 L 791.992188 557.332031 C 791.992188 563.195312 787.195312 567.992188 781.332031 567.992188 Z M 781.332031 567.992188 " fill-opacity="1" fill-rule="nonzero"/></g><path fill="#c68104" d="M 467.921875 557.332031 L 280.859375 557.332031 L 287.390625 485.492188 C 288.125 477.363281 290.523438 469.566406 294.253906 462.769531 C 299.121094 453.972656 306.183594 446.773438 315.046875 442.644531 C 320.777344 439.976562 327.308594 438.3125 334.839844 438.777344 C 364.828125 440.242188 399.28125 445.707031 399.28125 445.707031 C 399.28125 445.707031 436.867188 456.703125 450.792969 476.695312 C 452.792969 479.5625 454.257812 482.5625 455.125 485.757812 C 461.988281 511.484375 467.921875 557.332031 467.921875 557.332031 Z M 467.921875 557.332031 " fill-opacity="1" fill-rule="nonzero"/><path fill="#000000" d="M 467.921875 567.992188 L 280.859375 567.992188 C 277.863281 567.992188 274.996094 566.726562 272.996094 564.527344 C 271 562.328125 270 559.332031 270.265625 556.398438 L 276.796875 484.558594 C 277.664062 475.097656 280.460938 465.832031 284.925781 457.636719 C 291.125 446.441406 299.988281 437.910156 310.582031 432.980469 C 318.511719 429.25 326.84375 427.648438 335.441406 428.117188 C 365.628906 429.582031 399.546875 434.914062 401.015625 435.179688 C 401.480469 435.246094 401.878906 435.378906 402.347656 435.445312 C 406.546875 436.710938 443.929688 448.109375 459.65625 470.566406 C 462.457031 474.5625 464.390625 478.761719 465.523438 482.960938 C 472.453125 509.082031 478.316406 554.066406 478.515625 555.933594 C 478.917969 558.996094 477.984375 562.0625 475.917969 564.328125 C 473.917969 566.660156 470.988281 567.992188 467.921875 567.992188 Z M 292.523438 546.667969 L 455.660156 546.667969 C 453.460938 531.476562 449.328125 505.285156 444.863281 488.492188 C 444.398438 486.625 443.464844 484.691406 442.066406 482.761719 C 432.667969 469.300781 406.945312 459.167969 396.949219 456.171875 C 391.949219 455.4375 361.097656 450.773438 334.375 449.507812 C 329.175781 449.242188 324.378906 450.171875 319.644531 452.4375 C 313.113281 455.4375 307.652344 460.835938 303.652344 468.03125 C 300.585938 473.5625 298.652344 480.027344 298.054688 486.558594 Z M 292.523438 546.667969 " fill-opacity="1" fill-rule="nonzero"/><path fill="#000000" d="M 495.976562 474.097656 L 478.714844 474.097656 C 472.851562 474.097656 468.054688 469.300781 468.054688 463.433594 C 468.054688 457.570312 472.851562 452.773438 478.714844 452.773438 L 495.976562 452.773438 C 501.839844 452.773438 506.640625 457.570312 506.640625 463.433594 C 506.640625 469.300781 501.839844 474.097656 495.976562 474.097656 Z M 495.976562 474.097656 " fill-opacity="1" fill-rule="nonzero"/><path fill="#000000" d="M 680.171875 527.34375 L 665.644531 527.34375 C 659.777344 527.34375 654.980469 522.546875 654.980469 516.679688 C 654.980469 510.816406 659.777344 506.019531 665.644531 506.019531 L 680.171875 506.019531 C 686.035156 506.019531 690.832031 510.816406 690.832031 516.679688 C 690.832031 522.546875 686.035156 527.34375 680.171875 527.34375 Z M 680.171875 527.34375 " fill-opacity="1" fill-rule="nonzero"/><path fill="#000000" d="M 719.890625 485.027344 L 698.5625 485.027344 C 692.699219 485.027344 687.902344 480.226562 687.902344 474.363281 C 687.902344 468.5 692.699219 463.703125 698.5625 463.703125 L 719.890625 463.703125 C 725.753906 463.703125 730.550781 468.5 730.550781 474.363281 C 730.550781 480.226562 725.820312 485.027344 719.890625 485.027344 Z M 719.890625 485.027344 " fill-opacity="1" fill-rule="nonzero"/><path fill="#000000" d="M 742.148438 524.945312 L 731.285156 524.945312 C 725.421875 524.945312 720.621094 520.144531 720.621094 514.28125 C 720.621094 508.417969 725.421875 503.621094 731.285156 503.621094 L 742.148438 503.621094 C 748.011719 503.621094 752.808594 508.417969 752.808594 514.28125 C 752.808594 520.210938 748.011719 524.945312 742.148438 524.945312 Z M 742.148438 524.945312 " fill-opacity="1" fill-rule="nonzero"/><path fill="#ffffff" d="M 450.859375 476.628906 C 414.074219 477.496094 351.367188 478.5625 329.441406 475.828125 C 316.246094 474.230469 304.050781 468.699219 294.253906 462.769531 C 299.121094 453.972656 306.183594 446.773438 315.046875 442.644531 C 320.777344 439.976562 327.308594 438.3125 334.839844 438.777344 C 364.828125 440.242188 399.28125 445.707031 399.28125 445.707031 C 399.28125 445.707031 436.867188 456.636719 450.859375 476.628906 Z M 450.859375 476.628906 " fill-opacity="1" fill-rule="nonzero"/><path fill="#000000" d="M 382.355469 488.292969 C 356.164062 488.292969 338.039062 487.691406 328.175781 486.425781 C 315.3125 484.828125 302.121094 479.960938 288.792969 471.898438 C 283.925781 468.898438 282.195312 462.636719 284.992188 457.636719 C 291.191406 446.441406 300.054688 437.976562 310.648438 433.046875 C 318.578125 429.316406 326.910156 427.714844 335.507812 428.183594 C 365.695312 429.648438 399.613281 434.980469 401.082031 435.246094 C 401.546875 435.3125 401.945312 435.445312 402.414062 435.511719 C 406.613281 436.777344 443.996094 448.175781 459.722656 470.632812 C 461.988281 473.832031 462.257812 478.027344 460.523438 481.5625 C 458.726562 485.09375 455.191406 487.292969 451.261719 487.425781 C 424.070312 487.957031 401.148438 488.292969 382.355469 488.292969 Z M 310.117188 459.101562 C 317.179688 462.367188 324.109375 464.433594 330.773438 465.234375 C 343.96875 466.898438 375.15625 467.367188 421.738281 466.566406 C 412.277344 461.4375 402.347656 457.769531 396.949219 456.105469 C 391.949219 455.371094 361.097656 450.707031 334.375 449.441406 C 329.175781 449.171875 324.378906 450.105469 319.644531 452.371094 C 316.179688 453.90625 312.980469 456.238281 310.117188 459.101562 Z M 310.117188 459.101562 " fill-opacity="1" fill-rule="nonzero"/><path fill="#c68104" d="M 424.738281 500.753906 C 424.738281 500.753906 424.738281 500.753906 424.871094 500.753906 C 429.003906 500.753906 572.28125 500.289062 623.328125 451.304688 C 634.390625 440.710938 639.71875 428.980469 639.71875 415.320312 L 639.71875 246.851562 C 639.71875 246.652344 639.71875 246.386719 639.785156 246.1875 C 643.652344 247.984375 646.652344 250.25 654.113281 250.25 C 663.378906 250.25 665.976562 247.386719 671.640625 245.855469 C 671.707031 246.1875 671.707031 246.519531 671.707031 246.851562 L 671.707031 415.320312 C 671.707031 437.246094 663.042969 456.703125 645.917969 473.097656 C 586.140625 530.34375 437.597656 531.542969 425.203125 531.542969 L 424.605469 531.542969 Z M 424.738281 500.753906 " fill-opacity="1" fill-rule="nonzero"/><path fill="#000000" d="M 425.203125 542.269531 L 424.605469 542.269531 C 418.742188 542.269531 413.941406 537.472656 413.941406 531.609375 C 413.941406 525.742188 418.742188 520.945312 424.605469 520.945312 L 425.203125 520.945312 C 431.535156 520.945312 581.277344 520.347656 638.519531 465.433594 C 653.449219 451.105469 660.980469 434.3125 660.980469 415.386719 L 660.980469 260.382812 C 657.980469 260.847656 653.78125 261.046875 650.316406 260.714844 L 650.316406 415.320312 C 650.316406 431.847656 643.71875 446.507812 630.65625 458.96875 C 576.613281 510.816406 431.003906 511.417969 424.804688 511.417969 C 418.941406 511.417969 414.074219 506.617188 414.074219 500.753906 C 414.074219 494.890625 418.808594 490.089844 424.671875 490.089844 L 424.804688 490.089844 C 426.203125 490.089844 567.949219 489.558594 615.863281 443.574219 C 624.792969 435.046875 628.992188 426.050781 628.992188 415.320312 L 628.992188 246.851562 C 628.992188 246.320312 628.992188 245.121094 629.324219 243.65625 C 630.058594 240.523438 632.191406 237.921875 635.121094 236.523438 C 638.054688 235.125 641.386719 235.125 644.253906 236.523438 C 644.917969 236.855469 645.652344 237.191406 646.316406 237.523438 C 648.984375 238.855469 650.316406 239.589844 654.046875 239.589844 C 658.246094 239.589844 659.914062 238.921875 662.644531 237.722656 C 664.3125 237.058594 666.375 236.191406 668.910156 235.523438 C 671.839844 234.792969 674.90625 235.257812 677.4375 236.921875 C 679.972656 238.589844 681.636719 241.1875 682.171875 244.121094 C 682.304688 244.988281 682.371094 245.988281 682.371094 246.851562 L 682.371094 415.320312 C 682.371094 440.3125 672.574219 462.300781 653.316406 480.761719 C 590.941406 540.539062 441.996094 542.269531 425.203125 542.269531 Z M 425.203125 542.269531 " fill-opacity="1" fill-rule="nonzero"/><path fill="#000000" d="M 626.390625 539.9375 L 611.863281 539.9375 C 606 539.9375 601.203125 535.140625 601.203125 529.277344 C 601.203125 523.410156 606 518.613281 611.863281 518.613281 L 626.390625 518.613281 C 632.257812 518.613281 637.054688 523.410156 637.054688 529.277344 C 637.054688 535.140625 632.257812 539.9375 626.390625 539.9375 Z M 626.390625 539.9375 " fill-opacity="1" fill-rule="nonzero"/><path fill="#000000" d="M 553.6875 462.300781 L 536.425781 462.300781 C 530.5625 462.300781 525.765625 457.503906 525.765625 451.640625 C 525.765625 445.773438 530.5625 440.976562 536.425781 440.976562 L 553.6875 440.976562 C 559.550781 440.976562 564.351562 445.773438 564.351562 451.640625 C 564.417969 457.503906 559.617188 462.300781 553.6875 462.300781 Z M 553.6875 462.300781 " fill-opacity="1" fill-rule="nonzero"/><path fill="#000000" d="M 553.6875 464.367188 L 536.425781 464.367188 C 530.5625 464.367188 525.765625 459.570312 525.765625 453.707031 C 525.765625 447.839844 530.5625 443.042969 536.425781 443.042969 L 553.6875 443.042969 C 559.550781 443.042969 564.351562 447.839844 564.351562 453.707031 C 564.417969 459.570312 559.617188 464.367188 553.6875 464.367188 Z M 553.6875 464.367188 " fill-opacity="1" fill-rule="nonzero"/><path fill="#000000" d="M 294.324219 335.152344 C 292.855469 335.152344 291.523438 334.886719 290.191406 334.351562 C 288.925781 333.820312 287.726562 333.019531 286.792969 332.019531 C 284.792969 330.019531 283.660156 327.355469 283.660156 324.488281 C 283.660156 321.691406 284.792969 318.957031 286.792969 316.957031 C 290.722656 312.960938 297.855469 312.960938 301.851562 316.957031 C 303.851562 318.957031 304.984375 321.691406 304.984375 324.488281 C 304.984375 327.355469 303.851562 330.019531 301.851562 332.019531 C 301.386719 332.554688 300.851562 332.953125 300.253906 333.417969 C 299.652344 333.820312 299.054688 334.085938 298.453125 334.351562 C 297.789062 334.617188 297.121094 334.820312 296.453125 334.953125 C 295.65625 335.085938 294.988281 335.152344 294.324219 335.152344 Z M 294.324219 335.152344 " fill-opacity="1" fill-rule="nonzero"/><path fill="#000000" d="M 368.960938 340.617188 C 367.558594 340.617188 366.160156 340.351562 364.894531 339.816406 C 363.5625 339.285156 362.429688 338.550781 361.429688 337.550781 C 359.429688 335.550781 358.296875 332.886719 358.296875 329.953125 C 358.296875 329.289062 358.429688 328.554688 358.496094 327.886719 C 358.628906 327.222656 358.898438 326.554688 359.164062 325.890625 C 359.363281 325.222656 359.761719 324.621094 360.097656 324.023438 C 360.496094 323.421875 360.964844 322.890625 361.429688 322.421875 C 361.894531 321.957031 362.429688 321.492188 363.027344 321.089844 C 363.628906 320.691406 364.226562 320.425781 364.894531 320.15625 C 365.5625 319.890625 366.160156 319.691406 366.894531 319.492188 C 370.359375 318.824219 374.023438 319.957031 376.488281 322.421875 C 377.023438 322.890625 377.421875 323.421875 377.824219 324.023438 C 378.222656 324.621094 378.554688 325.222656 378.824219 325.890625 C 379.089844 326.554688 379.289062 327.15625 379.421875 327.886719 C 379.554688 328.554688 379.621094 329.289062 379.621094 329.953125 C 379.621094 332.820312 378.488281 335.484375 376.488281 337.550781 C 374.492188 339.550781 371.824219 340.617188 368.960938 340.617188 Z M 368.960938 340.617188 " fill-opacity="1" fill-rule="nonzero"/><path fill="#000000" d="M 417.074219 362.472656 C 414.277344 362.472656 411.542969 361.339844 409.542969 359.410156 C 407.542969 357.410156 406.410156 354.746094 406.410156 351.8125 C 406.410156 351.144531 406.546875 350.414062 406.613281 349.746094 C 406.746094 349.078125 407.011719 348.414062 407.277344 347.746094 C 407.542969 347.082031 407.878906 346.480469 408.210938 345.882812 C 408.609375 345.28125 409.078125 344.75 409.542969 344.28125 C 410.011719 343.816406 410.542969 343.347656 411.144531 342.949219 C 411.742188 342.550781 412.34375 342.28125 413.007812 341.949219 C 413.675781 341.683594 414.273438 341.550781 415.007812 341.347656 C 416.40625 341.082031 417.808594 341.082031 419.140625 341.347656 C 419.804688 341.484375 420.539062 341.683594 421.140625 341.949219 C 421.804688 342.28125 422.40625 342.617188 422.9375 342.949219 C 423.539062 343.347656 424.136719 343.816406 424.605469 344.28125 C 426.605469 346.28125 427.738281 349.011719 427.738281 351.8125 C 427.738281 354.675781 426.605469 357.34375 424.605469 359.410156 C 422.605469 361.339844 419.941406 362.472656 417.074219 362.472656 Z M 417.074219 362.472656 " fill-opacity="1" fill-rule="nonzero"/><path fill="#000000" d="M 348.96875 375.9375 C 348.234375 375.9375 347.5 375.871094 346.835938 375.734375 C 346.167969 375.601562 345.503906 375.402344 344.835938 375.136719 C 344.167969 374.871094 343.636719 374.535156 343.035156 374.203125 C 342.4375 373.804688 341.902344 373.335938 341.371094 372.804688 C 340.902344 372.335938 340.4375 371.804688 340.039062 371.203125 C 339.636719 370.605469 339.371094 370.003906 339.105469 369.40625 C 338.839844 368.738281 338.636719 368.074219 338.503906 367.40625 C 338.371094 366.738281 338.304688 366.007812 338.304688 365.339844 C 338.304688 364.671875 338.371094 363.941406 338.503906 363.273438 C 338.636719 362.609375 338.839844 361.941406 339.105469 361.273438 C 339.371094 360.609375 339.703125 360.074219 340.039062 359.476562 C 340.4375 358.875 340.902344 358.34375 341.371094 357.875 C 345.4375 353.878906 352.5 353.878906 356.496094 357.875 C 356.964844 358.34375 357.429688 358.875 357.832031 359.476562 C 358.230469 360.074219 358.496094 360.675781 358.765625 361.273438 C 359.03125 361.941406 359.230469 362.609375 359.429688 363.273438 C 359.5625 363.941406 359.628906 364.671875 359.628906 365.339844 C 359.628906 368.140625 358.496094 370.871094 356.5 372.871094 C 355.5 373.871094 354.300781 374.667969 353.03125 375.203125 C 351.765625 375.667969 350.367188 375.9375 348.96875 375.9375 Z M 348.96875 375.9375 " fill-opacity="1" fill-rule="nonzero"/><path fill="#000000" d="M 442.53125 384.332031 C 439.730469 384.332031 437 383.199219 434.933594 381.199219 C 432.933594 379.203125 431.867188 376.535156 431.867188 373.671875 C 431.867188 373.003906 431.933594 372.269531 432.070312 371.605469 C 432.203125 370.9375 432.402344 370.269531 432.667969 369.605469 C 432.933594 368.9375 433.269531 368.339844 433.667969 367.738281 C 434.066406 367.140625 434.46875 366.605469 434.933594 366.140625 C 435.46875 365.671875 436 365.207031 436.601562 364.808594 C 437.199219 364.40625 437.800781 364.074219 438.398438 363.808594 C 439.066406 363.605469 439.730469 363.40625 440.398438 363.207031 C 443.863281 362.542969 447.527344 363.605469 449.996094 366.140625 C 450.460938 366.605469 450.925781 367.140625 451.328125 367.738281 C 451.726562 368.339844 452.0625 368.9375 452.328125 369.605469 C 452.59375 370.269531 452.726562 370.871094 452.925781 371.605469 C 453.058594 372.269531 453.125 373.003906 453.125 373.671875 C 453.125 376.535156 451.992188 379.203125 449.996094 381.199219 C 447.996094 383.265625 445.328125 384.332031 442.53125 384.332031 Z M 442.53125 384.332031 " fill-opacity="1" fill-rule="nonzero"/><path fill="#000000" d="M 506.039062 366.074219 C 505.371094 366.074219 504.640625 366.007812 503.972656 365.941406 C 503.308594 365.804688 502.640625 365.539062 501.972656 365.273438 C 501.308594 365.007812 500.707031 364.671875 500.175781 364.339844 C 499.574219 363.941406 498.976562 363.472656 498.507812 363.007812 C 498.042969 362.542969 497.574219 361.941406 497.175781 361.410156 C 496.777344 360.808594 496.441406 360.207031 496.242188 359.542969 C 495.976562 358.875 495.777344 358.277344 495.578125 357.542969 C 495.445312 356.875 495.378906 356.144531 495.378906 355.410156 C 495.378906 354.746094 495.511719 354.011719 495.578125 353.34375 C 495.710938 352.679688 495.976562 352.011719 496.242188 351.34375 C 496.511719 350.679688 496.84375 350.078125 497.175781 349.546875 C 497.574219 348.945312 498.042969 348.347656 498.507812 347.878906 C 500.976562 345.414062 504.707031 344.28125 508.105469 345.015625 C 508.773438 345.148438 509.503906 345.347656 510.105469 345.613281 C 510.769531 345.882812 511.371094 346.214844 511.902344 346.546875 C 512.503906 346.945312 513.101562 347.414062 513.570312 347.878906 C 514.035156 348.347656 514.503906 348.945312 514.902344 349.546875 C 515.300781 350.078125 515.570312 350.746094 515.835938 351.34375 C 516.101562 352.011719 516.300781 352.679688 516.433594 353.34375 C 516.570312 354.011719 516.636719 354.746094 516.636719 355.410156 C 516.636719 356.144531 516.570312 356.875 516.503906 357.542969 C 516.367188 358.210938 516.101562 358.875 515.835938 359.542969 C 515.570312 360.207031 515.234375 360.808594 514.902344 361.410156 C 514.503906 361.941406 514.035156 362.542969 513.570312 363.007812 C 513.035156 363.472656 512.503906 363.941406 511.902344 364.339844 C 511.304688 364.742188 510.703125 365.074219 510.105469 365.273438 C 509.4375 365.539062 508.773438 365.738281 508.105469 365.941406 C 507.503906 366.007812 506.773438 366.074219 506.039062 366.074219 Z M 506.039062 366.074219 " fill-opacity="1" fill-rule="nonzero"/><path fill="#000000" d="M 536.425781 399.394531 C 535.027344 399.394531 533.628906 399.125 532.363281 398.59375 C 531.097656 398.058594 529.898438 397.261719 528.898438 396.261719 C 526.898438 394.261719 525.765625 391.597656 525.765625 388.730469 C 525.765625 385.933594 526.964844 383.199219 528.898438 381.199219 C 531.363281 378.667969 535.027344 377.601562 538.492188 378.269531 C 539.160156 378.402344 539.894531 378.601562 540.492188 378.867188 C 541.160156 379.132812 541.757812 379.535156 542.292969 379.867188 C 542.890625 380.265625 543.492188 380.667969 543.957031 381.199219 C 545.957031 383.199219 547.023438 385.867188 547.023438 388.730469 C 547.023438 391.597656 545.957031 394.261719 543.957031 396.261719 C 542.957031 397.261719 541.757812 398.058594 540.492188 398.59375 C 539.292969 399.125 537.894531 399.394531 536.425781 399.394531 Z M 536.425781 399.394531 " fill-opacity="1" fill-rule="nonzero"/><path fill="#000000" d="M 595.9375 399.394531 C 594.539062 399.394531 593.136719 399.125 591.871094 398.59375 C 590.605469 398.058594 589.40625 397.261719 588.40625 396.261719 C 586.40625 394.261719 585.273438 391.597656 585.273438 388.730469 C 585.273438 385.933594 586.472656 383.199219 588.40625 381.199219 C 592.40625 377.203125 599.535156 377.203125 603.535156 381.199219 C 605.535156 383.199219 606.667969 385.867188 606.667969 388.730469 C 606.667969 389.464844 606.535156 390.195312 606.464844 390.796875 C 606.332031 391.464844 606.066406 392.195312 605.800781 392.796875 C 605.535156 393.460938 605.199219 393.996094 604.867188 394.59375 C 604.46875 395.195312 604 395.726562 603.535156 396.195312 C 601.46875 398.261719 598.804688 399.394531 595.9375 399.394531 Z M 595.9375 399.394531 " fill-opacity="1" fill-rule="nonzero"/><path fill="#000000" d="M 563.285156 366.140625 C 561.816406 366.140625 560.484375 365.804688 559.152344 365.273438 C 557.886719 364.738281 556.6875 364.007812 555.6875 363.007812 C 555.21875 362.542969 554.753906 361.941406 554.355469 361.339844 C 553.953125 360.808594 553.6875 360.140625 553.421875 359.542969 C 553.15625 358.875 552.953125 358.277344 552.820312 357.542969 C 552.6875 356.875 552.621094 356.144531 552.621094 355.476562 C 552.621094 354.746094 552.6875 354.011719 552.820312 353.34375 C 552.953125 352.679688 553.15625 352.011719 553.421875 351.34375 C 553.6875 350.679688 554.019531 350.078125 554.355469 349.480469 C 554.753906 348.945312 555.21875 348.347656 555.6875 347.878906 C 559.683594 343.949219 566.816406 343.882812 570.8125 347.878906 C 571.28125 348.347656 571.746094 348.945312 572.148438 349.480469 C 572.546875 350.078125 572.8125 350.679688 573.078125 351.34375 C 573.347656 352.011719 573.546875 352.679688 573.746094 353.34375 C 573.878906 354.011719 573.945312 354.746094 573.945312 355.476562 C 573.945312 358.277344 572.8125 360.941406 570.8125 363.007812 C 569.8125 364.007812 568.679688 364.738281 567.347656 365.273438 C 566.015625 365.804688 564.683594 366.140625 563.285156 366.140625 Z M 563.285156 366.140625 " fill-opacity="1" fill-rule="nonzero"/><path fill="#000000" d="M 611.796875 346.945312 C 609 346.945312 606.332031 345.882812 604.265625 343.882812 C 602.269531 341.882812 601.136719 339.148438 601.136719 336.285156 C 601.136719 335.617188 601.269531 334.886719 601.335938 334.21875 C 601.46875 333.550781 601.734375 332.886719 602 332.21875 C 602.269531 331.554688 602.601562 330.953125 602.933594 330.355469 C 603.335938 329.753906 603.800781 329.222656 604.265625 328.753906 C 604.734375 328.289062 605.332031 327.820312 605.867188 327.421875 C 606.464844 327.023438 607.066406 326.753906 607.734375 326.488281 C 608.398438 326.222656 609.066406 326.023438 609.730469 325.820312 C 611.132812 325.554688 612.53125 325.554688 613.929688 325.820312 C 614.597656 325.957031 615.261719 326.222656 615.929688 326.488281 C 616.597656 326.753906 617.195312 327.089844 617.730469 327.421875 C 618.328125 327.820312 618.929688 328.289062 619.394531 328.753906 C 619.863281 329.222656 620.328125 329.753906 620.726562 330.355469 C 621.128906 330.953125 621.394531 331.554688 621.660156 332.21875 C 621.925781 332.886719 622.128906 333.550781 622.261719 334.21875 C 622.394531 334.886719 622.460938 335.617188 622.460938 336.285156 C 622.460938 339.148438 621.394531 341.816406 619.394531 343.882812 C 617.394531 345.882812 614.730469 346.945312 611.796875 346.945312 Z M 611.796875 346.945312 " fill-opacity="1" fill-rule="nonzero"/><path fill="#000000" d="M 709.226562 370.605469 C 708.558594 370.605469 707.761719 370.539062 707.160156 370.40625 C 706.496094 370.269531 705.761719 370.070312 705.160156 369.804688 C 704.496094 369.539062 703.960938 369.207031 703.363281 368.804688 C 702.761719 368.40625 702.230469 368.003906 701.761719 367.472656 C 700.761719 366.539062 699.964844 365.339844 699.429688 364.074219 C 698.898438 362.742188 698.628906 361.40625 698.628906 359.941406 C 698.628906 359.277344 698.699219 358.542969 698.832031 357.875 C 698.964844 357.210938 699.164062 356.542969 699.429688 355.878906 C 699.695312 355.210938 700.03125 354.675781 700.429688 354.078125 C 700.828125 353.476562 701.230469 352.945312 701.761719 352.476562 C 702.230469 351.945312 702.761719 351.546875 703.363281 351.144531 C 703.960938 350.746094 704.5625 350.414062 705.160156 350.144531 C 705.828125 349.878906 706.492188 349.679688 707.160156 349.546875 C 708.558594 349.28125 709.960938 349.28125 711.292969 349.546875 C 711.957031 349.679688 712.625 349.878906 713.292969 350.144531 C 713.957031 350.414062 714.558594 350.8125 715.15625 351.144531 C 715.757812 351.546875 716.289062 351.945312 716.757812 352.476562 C 718.824219 354.476562 719.890625 357.210938 719.890625 360.007812 C 719.890625 361.476562 719.621094 362.808594 719.089844 364.140625 C 718.554688 365.40625 717.757812 366.605469 716.757812 367.539062 C 714.757812 369.472656 712.023438 370.605469 709.226562 370.605469 Z M 709.226562 370.605469 " fill-opacity="1" fill-rule="nonzero"/><path fill="#000000" d="M 719.890625 433.179688 C 717.089844 433.179688 714.359375 432.046875 712.292969 430.046875 C 711.359375 429.046875 710.558594 427.847656 710.027344 426.582031 C 709.492188 425.316406 709.226562 423.917969 709.226562 422.519531 C 709.226562 421.785156 709.292969 421.050781 709.425781 420.386719 C 709.558594 419.71875 709.757812 419.050781 710.027344 418.386719 C 710.292969 417.71875 710.625 417.121094 711.027344 416.519531 C 711.425781 415.988281 711.824219 415.386719 712.292969 414.921875 C 712.824219 414.453125 713.359375 413.988281 713.957031 413.585938 C 714.558594 413.1875 715.15625 412.921875 715.824219 412.65625 C 716.492188 412.386719 717.089844 412.1875 717.824219 411.988281 C 719.222656 411.722656 720.621094 411.722656 721.953125 411.988281 C 722.621094 412.121094 723.289062 412.386719 723.953125 412.65625 C 724.621094 412.921875 725.21875 413.253906 725.820312 413.585938 C 726.417969 413.988281 726.953125 414.453125 727.417969 414.921875 C 727.953125 415.386719 728.351562 415.988281 728.753906 416.519531 C 729.152344 417.121094 729.484375 417.71875 729.75 418.386719 C 730.019531 419.050781 730.21875 419.71875 730.351562 420.386719 C 730.484375 421.050781 730.550781 421.785156 730.550781 422.519531 C 730.550781 423.917969 730.285156 425.316406 729.75 426.582031 C 729.21875 427.847656 728.417969 429.046875 727.417969 430.046875 C 726.417969 431.046875 725.285156 431.78125 723.953125 432.3125 C 722.6875 432.847656 721.355469 433.179688 719.890625 433.179688 Z M 719.890625 433.179688 " fill-opacity="1" fill-rule="nonzero"/><path fill="#000000" d="M 742.148438 399.660156 C 740.679688 399.660156 739.347656 399.394531 738.015625 398.859375 C 736.75 398.328125 735.550781 397.527344 734.550781 396.527344 C 732.550781 394.527344 731.484375 391.863281 731.484375 388.996094 C 731.484375 388.332031 731.550781 387.597656 731.683594 386.929688 C 731.816406 386.265625 732.015625 385.53125 732.285156 384.933594 C 732.550781 384.265625 732.882812 383.734375 733.285156 383.132812 C 733.683594 382.535156 734.082031 382 734.550781 381.535156 C 735.082031 381 735.617188 380.601562 736.214844 380.199219 C 736.816406 379.800781 737.414062 379.46875 738.015625 379.203125 C 738.679688 378.933594 739.347656 378.734375 740.015625 378.601562 C 741.414062 378.335938 742.8125 378.335938 744.144531 378.601562 C 744.8125 378.734375 745.480469 378.933594 746.144531 379.203125 C 746.8125 379.46875 747.410156 379.800781 748.011719 380.199219 C 748.609375 380.601562 749.144531 381 749.609375 381.535156 C 750.144531 382 750.542969 382.535156 750.945312 383.132812 C 751.34375 383.734375 751.675781 384.332031 751.941406 384.933594 C 752.210938 385.597656 752.34375 386.265625 752.542969 386.929688 C 752.675781 387.597656 752.742188 388.332031 752.742188 388.996094 C 752.742188 391.796875 751.609375 394.527344 749.609375 396.527344 C 749.144531 396.996094 748.609375 397.460938 748.011719 397.859375 C 747.410156 398.261719 746.8125 398.59375 746.144531 398.859375 C 745.480469 399.125 744.878906 399.261719 744.144531 399.460938 C 743.546875 399.59375 742.8125 399.660156 742.148438 399.660156 Z M 742.148438 399.660156 " fill-opacity="1" fill-rule="nonzero"/><path fill="#000000" d="M 736.683594 335.152344 C 735.214844 335.152344 733.882812 334.886719 732.550781 334.351562 C 731.285156 333.820312 730.085938 333.019531 729.152344 332.019531 C 728.152344 331.085938 727.351562 329.886719 726.820312 328.621094 C 726.285156 327.355469 726.019531 325.957031 726.019531 324.488281 C 726.019531 323.824219 726.085938 323.089844 726.21875 322.421875 C 726.351562 321.757812 726.554688 321.089844 726.820312 320.425781 C 727.085938 319.757812 727.417969 319.15625 727.820312 318.558594 C 728.21875 317.957031 728.617188 317.425781 729.152344 316.960938 C 733.082031 312.960938 740.214844 312.960938 744.210938 316.960938 C 744.746094 317.425781 745.144531 317.957031 745.546875 318.558594 C 745.945312 319.15625 746.277344 319.757812 746.546875 320.425781 C 746.8125 321.089844 746.945312 321.691406 747.144531 322.421875 C 747.277344 323.089844 747.34375 323.824219 747.34375 324.488281 C 747.34375 325.957031 747.078125 327.289062 746.546875 328.621094 C 746.011719 329.886719 745.210938 331.085938 744.210938 332.019531 C 743.746094 332.554688 743.214844 332.953125 742.613281 333.417969 C 742.011719 333.820312 741.414062 334.085938 740.746094 334.351562 C 740.082031 334.617188 739.480469 334.820312 738.75 334.953125 C 738.082031 335.085938 737.414062 335.152344 736.683594 335.152344 Z M 736.683594 335.152344 " fill-opacity="1" fill-rule="nonzero"/><path fill="#000000" d="M 450.859375 335.152344 C 447.996094 335.152344 445.328125 334.019531 443.332031 332.019531 C 442.332031 331.085938 441.53125 329.886719 441 328.621094 C 440.464844 327.355469 440.199219 325.957031 440.199219 324.488281 C 440.199219 323.824219 440.265625 323.089844 440.398438 322.421875 C 440.53125 321.757812 440.730469 321.089844 441 320.425781 C 441.265625 319.757812 441.597656 319.15625 441.996094 318.558594 C 442.398438 317.957031 442.796875 317.425781 443.332031 316.957031 C 443.796875 316.425781 444.332031 316.027344 444.929688 315.625 C 445.53125 315.226562 446.128906 314.894531 446.730469 314.625 C 447.394531 314.292969 448.0625 314.160156 448.730469 313.960938 C 450.128906 313.695312 451.527344 313.695312 452.859375 313.960938 C 453.527344 314.09375 454.191406 314.292969 454.859375 314.625 C 455.527344 314.828125 456.125 315.226562 456.726562 315.625 C 457.324219 316.027344 457.859375 316.425781 458.324219 316.957031 C 458.859375 317.425781 459.257812 317.957031 459.65625 318.558594 C 460.058594 319.15625 460.390625 319.757812 460.65625 320.425781 C 460.921875 321.089844 461.058594 321.691406 461.257812 322.421875 C 461.390625 323.089844 461.457031 323.824219 461.457031 324.488281 C 461.457031 325.957031 461.191406 327.289062 460.65625 328.621094 C 460.125 329.886719 459.324219 331.085938 458.324219 332.019531 C 456.390625 334.019531 453.726562 335.152344 450.859375 335.152344 Z M 450.859375 335.152344 " fill-opacity="1" fill-rule="nonzero"/><path fill="#000000" d="M 392.550781 404.125 C 389.683594 404.125 387.019531 402.992188 384.953125 400.992188 C 383.953125 400.058594 383.222656 398.859375 382.6875 397.59375 C 382.15625 396.328125 381.886719 394.929688 381.886719 393.460938 C 381.886719 392.796875 381.953125 392.0625 382.089844 391.394531 C 382.222656 390.730469 382.421875 390.0625 382.6875 389.398438 C 382.953125 388.730469 383.289062 388.132812 383.6875 387.53125 C 384.085938 386.929688 384.488281 386.398438 384.953125 385.933594 C 385.488281 385.464844 386.019531 385 386.621094 384.597656 C 387.21875 384.199219 387.820312 383.933594 388.417969 383.667969 C 389.085938 383.398438 389.75 383.199219 390.417969 383 C 391.816406 382.734375 393.21875 382.734375 394.550781 383 C 395.214844 383.132812 395.882812 383.398438 396.550781 383.667969 C 397.214844 383.933594 397.816406 384.265625 398.414062 384.597656 C 399.015625 385 399.546875 385.464844 400.015625 385.933594 C 400.480469 386.398438 400.949219 386.929688 401.347656 387.53125 C 401.746094 388.132812 402.082031 388.730469 402.347656 389.398438 C 402.546875 390.0625 402.746094 390.664062 402.945312 391.394531 C 403.078125 392.0625 403.144531 392.796875 403.144531 393.460938 C 403.144531 396.261719 402.011719 398.992188 400.015625 400.992188 C 398.082031 402.992188 395.417969 404.125 392.550781 404.125 Z M 392.550781 404.125 " fill-opacity="1" fill-rule="nonzero"/><path fill="#000000" d="M 280.859375 375.9375 C 279.394531 375.9375 278.0625 375.667969 276.796875 375.136719 C 275.464844 374.601562 274.332031 373.804688 273.332031 372.804688 C 272.796875 372.335938 272.398438 371.804688 271.929688 371.203125 C 271.53125 370.605469 271.265625 370.003906 271 369.40625 C 270.730469 368.738281 270.53125 368.074219 270.398438 367.40625 C 270.265625 366.738281 270.199219 366.007812 270.199219 365.339844 C 270.199219 362.542969 271.332031 359.808594 273.332031 357.808594 C 273.796875 357.277344 274.332031 356.875 274.929688 356.476562 C 275.53125 356.078125 276.128906 355.742188 276.796875 355.476562 C 277.460938 355.210938 278.0625 355.011719 278.796875 354.878906 C 280.195312 354.542969 281.59375 354.542969 282.925781 354.878906 C 283.59375 355.011719 284.257812 355.210938 284.925781 355.476562 C 285.59375 355.742188 286.191406 356.078125 286.792969 356.476562 C 287.390625 356.875 287.925781 357.277344 288.390625 357.808594 C 288.925781 358.277344 289.324219 358.808594 289.722656 359.410156 C 290.125 360.007812 290.457031 360.609375 290.722656 361.207031 C 290.992188 361.875 291.191406 362.542969 291.324219 363.207031 C 291.457031 363.875 291.523438 364.605469 291.523438 365.273438 C 291.523438 365.941406 291.457031 366.671875 291.324219 367.339844 C 291.191406 368.003906 290.992188 368.738281 290.722656 369.339844 C 290.457031 370.003906 290.125 370.539062 289.789062 371.136719 C 289.390625 371.738281 288.925781 372.269531 288.390625 372.738281 C 287.925781 373.269531 287.390625 373.671875 286.792969 374.070312 C 286.191406 374.46875 285.59375 374.804688 284.992188 375.070312 C 284.328125 375.335938 283.660156 375.535156 282.992188 375.667969 C 282.261719 375.871094 281.527344 375.9375 280.859375 375.9375 Z M 280.859375 375.9375 " fill-opacity="1" fill-rule="nonzero"/><path fill="#000000" d="M 693.765625 73.453125 L 617.527344 73.453125 C 611.664062 73.453125 606.867188 68.65625 606.867188 62.792969 C 606.867188 56.925781 611.664062 52.128906 617.527344 52.128906 L 693.832031 52.128906 C 699.695312 52.128906 704.496094 56.925781 704.496094 62.792969 C 704.429688 68.65625 699.695312 73.453125 693.765625 73.453125 Z M 693.765625 73.453125 " fill-opacity="1" fill-rule="nonzero"/><path fill="#000000" d="M 671.640625 105.773438 L 639.652344 105.773438 C 633.789062 105.773438 628.992188 100.976562 628.992188 95.113281 C 628.992188 89.25 633.789062 84.449219 639.652344 84.449219 L 671.640625 84.449219 C 677.503906 84.449219 682.304688 89.25 682.304688 95.113281 C 682.304688 100.976562 677.570312 105.773438 671.640625 105.773438 Z M 671.640625 105.773438 " fill-opacity="1" fill-rule="nonzero"/><path fill="#000000" d="M 684.96875 145.960938 L 626.390625 145.960938 C 620.527344 145.960938 615.730469 141.160156 615.730469 135.296875 C 615.730469 129.433594 620.527344 124.632812 626.390625 124.632812 L 684.96875 124.632812 C 690.832031 124.632812 695.632812 129.433594 695.632812 135.296875 C 695.632812 141.160156 690.832031 145.960938 684.96875 145.960938 Z M 684.96875 145.960938 " fill-opacity="1" fill-rule="nonzero"/><path fill="#000000" d="M 684.96875 186.144531 L 626.390625 186.144531 C 620.527344 186.144531 615.730469 181.34375 615.730469 175.480469 C 615.730469 169.617188 620.527344 164.820312 626.390625 164.820312 L 684.96875 164.820312 C 690.832031 164.820312 695.632812 169.617188 695.632812 175.480469 C 695.632812 181.34375 690.832031 186.144531 684.96875 186.144531 Z M 684.96875 186.144531 " fill-opacity="1" fill-rule="nonzero"/><path fill="#c68104" d="M 719.890625 222.261719 L 719.890625 245.453125 C 718.957031 246.121094 718.15625 246.851562 717.089844 247.453125 L 694.632812 247.453125 C 690.433594 246.253906 686.300781 244.855469 679.503906 244.855469 C 676.105469 244.855469 673.640625 245.253906 671.574219 245.785156 C 669.773438 246.253906 668.308594 246.851562 666.910156 247.453125 L 642.453125 247.453125 C 641.519531 247.054688 640.652344 246.519531 639.71875 246.121094 C 637.054688 244.855469 633.988281 243.789062 628.792969 243.789062 C 616.0625 243.789062 616.328125 246.386719 603.667969 246.386719 C 597.671875 246.386719 594.472656 246.054688 591.40625 245.652344 L 591.40625 222.261719 C 591.40625 218.332031 593.207031 214.867188 595.9375 212.464844 C 598.136719 210.601562 601.070312 209.46875 604.199219 209.46875 L 707.09375 209.46875 C 714.222656 209.46875 719.890625 215.265625 719.890625 222.261719 Z M 719.890625 222.261719 " fill-opacity="1" fill-rule="nonzero"/><path fill="#000000" d="M 717.15625 258.183594 L 694.699219 258.183594 C 693.699219 258.183594 692.699219 258.046875 691.699219 257.78125 L 690.632812 257.449219 C 687.101562 256.382812 684.234375 255.582031 679.570312 255.582031 C 676.839844 255.582031 675.371094 255.917969 674.507812 256.117188 C 673.039062 256.515625 672.039062 256.914062 671.042969 257.316406 C 669.773438 257.847656 668.308594 258.117188 666.910156 258.117188 L 642.453125 258.117188 C 640.851562 258.117188 639.320312 257.78125 637.921875 257.117188 L 635.1875 255.78125 C 633.65625 255.050781 632.125 254.449219 628.792969 254.449219 C 623.527344 254.449219 621.261719 254.917969 618.394531 255.515625 C 614.996094 256.25 611.066406 257.050781 603.667969 257.050781 C 597.402344 257.050781 593.671875 256.714844 589.941406 256.183594 C 584.675781 255.449219 580.742188 250.917969 580.742188 245.585938 L 580.742188 222.195312 C 580.742188 209.269531 591.273438 198.738281 604.199219 198.738281 L 707.09375 198.738281 C 720.023438 198.738281 730.550781 209.269531 730.550781 222.195312 L 730.550781 245.386719 C 730.550781 248.71875 729.019531 251.851562 726.351562 253.851562 L 725.886719 254.183594 C 724.886719 254.917969 723.886719 255.714844 722.753906 256.382812 C 721.089844 257.648438 719.15625 258.183594 717.15625 258.183594 Z M 719.890625 245.519531 Z M 696.164062 236.855469 L 709.226562 236.855469 L 709.226562 222.328125 C 709.226562 221.128906 708.292969 220.195312 707.09375 220.195312 L 604.199219 220.195312 C 603.066406 220.195312 602.070312 221.195312 602.070312 222.328125 L 602.070312 235.789062 C 602.601562 235.789062 603.132812 235.789062 603.667969 235.789062 C 608.933594 235.789062 611.199219 235.324219 614.0625 234.722656 C 617.460938 233.992188 621.394531 233.191406 628.792969 233.191406 C 636.253906 233.191406 640.851562 234.925781 644.320312 236.589844 L 644.917969 236.855469 L 664.910156 236.855469 C 666.109375 236.390625 667.375 235.925781 668.910156 235.589844 C 671.972656 234.722656 675.441406 234.257812 679.570312 234.257812 C 687.035156 234.257812 692.101562 235.65625 696.164062 236.855469 Z M 696.164062 236.855469 " fill-opacity="1" fill-rule="nonzero"/></svg>