<svg xmlns="http://www.w3.org/2000/svg" xmlns:xlink="http://www.w3.org/1999/xlink" width="1366" zoomAndPan="magnify" viewBox="0 0 1024.5 576" height="768" preserveAspectRatio="xMidYMid meet" version="1.0"><defs><clipPath id="f37559f587"><path d="M 628.199219 248 L 741 248 L 741 376.742188 L 628.199219 376.742188 Z M 628.199219 248 " clip-rule="nonzero"/></clipPath><clipPath id="16812cc2d7"><path d="M 646 246.304688 L 758.636719 246.304688 L 758.636719 376.742188 L 646 376.742188 Z M 646 246.304688 " clip-rule="nonzero"/></clipPath></defs><path fill="#000000" d="M 264.121094 262.257812 C 268.941406 269.355469 278.691406 271.222656 285.789062 266.40625 L 305.496094 253.039062 C 304.367188 241.242188 303.242188 229.445312 302.097656 217.648438 L 268.273438 240.597656 C 261.171875 245.410156 259.304688 255.160156 264.121094 262.257812 Z M 330 123.53125 C 343.445312 118.28125 358.605469 124.921875 363.859375 138.363281 C 369.109375 151.808594 362.46875 166.964844 349.019531 172.214844 C 335.574219 177.464844 320.414062 170.824219 315.160156 157.378906 C 309.910156 143.9375 316.554688 128.78125 330 123.53125 Z M 679.679688 85.71875 L 656.71875 108.679688 C 656 109.394531 655.046875 109.675781 654.058594 109.460938 L 643.011719 107.082031 L 601.949219 148.132812 C 598.933594 151.152344 594.039062 151.152344 591.023438 148.132812 C 588.003906 145.117188 588.003906 140.226562 591.023438 137.210938 L 632.085938 96.15625 L 629.703125 85.117188 C 629.492188 84.125 629.769531 83.171875 630.488281 82.457031 L 653.453125 59.496094 C 655.082031 57.871094 657.851562 58.6875 658.335938 60.9375 L 661.46875 75.480469 C 661.714844 76.621094 662.554688 77.457031 663.691406 77.703125 L 678.242188 80.839844 C 680.492188 81.324219 681.308594 84.089844 679.679688 85.71875 Z M 616.257812 144.753906 L 607.414062 153.597656 C 601.378906 159.628906 591.589844 159.628906 585.558594 153.597656 C 579.523438 147.566406 579.523438 137.777344 585.558594 131.746094 L 594.597656 122.710938 C 584.417969 123.625 576.4375 132.175781 576.4375 142.59375 C 576.4375 153.617188 585.378906 162.558594 596.40625 162.558594 C 606.707031 162.558594 615.179688 154.761719 616.257812 144.753906 Z M 596.40625 97.609375 C 571.558594 97.609375 551.414062 117.75 551.414062 142.59375 C 551.414062 167.4375 571.558594 187.574219 596.40625 187.574219 C 621.257812 187.574219 641.398438 167.4375 641.398438 142.59375 C 641.398438 135.863281 639.917969 129.480469 637.269531 123.75 L 626.832031 134.183594 C 627.570312 136.863281 627.96875 139.679688 627.96875 142.59375 C 627.96875 160.019531 613.835938 174.144531 596.40625 174.144531 C 578.976562 174.144531 564.847656 160.019531 564.847656 142.59375 C 564.847656 125.167969 578.976562 111.042969 596.40625 111.042969 C 599.410156 111.042969 602.316406 111.460938 605.070312 112.246094 L 615.472656 101.84375 C 609.683594 99.128906 603.222656 97.609375 596.40625 97.609375 Z M 596.40625 72.59375 C 557.738281 72.59375 526.390625 103.933594 526.390625 142.59375 C 526.390625 181.25 557.738281 212.589844 596.40625 212.589844 C 635.074219 212.589844 666.421875 181.25 666.421875 142.59375 C 666.421875 132.890625 664.449219 123.648438 660.878906 115.25 C 656.15625 118.667969 651.285156 116.765625 646.183594 115.667969 C 650.523438 123.671875 652.988281 132.84375 652.988281 142.59375 C 652.988281 173.835938 627.65625 199.160156 596.40625 199.160156 C 565.15625 199.160156 539.824219 173.835938 539.824219 142.59375 C 539.824219 111.351562 565.15625 86.023438 596.40625 86.023438 C 606.214844 86.023438 615.441406 88.519531 623.480469 92.90625 L 622.152344 86.742188 C 621.503906 83.726562 622.175781 80.660156 623.964844 78.226562 C 615.507812 74.601562 606.191406 72.59375 596.40625 72.59375 Z M 558.957031 365.539062 C 592.273438 365.539062 619.285156 392.542969 619.285156 425.851562 C 619.285156 459.164062 592.273438 486.167969 558.957031 486.167969 C 525.640625 486.167969 498.628906 459.164062 498.628906 425.851562 C 498.628906 392.542969 525.636719 365.539062 558.957031 365.539062 Z M 551.226562 390.019531 L 551.226562 425.851562 C 551.226562 428.90625 553.003906 431.550781 555.578125 432.804688 L 581.03125 447.496094 C 584.714844 449.628906 589.429688 448.371094 591.566406 444.6875 C 593.699219 441.003906 592.441406 436.289062 588.757812 434.15625 L 566.683594 421.414062 L 566.683594 390.019531 C 566.683594 385.753906 563.222656 382.292969 558.957031 382.292969 C 554.6875 382.292969 551.226562 385.753906 551.226562 390.019531 Z M 399.464844 184.089844 C 406.851562 179.683594 416.410156 182.105469 420.816406 189.492188 C 425.21875 196.878906 422.800781 206.433594 415.410156 210.835938 L 383.46875 229.925781 C 379.632812 232.210938 375.207031 232.65625 371.222656 231.523438 L 349.734375 225.832031 L 352.808594 258.71875 L 391.730469 271.84375 C 397.488281 273.777344 401.367188 278.75 402.183594 284.378906 L 410.414062 341.882812 C 411.644531 350.402344 405.738281 358.304688 397.21875 359.535156 C 388.699219 360.765625 380.796875 354.859375 379.566406 346.339844 L 372.695312 298.300781 L 356.140625 292.71875 L 356.523438 296.648438 C 356.859375 300.03125 356.085938 303.273438 354.496094 306.003906 L 319.21875 372.15625 C 315.167969 379.738281 305.738281 382.597656 298.15625 378.550781 C 290.574219 374.5 287.710938 365.070312 291.757812 357.492188 L 325.066406 295.035156 C 322.320312 267.019531 319.292969 234.59375 316.546875 206.578125 C 316.367188 204.769531 316.503906 202.898438 317 201.039062 C 319.210938 192.730469 327.742188 187.789062 336.050781 190 L 373.136719 199.820312 Z M 484.816406 468.933594 C 463.636719 432.5625 472.011719 385.90625 505.007812 359.203125 C 532.058594 337.3125 569.90625 333.960938 600.328125 350.738281 C 598.109375 352.15625 596.679688 354.675781 596.777344 357.496094 C 596.929688 361.75 600.496094 365.074219 604.75 364.921875 L 621.433594 364.324219 C 626.617188 364.507812 630.578125 359.566406 629.136719 354.496094 L 624.40625 337.917969 C 623.238281 333.820312 618.964844 331.441406 614.863281 332.605469 C 612.097656 333.394531 610.117188 335.589844 609.476562 338.199219 C 573.320312 317.34375 527.8125 320.929688 495.289062 347.253906 C 456.382812 378.738281 446.5 433.769531 471.472656 476.660156 C 473.605469 480.34375 478.324219 481.601562 482.007812 479.464844 C 485.691406 477.332031 486.949219 472.617188 484.816406 468.933594 Z M 508.4375 513.503906 C 544.613281 534.335938 590.082031 530.789062 622.621094 504.453125 C 661.601562 472.910156 671.371094 417.859375 646.441406 375.046875 C 644.304688 371.363281 639.589844 370.105469 635.90625 372.242188 C 632.21875 374.375 630.964844 379.089844 633.097656 382.773438 C 654.246094 419.085938 645.964844 465.746094 612.902344 492.503906 C 585.878906 514.375 547.964844 517.765625 517.574219 500.972656 C 519.796875 499.554688 521.234375 497.03125 521.132812 494.207031 C 520.984375 489.957031 517.414062 486.632812 513.164062 486.78125 L 496.480469 487.382812 C 491.292969 487.199219 487.335938 492.140625 488.777344 497.210938 L 493.507812 513.789062 C 494.675781 517.886719 498.949219 520.265625 503.046875 519.097656 C 505.816406 518.3125 507.796875 516.113281 508.4375 513.503906 Z M 606.335938 240.890625 C 610.601562 240.890625 614.0625 244.351562 614.0625 248.617188 C 614.0625 252.882812 610.601562 256.34375 606.335938 256.34375 L 534.441406 256.34375 L 534.441406 315.578125 C 534.441406 319.84375 530.980469 323.304688 526.710938 323.304688 L 454.816406 323.304688 L 454.816406 382.539062 C 454.816406 386.804688 451.355469 390.265625 447.089844 390.265625 L 375.195312 390.265625 L 375.195312 449.5 C 375.195312 453.765625 371.734375 457.226562 367.464844 457.226562 L 287.839844 457.226562 C 283.574219 457.226562 280.113281 453.765625 280.113281 449.5 C 280.113281 445.234375 283.574219 441.773438 287.839844 441.773438 L 359.738281 441.773438 L 359.738281 382.539062 C 359.738281 378.273438 363.199219 374.8125 367.464844 374.8125 L 439.359375 374.8125 L 439.359375 315.578125 C 439.359375 311.3125 442.820312 307.851562 447.089844 307.851562 L 518.984375 307.851562 L 518.984375 248.617188 C 518.984375 244.351562 522.445312 240.890625 526.710938 240.890625 Z M 606.335938 240.890625 " fill-opacity="1" fill-rule="evenodd"/><g clip-path="url(#f37559f587)"><path fill="#ffffff" d="M 716.230469 290.566406 C 729.824219 290.566406 736.621094 300.285156 736.621094 311.5 C 736.621094 322.441406 729.824219 332.296875 716.230469 332.296875 C 708.210938 332.296875 702.5625 328.941406 699.261719 323.921875 L 699.261719 329.558594 C 703.242188 333.382812 708.894531 335.761719 716.230469 335.761719 C 722.960938 335.761719 728.53125 333.65625 732.40625 330.257812 L 738.390625 335.96875 L 740.699219 333.589844 L 734.648438 327.746094 C 738.320312 323.257812 740.222656 317.277344 740.222656 311.5 C 740.292969 298.519531 732.273438 287.101562 716.230469 287.101562 C 700.324219 287.101562 692.304688 298.453125 692.171875 311.09375 C 692.167969 311.242188 692.179688 311.386719 692.179688 311.535156 L 692.167969 311.535156 L 692.167969 373.332031 C 658.65625 372.652344 631.597656 345.203125 631.597656 311.535156 C 631.597656 283.222656 650.730469 259.3125 676.742188 252.011719 L 676.742188 248.476562 C 648.835938 255.867188 628.199219 281.332031 628.199219 311.535156 C 628.199219 347.5 657.460938 376.761719 693.429688 376.761719 C 694.195312 376.761719 694.953125 376.726562 695.714844 376.703125 L 695.714844 311.535156 L 695.777344 311.535156 C 695.777344 311.386719 695.769531 311.238281 695.773438 311.089844 C 695.769531 299.46875 704.132812 290.566406 716.230469 290.566406 Z M 716.230469 290.566406 " fill-opacity="1" fill-rule="nonzero"/></g><g clip-path="url(#16812cc2d7)"><path fill="#ffffff" d="M 693.429688 246.304688 C 688.875 246.304688 684.433594 246.777344 680.144531 247.667969 L 680.140625 310.34375 L 649.828125 310.34375 L 649.828125 287.710938 L 646.15625 287.710938 L 646.15625 335.289062 L 649.828125 335.289062 L 649.828125 313.675781 L 680.140625 313.675781 L 680.140625 335.289062 L 683.8125 335.289062 L 683.8125 250.46875 C 686.945312 249.96875 690.15625 249.703125 693.429688 249.703125 C 727.519531 249.703125 755.253906 277.4375 755.253906 311.53125 C 755.253906 343.65625 730.625 370.125 699.257812 373.074219 L 699.257812 376.484375 C 732.5 373.519531 758.652344 345.527344 758.652344 311.53125 C 758.65625 275.566406 729.394531 246.304688 693.429688 246.304688 Z M 693.429688 246.304688 " fill-opacity="1" fill-rule="nonzero"/></g></svg>