<svg xmlns="http://www.w3.org/2000/svg" xmlns:xlink="http://www.w3.org/1999/xlink" width="150" zoomAndPan="magnify" viewBox="0 0 112.5 112.499997" height="150" preserveAspectRatio="xMidYMid meet" version="1.0"><defs><clipPath id="dac283dd40"><path d="M 51.722656 67.265625 L 53.214844 67.265625 L 53.214844 68.761719 L 51.722656 68.761719 Z M 51.722656 67.265625 " clip-rule="nonzero"/></clipPath><clipPath id="2399df7159"><path d="M 0 0.464844 L 112 0.464844 L 112 111.722656 L 0 111.722656 Z M 0 0.464844 " clip-rule="nonzero"/></clipPath></defs><g clip-path="url(#dac283dd40)"><path fill="#ffffff" d="M 52.894531 67.855469 C 53.074219 67.855469 53.167969 67.984375 53.167969 68.136719 C 53.167969 68.28125 53.074219 68.414062 52.894531 68.414062 C 52.789062 68.414062 52.710938 68.367188 52.667969 68.300781 L 52.667969 68.375 C 52.722656 68.425781 52.796875 68.457031 52.894531 68.457031 C 52.984375 68.457031 53.058594 68.429688 53.109375 68.386719 L 53.191406 68.460938 L 53.222656 68.429688 L 53.140625 68.351562 C 53.1875 68.292969 53.214844 68.210938 53.214844 68.136719 C 53.214844 67.960938 53.109375 67.808594 52.894531 67.808594 C 52.683594 67.808594 52.574219 67.960938 52.574219 68.128906 C 52.574219 68.132812 52.574219 68.132812 52.574219 68.136719 L 52.574219 68.960938 C 52.128906 68.949219 51.765625 68.585938 51.765625 68.136719 C 51.765625 67.757812 52.023438 67.441406 52.367188 67.34375 L 52.367188 67.296875 C 51.996094 67.394531 51.722656 67.734375 51.722656 68.136719 C 51.722656 68.613281 52.113281 69.003906 52.589844 69.003906 C 52.601562 69.003906 52.613281 69.003906 52.621094 69.003906 L 52.621094 68.136719 C 52.621094 68.132812 52.621094 68.132812 52.621094 68.128906 C 52.621094 67.976562 52.734375 67.855469 52.894531 67.855469 Z M 52.894531 67.855469 " fill-opacity="1" fill-rule="nonzero"/><path fill="#ffffff" d="M 52.589844 67.265625 C 52.53125 67.265625 52.472656 67.273438 52.414062 67.285156 L 52.414062 68.121094 L 52.011719 68.121094 L 52.011719 67.820312 L 51.960938 67.820312 L 51.960938 68.453125 L 52.011719 68.453125 L 52.011719 68.164062 L 52.414062 68.164062 L 52.414062 68.453125 L 52.460938 68.453125 L 52.460938 67.324219 C 52.503906 67.316406 52.546875 67.3125 52.589844 67.3125 C 53.046875 67.3125 53.414062 67.683594 53.414062 68.136719 C 53.414062 68.5625 53.085938 68.917969 52.667969 68.957031 L 52.667969 69 C 53.113281 68.960938 53.460938 68.589844 53.460938 68.136719 C 53.460938 67.65625 53.070312 67.265625 52.589844 67.265625 Z M 52.589844 67.265625 " fill-opacity="1" fill-rule="nonzero"/></g><g clip-path="url(#2399df7159)"><path fill="#666666" d="M 21.472656 66.894531 L 21.167969 66.796875 C 20.074219 66.4375 18.902344 66.527344 17.871094 67.046875 C 16.839844 67.566406 16.074219 68.457031 15.714844 69.550781 L 15.257812 70.941406 C 13.566406 66.269531 12.710938 61.359375 12.710938 56.304688 C 12.710938 47.789062 15.1875 39.558594 19.875 32.5 L 19.964844 32.363281 C 21.28125 30.378906 20.738281 27.695312 18.753906 26.378906 L 18.488281 26.199219 C 16.503906 24.882812 13.816406 25.425781 12.5 27.40625 L 12.410156 27.542969 C 6.746094 36.074219 3.75 46.019531 3.75 56.304688 C 3.75 62.742188 4.902344 68.992188 7.179688 74.921875 L 5.90625 74.503906 C 3.644531 73.761719 1.199219 74.996094 0.453125 77.257812 L 0.355469 77.5625 C -0.00390625 78.65625 0.0859375 79.828125 0.605469 80.859375 C 1.128906 81.890625 2.015625 82.65625 3.109375 83.015625 L 17.683594 87.808594 C 17.828125 87.855469 17.972656 87.878906 18.117188 87.878906 C 18.699219 87.878906 19.242188 87.507812 19.433594 86.925781 L 24.226562 72.351562 C 24.96875 70.085938 23.734375 67.640625 21.472656 66.894531 Z M 21.59375 71.484375 L 17.234375 84.742188 L 3.976562 80.382812 C 3.585938 80.253906 3.265625 79.980469 3.078125 79.609375 C 2.890625 79.238281 2.859375 78.820312 2.988281 78.429688 L 3.089844 78.125 C 3.304688 77.472656 3.90625 77.058594 4.558594 77.058594 C 4.71875 77.058594 4.882812 77.085938 5.042969 77.136719 L 9.195312 78.503906 C 9.71875 78.675781 10.292969 78.523438 10.660156 78.113281 C 11.027344 77.703125 11.117188 77.117188 10.890625 76.617188 C 7.992188 70.214844 6.523438 63.382812 6.523438 56.304688 C 6.523438 46.566406 9.355469 37.152344 14.71875 29.074219 L 14.808594 28.941406 C 15.28125 28.230469 16.246094 28.035156 16.957031 28.511719 L 17.222656 28.6875 C 17.9375 29.160156 18.128906 30.121094 17.65625 30.832031 L 17.566406 30.96875 C 12.578125 38.484375 9.941406 47.246094 9.941406 56.304688 C 9.941406 63.015625 11.355469 69.480469 14.148438 75.519531 C 14.386719 76.035156 14.914062 76.351562 15.484375 76.320312 C 16.054688 76.289062 16.542969 75.910156 16.71875 75.367188 L 18.347656 70.417969 C 18.476562 70.027344 18.753906 69.707031 19.121094 69.519531 C 19.492188 69.332031 19.914062 69.300781 20.304688 69.429688 L 20.609375 69.53125 C 21.417969 69.796875 21.859375 70.671875 21.59375 71.484375 Z M 86.425781 92.675781 L 71.851562 87.882812 C 69.585938 87.136719 67.144531 88.371094 66.398438 90.632812 L 66.300781 90.9375 C 65.941406 92.035156 66.03125 93.203125 66.550781 94.234375 C 67.070312 95.265625 67.960938 96.03125 69.054688 96.394531 L 70.445312 96.851562 C 65.773438 98.539062 60.863281 99.394531 55.808594 99.394531 C 47.292969 99.394531 39.0625 96.917969 32.003906 92.230469 L 31.867188 92.144531 C 29.882812 90.824219 27.199219 91.367188 25.882812 93.351562 L 25.703125 93.617188 C 24.386719 95.601562 24.925781 98.289062 26.910156 99.605469 L 27.046875 99.695312 C 35.578125 105.363281 45.523438 108.355469 55.808594 108.355469 C 62.246094 108.355469 68.496094 107.203125 74.425781 104.925781 L 74.007812 106.199219 C 73.265625 108.460938 74.5 110.90625 76.761719 111.652344 L 77.066406 111.75 C 77.511719 111.898438 77.96875 111.96875 78.414062 111.96875 C 80.230469 111.96875 81.921875 110.8125 82.519531 108.996094 L 87.3125 94.421875 C 87.546875 93.695312 87.152344 92.914062 86.425781 92.675781 Z M 79.882812 108.132812 C 79.617188 108.945312 78.742188 109.386719 77.929688 109.121094 L 77.625 109.019531 C 76.816406 108.753906 76.371094 107.878906 76.640625 107.066406 L 78.003906 102.914062 C 78.175781 102.390625 78.023438 101.816406 77.613281 101.449219 C 77.355469 101.214844 77.023438 101.09375 76.6875 101.09375 C 76.492188 101.09375 76.300781 101.132812 76.117188 101.214844 C 69.714844 104.117188 62.882812 105.585938 55.804688 105.585938 C 46.070312 105.585938 36.652344 102.75 28.578125 97.386719 L 28.441406 97.296875 C 27.730469 96.828125 27.539062 95.863281 28.011719 95.152344 L 28.1875 94.882812 C 28.660156 94.171875 29.625 93.980469 30.335938 94.453125 L 30.46875 94.539062 C 37.984375 99.53125 46.746094 102.167969 55.808594 102.167969 C 62.515625 102.167969 68.980469 100.75 75.019531 97.960938 C 75.539062 97.722656 75.855469 97.191406 75.820312 96.625 C 75.789062 96.054688 75.414062 95.566406 74.871094 95.386719 L 69.917969 93.757812 C 69.105469 93.492188 68.664062 92.617188 68.929688 91.804688 L 69.03125 91.5 C 69.296875 90.691406 70.175781 90.246094 70.984375 90.515625 L 84.242188 94.871094 Z M 108.5 29.589844 L 93.925781 24.796875 C 93.199219 24.558594 92.414062 24.957031 92.175781 25.683594 L 87.382812 40.257812 C 86.640625 42.519531 87.875 44.964844 90.136719 45.707031 L 90.441406 45.808594 C 91.539062 46.167969 92.707031 46.078125 93.738281 45.558594 C 94.769531 45.035156 95.535156 44.148438 95.894531 43.054688 L 96.351562 41.664062 C 98.042969 46.335938 98.898438 51.246094 98.898438 56.300781 C 98.898438 64.816406 96.421875 73.046875 91.734375 80.105469 L 91.644531 80.238281 C 90.328125 82.222656 90.871094 84.910156 92.855469 86.226562 L 93.121094 86.40625 C 93.855469 86.890625 94.683594 87.125 95.503906 87.125 C 96.90625 87.125 98.28125 86.449219 99.109375 85.195312 L 99.203125 85.0625 C 104.867188 76.53125 107.863281 66.585938 107.863281 56.300781 C 107.863281 49.863281 106.710938 43.613281 104.433594 37.683594 L 105.707031 38.101562 C 107.96875 38.84375 110.414062 37.609375 111.15625 35.347656 L 111.257812 35.042969 C 111.996094 32.78125 110.765625 30.335938 108.5 29.589844 Z M 108.621094 34.179688 L 108.519531 34.484375 C 108.253906 35.292969 107.378906 35.734375 106.566406 35.46875 L 102.414062 34.105469 C 101.890625 33.933594 101.316406 34.085938 100.949219 34.496094 C 100.582031 34.902344 100.492188 35.488281 100.71875 35.992188 C 103.617188 42.390625 105.085938 49.222656 105.085938 56.304688 C 105.085938 66.039062 102.253906 75.453125 96.890625 83.53125 L 96.800781 83.664062 C 96.328125 84.378906 95.363281 84.570312 94.652344 84.097656 L 94.386719 83.917969 C 93.675781 83.449219 93.480469 82.484375 93.953125 81.773438 L 94.042969 81.640625 C 99.03125 74.125 101.667969 65.363281 101.667969 56.300781 C 101.667969 49.59375 100.253906 43.128906 97.460938 37.089844 C 97.234375 36.597656 96.742188 36.285156 96.203125 36.285156 C 96.179688 36.285156 96.148438 36.285156 96.121094 36.285156 C 95.554688 36.320312 95.0625 36.695312 94.886719 37.238281 L 93.257812 42.191406 C 92.992188 43 92.113281 43.445312 91.304688 43.175781 L 91 43.078125 C 90.1875 42.8125 89.746094 41.933594 90.011719 41.125 L 94.371094 27.867188 L 107.628906 32.222656 C 108.445312 32.488281 108.886719 33.367188 108.621094 34.179688 Z M 39.757812 24.722656 C 40.203125 24.871094 40.660156 24.941406 41.105469 24.941406 C 42.921875 24.941406 44.613281 23.785156 45.210938 21.972656 L 45.3125 21.664062 C 45.671875 20.570312 45.582031 19.402344 45.0625 18.371094 C 44.542969 17.339844 43.652344 16.574219 42.558594 16.210938 L 41.167969 15.753906 C 45.839844 14.0625 50.75 13.210938 55.804688 13.210938 C 64.320312 13.210938 72.550781 15.6875 79.609375 20.375 L 79.742188 20.460938 C 81.726562 21.777344 84.414062 21.238281 85.730469 19.253906 L 85.910156 18.988281 C 87.226562 17.003906 86.683594 14.316406 84.699219 13 L 84.566406 12.910156 C 76.035156 7.242188 66.089844 4.246094 55.804688 4.246094 C 49.363281 4.246094 43.113281 5.398438 37.183594 7.679688 L 37.605469 6.40625 C 38.347656 4.144531 37.113281 1.699219 34.851562 0.953125 L 34.546875 0.855469 C 33.449219 0.496094 32.28125 0.585938 31.25 1.105469 C 30.21875 1.625 29.453125 2.515625 29.09375 3.609375 L 24.300781 18.183594 C 24.058594 18.910156 24.457031 19.695312 25.183594 19.929688 Z M 31.726562 4.472656 C 31.855469 4.082031 32.128906 3.765625 32.5 3.578125 C 32.867188 3.390625 33.289062 3.359375 33.679688 3.488281 L 33.984375 3.585938 C 34.792969 3.851562 35.238281 4.730469 34.96875 5.542969 L 33.605469 9.695312 C 33.433594 10.214844 33.585938 10.792969 33.996094 11.160156 C 34.40625 11.527344 34.992188 11.617188 35.492188 11.390625 C 41.894531 8.492188 48.726562 7.023438 55.804688 7.023438 C 65.539062 7.023438 74.957031 9.855469 83.03125 15.21875 L 83.167969 15.308594 C 83.878906 15.78125 84.070312 16.742188 83.597656 17.457031 L 83.421875 17.722656 C 82.949219 18.433594 81.988281 18.628906 81.273438 18.15625 L 81.140625 18.066406 C 73.625 13.078125 64.863281 10.441406 55.800781 10.441406 C 49.09375 10.441406 42.628906 11.855469 36.589844 14.648438 C 36.070312 14.882812 35.753906 15.414062 35.789062 15.984375 C 35.820312 16.550781 36.195312 17.042969 36.738281 17.21875 L 41.691406 18.847656 C 42.082031 18.976562 42.402344 19.253906 42.589844 19.621094 C 42.773438 19.992188 42.808594 20.410156 42.679688 20.800781 L 42.578125 21.105469 C 42.3125 21.917969 41.433594 22.359375 40.625 22.09375 L 27.367188 17.734375 Z M 57.25 79.914062 C 58.011719 79.914062 58.632812 79.289062 58.632812 78.527344 L 58.632812 56.703125 C 59.589844 56.996094 60.582031 57.144531 61.597656 57.144531 C 61.695312 57.144531 61.792969 57.140625 61.894531 57.140625 C 70.082031 56.902344 72.28125 50.789062 74.222656 45.390625 C 75.71875 41.234375 77.125 37.308594 80.875 35.449219 C 81.332031 35.21875 81.628906 34.761719 81.644531 34.246094 C 81.660156 33.738281 81.390625 33.257812 80.945312 33.003906 C 74.730469 29.449219 65.328125 29.6875 58.59375 33.574219 C 53.648438 36.425781 50.914062 40.78125 50.890625 45.835938 C 50.878906 48.957031 52.132812 51.980469 54.339844 54.132812 C 54.816406 54.597656 55.328125 55.015625 55.863281 55.378906 C 55.863281 55.417969 55.863281 55.457031 55.863281 55.496094 L 55.863281 65.90625 C 55.339844 65.152344 54.765625 64.4375 54.144531 63.769531 C 54.167969 63.695312 54.195312 63.621094 54.21875 63.546875 C 54.921875 61.300781 54.699219 58.84375 53.605469 56.800781 C 51.835938 53.5 48.609375 51.640625 44.527344 51.5625 C 38.785156 51.449219 32.375 54.898438 29.617188 59.582031 C 29.359375 60.023438 29.363281 60.570312 29.628906 61.007812 C 29.898438 61.445312 30.382812 61.699219 30.894531 61.667969 C 33.496094 61.515625 35.246094 63.246094 37.269531 65.25 C 39.316406 67.273438 41.710938 69.648438 45.296875 69.648438 C 46.753906 69.648438 48.40625 69.253906 50.3125 68.28125 C 51.246094 67.804688 52.0625 67.148438 52.722656 66.34375 C 54.167969 68.082031 55.253906 70.132812 55.867188 72.390625 L 55.867188 78.527344 C 55.863281 79.292969 56.484375 79.914062 57.25 79.914062 Z M 53.664062 45.847656 C 53.683594 41.820312 55.925781 38.316406 59.980469 35.976562 C 63.082031 34.183594 66.914062 33.277344 70.625 33.277344 C 73.015625 33.277344 75.355469 33.652344 77.417969 34.414062 C 74.292969 37 72.886719 40.921875 71.617188 44.453125 C 69.660156 49.890625 68.117188 54.1875 61.8125 54.367188 C 60.742188 54.402344 59.695312 54.195312 58.71875 53.785156 C 59.160156 49.332031 61.292969 45.390625 64.300781 43.671875 C 64.96875 43.296875 65.199219 42.445312 64.816406 41.78125 C 64.4375 41.117188 63.589844 40.886719 62.925781 41.265625 C 59.453125 43.25 56.976562 47.285156 56.15625 52.03125 C 54.5625 50.410156 53.652344 48.167969 53.664062 45.847656 Z M 49.054688 65.8125 C 44.25 68.257812 42.027344 66.0625 39.21875 63.28125 C 37.582031 61.660156 35.777344 59.878906 33.359375 59.1875 C 36.03125 56.285156 40.507812 54.257812 44.46875 54.335938 C 46.621094 54.378906 49.527344 55.066406 51.160156 58.113281 C 51.738281 59.1875 51.957031 60.433594 51.804688 61.65625 C 49.445312 59.851562 46.644531 58.59375 43.609375 58.074219 C 42.855469 57.945312 42.136719 58.449219 42.007812 59.203125 C 41.878906 59.960938 42.386719 60.675781 43.140625 60.804688 C 46.003906 61.296875 48.613281 62.550781 50.746094 64.359375 C 50.292969 64.96875 49.722656 65.472656 49.054688 65.8125 Z M 49.054688 65.8125 " fill-opacity="1" fill-rule="nonzero"/></g></svg>