<svg xmlns="http://www.w3.org/2000/svg" xmlns:xlink="http://www.w3.org/1999/xlink" width="1366" zoomAndPan="magnify" viewBox="0 0 1024.5 576" height="768" preserveAspectRatio="xMidYMid meet" version="1.0"><defs><clipPath id="86c7b730ff"><path d="M 384.308594 509.835938 L 392 509.835938 L 392 518.082031 L 384.308594 518.082031 Z M 384.308594 509.835938 " clip-rule="nonzero"/></clipPath><clipPath id="64443d4934"><path d="M 385 509.835938 L 392.554688 509.835938 L 392.554688 518.082031 L 385 518.082031 Z M 385 509.835938 " clip-rule="nonzero"/></clipPath><clipPath id="c6cc451b87"><path d="M 196.539062 0.140625 L 802.242188 0.140625 L 802.242188 553.371094 L 196.539062 553.371094 Z M 196.539062 0.140625 " clip-rule="nonzero"/></clipPath></defs><g clip-path="url(#86c7b730ff)"><path fill="#ffffff" d="M 390.003906 512.703125 C 390.886719 512.703125 391.324219 513.332031 391.324219 514.058594 C 391.324219 514.765625 390.886719 515.402344 390.003906 515.402344 C 389.488281 515.402344 389.121094 515.1875 388.90625 514.859375 L 388.90625 515.226562 C 389.164062 515.472656 389.53125 515.628906 390.003906 515.628906 C 390.441406 515.628906 390.800781 515.492188 391.054688 515.269531 L 391.441406 515.640625 L 391.589844 515.488281 L 391.199219 515.109375 C 391.4375 514.816406 391.558594 514.429688 391.558594 514.058594 C 391.5625 513.214844 391.042969 512.476562 390.003906 512.476562 C 388.976562 512.476562 388.457031 513.210938 388.449219 514.03125 C 388.449219 514.039062 388.449219 514.050781 388.449219 514.058594 L 388.449219 518.058594 C 386.277344 518.015625 384.527344 516.238281 384.527344 514.058594 C 384.527344 512.226562 385.765625 510.679688 387.449219 510.207031 L 387.449219 509.976562 C 385.644531 510.457031 384.308594 512.105469 384.308594 514.058594 C 384.308594 516.386719 386.203125 518.28125 388.53125 518.28125 C 388.578125 518.28125 388.628906 518.28125 388.675781 518.277344 L 388.675781 514.058594 L 388.679688 514.058594 C 388.679688 514.050781 388.679688 514.039062 388.679688 514.03125 C 388.679688 513.277344 389.222656 512.703125 390.003906 512.703125 Z M 390.003906 512.703125 " fill-opacity="1" fill-rule="nonzero"/></g><g clip-path="url(#64443d4934)"><path fill="#ffffff" d="M 388.53125 509.835938 C 388.234375 509.835938 387.949219 509.867188 387.667969 509.925781 L 387.667969 513.980469 L 385.707031 513.980469 L 385.707031 512.515625 L 385.46875 512.515625 L 385.46875 515.597656 L 385.707031 515.597656 L 385.707031 514.199219 L 387.667969 514.199219 L 387.667969 515.597656 L 387.90625 515.597656 L 387.90625 510.105469 C 388.109375 510.074219 388.316406 510.054688 388.53125 510.054688 C 390.738281 510.054688 392.53125 511.851562 392.53125 514.058594 C 392.53125 516.136719 390.9375 517.851562 388.90625 518.042969 L 388.90625 518.261719 C 391.058594 518.070312 392.75 516.257812 392.75 514.058594 C 392.753906 511.730469 390.859375 509.835938 388.53125 509.835938 Z M 388.53125 509.835938 " fill-opacity="1" fill-rule="nonzero"/></g><path fill="#ffffff" d="M 325.390625 477.554688 L 325.390625 442.496094 L 337.097656 442.496094 C 341.726562 442.496094 345.515625 438.582031 345.515625 433.796875 L 345.515625 404.589844 C 345.515625 399.839844 341.726562 395.925781 337.097656 395.925781 L 227.617188 395.925781 C 222.988281 395.925781 219.195312 399.839844 219.195312 404.589844 L 219.195312 433.796875 C 219.195312 438.578125 222.988281 442.496094 227.617188 442.496094 L 239.289062 442.496094 L 239.289062 544.132812 L 325.390625 544.132812 Z M 325.390625 477.554688 " fill-opacity="1" fill-rule="evenodd"/><path fill="#b9b7bd" d="M 410.152344 477.554688 L 325.390625 477.554688 L 325.390625 544.132812 L 621.199219 544.132812 C 626.800781 544.132812 631.394531 539.414062 631.394531 533.625 L 631.394531 488.0625 C 631.394531 482.273438 626.800781 477.554688 621.199219 477.554688 Z M 410.152344 477.554688 " fill-opacity="1" fill-rule="evenodd"/><path fill="#ffffff" d="M 710.621094 489.0625 L 769.65625 489.0625 L 769.65625 544.132812 L 710.621094 544.132812 Z M 710.621094 489.0625 " fill-opacity="1" fill-rule="evenodd"/><path fill="#c68104" d="M 720.917969 379.730469 C 720.917969 390.671875 729.539062 399.539062 740.136719 399.539062 C 750.738281 399.539062 759.324219 390.671875 759.324219 379.730469 C 759.324219 368.757812 750.738281 359.894531 740.136719 359.894531 C 729.539062 359.894531 720.917969 368.757812 720.917969 379.730469 Z M 720.917969 379.730469 " fill-opacity="1" fill-rule="evenodd"/><path fill="#c68104" d="M 298.65625 228.882812 L 266.054688 228.882812 C 255.554688 228.882812 246.96875 237.746094 246.96875 248.585938 C 246.96875 259.425781 255.554688 268.292969 266.054688 268.292969 L 298.65625 268.292969 C 309.15625 268.292969 317.742188 259.425781 317.742188 248.585938 C 317.742188 237.746094 309.15625 228.882812 298.65625 228.882812 Z M 298.65625 228.882812 " fill-opacity="1" fill-rule="evenodd"/><path fill="#c68104" d="M 718.871094 189.4375 C 720.113281 201.082031 728.128906 211.417969 740.136719 211.417969 C 751.8125 211.417969 760.097656 201.449219 761.402344 189.4375 L 779.785156 19.382812 C 780.390625 13.695312 775.222656 8.980469 769.6875 8.980469 L 710.585938 8.980469 C 705.019531 8.980469 699.855469 13.695312 700.492188 19.382812 L 703.109375 43.574219 L 709.011719 98.40625 Z M 718.871094 189.4375 " fill-opacity="1" fill-rule="evenodd"/><path fill="#ffffff" d="M 450.503906 95.996094 C 450.503906 88.136719 452.28125 80.675781 455.46875 74.082031 L 272.328125 96.632812 C 266.054688 97.4375 261.527344 103.359375 262.265625 109.847656 L 265.886719 141.0625 C 266.625 147.550781 272.359375 152.234375 278.632812 151.433594 L 282.355469 150.996094 L 462.613281 128.785156 C 455.066406 120.085938 450.503906 108.578125 450.503906 95.996094 Z M 450.503906 95.996094 " fill-opacity="1" fill-rule="evenodd"/><path fill="#ede7dc" d="M 455.46875 74.082031 C 452.28125 80.675781 450.503906 88.136719 450.503906 95.996094 C 450.503906 108.578125 455.066406 120.085938 462.613281 128.785156 C 471.332031 138.886719 484.042969 145.277344 498.199219 145.277344 C 516.414062 145.277344 532.246094 134.703125 540.292969 119.214844 C 543.882812 112.289062 545.894531 104.394531 545.894531 95.996094 C 545.894531 83.917969 541.703125 72.878906 534.726562 64.316406 C 526.007812 53.542969 512.859375 46.71875 498.199219 46.71875 C 479.484375 46.71875 463.28125 57.859375 455.46875 74.082031 Z M 455.46875 74.082031 " fill-opacity="1" fill-rule="evenodd"/><path fill="#ffffff" d="M 521.042969 200.914062 L 521.042969 139.253906 C 514.265625 143.101562 506.484375 145.277344 498.199219 145.277344 C 489.949219 145.277344 482.167969 143.101562 475.390625 139.253906 L 475.390625 200.914062 Z M 521.042969 200.914062 " fill-opacity="1" fill-rule="evenodd"/><path fill="#ffffff" d="M 534.726562 64.316406 C 541.703125 72.878906 545.894531 83.917969 545.894531 95.996094 C 545.894531 104.394531 543.882812 112.289062 540.292969 119.214844 L 709.011719 98.40625 L 703.109375 43.574219 Z M 534.726562 64.316406 " fill-opacity="1" fill-rule="evenodd"/><g clip-path="url(#c6cc451b87)"><path fill="#000000" d="M 793.570312 535.257812 L 778.53125 535.257812 L 778.53125 489.0625 C 778.53125 484.160156 774.558594 480.1875 769.65625 480.1875 L 749.011719 480.1875 L 749.011719 406.933594 C 760.148438 403.128906 768.199219 392.375 768.199219 379.730469 C 768.199219 367.074219 760.148438 356.308594 749.011719 352.5 L 749.011719 218.851562 C 760.292969 215.09375 768.714844 204.269531 770.226562 190.390625 L 788.609375 20.320312 C 789.144531 15.300781 787.523438 10.40625 784.042969 6.542969 C 780.363281 2.449219 775.132812 0.105469 769.6875 0.105469 L 710.585938 0.105469 C 705.105469 0.105469 699.851562 2.464844 696.171875 6.578125 C 692.707031 10.453125 691.109375 15.351562 691.667969 20.335938 L 693.34375 35.832031 L 538.226562 54.941406 C 527.980469 44.386719 513.820312 37.84375 498.199219 37.84375 C 477.742188 37.84375 459.785156 49.066406 449.847656 65.835938 L 271.199219 87.828125 C 260.128906 89.246094 252.164062 99.574219 253.449219 110.871094 L 257.070312 142.0625 C 257.707031 147.664062 260.480469 152.652344 264.875 156.097656 C 267.449219 158.117188 270.394531 159.441406 273.480469 160.035156 L 273.480469 220.007812 L 266.726562 220.007812 C 250.9375 220.007812 238.09375 232.828125 238.09375 248.585938 C 238.09375 264.347656 250.9375 277.167969 266.726562 277.167969 L 273.480469 277.167969 L 273.480469 387.050781 L 227.617188 387.050781 C 218.082031 387.050781 210.324219 394.917969 210.324219 404.589844 L 210.324219 433.796875 C 210.324219 443.484375 218.082031 451.367188 227.617188 451.367188 L 230.414062 451.367188 L 230.414062 535.257812 L 205.476562 535.257812 C 200.578125 535.257812 196.605469 539.230469 196.605469 544.132812 C 196.605469 549.035156 200.578125 553.007812 205.476562 553.007812 L 793.570312 553.007812 C 798.472656 553.007812 802.445312 549.035156 802.445312 544.132812 C 802.445312 539.230469 798.472656 535.257812 793.570312 535.257812 Z M 710.621094 480.1875 C 705.71875 480.1875 701.746094 484.160156 701.746094 489.0625 L 701.746094 535.257812 L 640.1875 535.257812 C 640.234375 534.71875 640.269531 534.175781 640.269531 533.625 L 640.269531 488.0625 C 640.269531 477.375 631.714844 468.679688 621.199219 468.679688 L 593.800781 468.679688 L 550.796875 210.675781 C 550.78125 210.589844 550.761719 210.515625 550.746094 210.429688 C 550.726562 210.328125 550.707031 210.222656 550.683594 210.121094 C 548.671875 199.285156 540.898438 192.039062 531.171875 192.039062 L 529.917969 192.039062 L 529.917969 144.125 C 536.207031 139.730469 541.585938 134.058594 545.722656 127.488281 L 701.175781 108.3125 L 710.046875 190.378906 C 711.527344 204.269531 719.953125 215.101562 731.265625 218.859375 L 731.265625 352.496094 C 720.109375 356.300781 712.042969 367.070312 712.042969 379.730469 C 712.042969 392.378906 720.109375 403.136719 731.265625 406.9375 L 731.265625 480.191406 L 710.621094 480.191406 Z M 498.199219 154.152344 C 503.019531 154.152344 507.699219 153.527344 512.167969 152.355469 L 512.167969 192.039062 L 484.265625 192.039062 L 484.265625 152.363281 C 488.726562 153.527344 493.390625 154.152344 498.199219 154.152344 Z M 529.957031 209.789062 L 498.214844 232.191406 L 466.476562 209.789062 Z M 566.957031 415.601562 L 574.78125 462.539062 L 519.554688 437.28125 Z M 498.214844 427.523438 L 444.800781 403.09375 L 498.214844 379.910156 L 551.632812 403.09375 Z M 520.503906 370.234375 L 556.773438 354.492188 L 562.429688 388.429688 Z M 498.214844 360.558594 L 454.257812 341.480469 L 498.214844 319.042969 L 542.175781 341.480469 Z M 517.738281 309.082031 L 546.734375 294.28125 L 552.128906 326.632812 Z M 498.214844 299.117188 L 461.050781 280.148438 L 498.214844 253.917969 L 535.378906 280.148438 Z M 513.605469 243.054688 L 535.609375 227.523438 L 541.476562 262.726562 Z M 460.824219 227.523438 L 482.828125 243.054688 L 454.957031 262.726562 Z M 449.695312 294.28125 L 478.691406 309.082031 L 444.304688 326.632812 Z M 439.660156 354.492188 L 475.925781 370.234375 L 434.003906 388.429688 Z M 429.476562 415.601562 L 476.878906 437.28125 L 421.652344 462.539062 Z M 498.214844 447.039062 L 545.539062 468.679688 L 450.894531 468.679688 Z M 740.136719 390.664062 C 734.433594 390.664062 729.792969 385.757812 729.792969 379.730469 C 729.792969 373.683594 734.433594 368.769531 740.136719 368.769531 C 745.824219 368.769531 750.449219 373.6875 750.449219 379.730469 C 750.449219 385.757812 745.824219 390.664062 740.136719 390.664062 Z M 710.585938 17.855469 L 769.6875 17.855469 C 770.226562 17.855469 770.796875 18.277344 770.949219 18.539062 L 752.582031 188.476562 C 751.84375 195.25 747.632812 202.542969 740.140625 202.542969 C 732.617188 202.542969 728.417969 195.261719 727.695312 188.484375 L 711.917969 42.507812 C 711.917969 42.5 711.917969 42.492188 711.914062 42.488281 C 711.914062 42.484375 711.914062 42.480469 711.914062 42.476562 L 709.324219 18.507812 C 709.488281 18.25 710.046875 17.855469 710.585938 17.855469 Z M 695.25 53.480469 L 699.269531 90.664062 L 553.40625 108.65625 C 554.289062 104.578125 554.769531 100.34375 554.769531 95.996094 C 554.769531 87.226562 552.859375 78.90625 549.460938 71.441406 Z M 498.199219 55.59375 C 519.605469 55.59375 537.023438 73.71875 537.023438 95.996094 C 537.023438 118.277344 519.605469 136.402344 498.199219 136.402344 C 491.578125 136.402344 485.34375 134.664062 479.882812 131.609375 C 479.757812 131.539062 479.632812 131.464844 479.507812 131.398438 C 467.519531 124.511719 459.378906 111.226562 459.378906 95.996094 C 459.378906 73.71875 476.792969 55.59375 498.199219 55.59375 Z M 273.410156 105.441406 L 442.726562 84.59375 C 442.011719 88.28125 441.628906 92.09375 441.628906 95.996094 C 441.628906 105.222656 443.738281 113.949219 447.472656 121.707031 L 277.507812 142.628906 C 276.765625 142.722656 276.183594 142.414062 275.828125 142.132812 C 275.464844 141.847656 274.835938 141.199219 274.703125 140.039062 L 271.082031 108.847656 C 270.894531 107.183594 271.980469 105.625 273.410156 105.441406 Z M 255.84375 248.585938 C 255.84375 242.613281 260.726562 237.757812 266.726562 237.757812 L 297.988281 237.757812 C 303.988281 237.757812 308.867188 242.613281 308.867188 248.585938 C 308.867188 254.558594 303.988281 259.417969 297.988281 259.417969 L 266.726562 259.417969 C 260.726562 259.417969 255.84375 254.558594 255.84375 248.585938 Z M 291.230469 277.167969 L 297.988281 277.167969 C 313.773438 277.167969 326.617188 264.347656 326.617188 248.585938 C 326.617188 232.828125 313.773438 220.007812 297.988281 220.007812 L 291.230469 220.007812 L 291.230469 158.824219 L 459.273438 138.136719 C 461.523438 140.332031 463.941406 142.355469 466.515625 144.152344 L 466.515625 192.039062 L 465.226562 192.039062 C 455.515625 192.039062 447.75 199.292969 445.75 210.125 C 445.726562 210.222656 445.707031 210.324219 445.6875 210.421875 C 445.675781 210.503906 445.652344 210.582031 445.640625 210.660156 L 402.632812 468.679688 L 334.265625 468.679688 L 334.265625 451.367188 L 337.097656 451.367188 C 346.632812 451.367188 354.390625 443.484375 354.390625 433.796875 L 354.390625 404.589844 C 354.390625 394.917969 346.632812 387.050781 337.097656 387.050781 L 291.230469 387.050781 Z M 239.289062 433.621094 L 228.070312 433.621094 L 228.070312 404.800781 L 336.640625 404.800781 L 336.640625 433.621094 L 325.390625 433.621094 C 320.488281 433.621094 316.515625 437.59375 316.515625 442.496094 L 316.515625 535.257812 L 248.164062 535.257812 L 248.164062 442.496094 C 248.164062 437.59375 244.191406 433.621094 239.289062 433.621094 Z M 334.265625 535.257812 L 334.265625 486.429688 L 621.199219 486.429688 C 621.824219 486.429688 622.519531 487.097656 622.519531 488.0625 L 622.519531 533.625 C 622.519531 534.589844 621.824219 535.257812 621.199219 535.257812 Z M 719.496094 535.257812 L 719.496094 497.9375 L 760.78125 497.9375 L 760.78125 535.257812 Z M 719.496094 535.257812 " fill-opacity="1" fill-rule="nonzero"/></g><path fill="#000000" d="M 274.070312 467.960938 L 290.609375 467.960938 C 295.507812 467.960938 299.484375 463.988281 299.484375 459.085938 C 299.484375 454.1875 295.507812 450.214844 290.609375 450.214844 L 274.070312 450.214844 C 269.171875 450.214844 265.195312 454.1875 265.195312 459.085938 C 265.195312 463.988281 269.171875 467.960938 274.070312 467.960938 Z M 274.070312 467.960938 " fill-opacity="1" fill-rule="nonzero"/><path fill="#000000" d="M 274.070312 503.960938 L 290.609375 503.960938 C 295.507812 503.960938 299.484375 499.988281 299.484375 495.085938 C 299.484375 490.183594 295.507812 486.210938 290.609375 486.210938 L 274.070312 486.210938 C 269.171875 486.210938 265.195312 490.183594 265.195312 495.085938 C 265.195312 499.988281 269.171875 503.960938 274.070312 503.960938 Z M 274.070312 503.960938 " fill-opacity="1" fill-rule="nonzero"/><path fill="#000000" d="M 498.199219 104.871094 L 498.566406 104.871094 C 503.46875 104.871094 507.441406 100.898438 507.441406 95.996094 C 507.441406 91.09375 503.46875 87.121094 498.566406 87.121094 L 498.199219 87.121094 C 493.296875 87.121094 489.324219 91.09375 489.324219 95.996094 C 489.324219 100.898438 493.296875 104.871094 498.199219 104.871094 Z M 498.199219 104.871094 " fill-opacity="1" fill-rule="nonzero"/><path fill="#000000" d="M 739.769531 64.492188 L 740.136719 64.492188 C 745.039062 64.492188 749.011719 60.519531 749.011719 55.617188 C 749.011719 50.714844 745.039062 46.742188 740.136719 46.742188 L 739.769531 46.742188 C 734.867188 46.742188 730.894531 50.714844 730.894531 55.617188 C 730.894531 60.519531 734.867188 64.492188 739.769531 64.492188 Z M 739.769531 64.492188 " fill-opacity="1" fill-rule="nonzero"/><path fill="#000000" d="M 740.472656 81.535156 L 740.136719 81.535156 C 735.238281 81.535156 731.265625 85.507812 731.265625 90.410156 C 731.265625 95.3125 735.238281 99.285156 740.136719 99.285156 L 740.472656 99.285156 C 745.375 99.285156 749.347656 95.3125 749.347656 90.410156 C 749.347656 85.507812 745.375 81.535156 740.472656 81.535156 Z M 740.472656 81.535156 " fill-opacity="1" fill-rule="nonzero"/></svg>