<svg xmlns="http://www.w3.org/2000/svg" xmlns:xlink="http://www.w3.org/1999/xlink" width="150" zoomAndPan="magnify" viewBox="0 0 112.5 112.499997" height="150" preserveAspectRatio="xMidYMid meet" version="1.0"><defs><clipPath id="ca957ad5bc"><path d="M 51.722656 67.265625 L 53.214844 67.265625 L 53.214844 68.761719 L 51.722656 68.761719 Z M 51.722656 67.265625 " clip-rule="nonzero"/></clipPath><clipPath id="f3bd8916fb"><path d="M 3.921875 37.542969 L 108.09375 37.542969 L 108.09375 111.914062 L 3.921875 111.914062 Z M 3.921875 37.542969 " clip-rule="nonzero"/></clipPath></defs><g clip-path="url(#ca957ad5bc)"><path fill="#ffffff" d="M 52.894531 67.855469 C 53.074219 67.855469 53.167969 67.984375 53.167969 68.136719 C 53.167969 68.28125 53.074219 68.414062 52.894531 68.414062 C 52.789062 68.414062 52.710938 68.367188 52.667969 68.300781 L 52.667969 68.375 C 52.722656 68.425781 52.796875 68.457031 52.894531 68.457031 C 52.984375 68.457031 53.058594 68.429688 53.109375 68.386719 L 53.191406 68.460938 L 53.222656 68.429688 L 53.140625 68.351562 C 53.1875 68.292969 53.214844 68.210938 53.214844 68.136719 C 53.214844 67.960938 53.109375 67.808594 52.894531 67.808594 C 52.683594 67.808594 52.574219 67.960938 52.574219 68.128906 C 52.574219 68.132812 52.574219 68.132812 52.574219 68.136719 L 52.574219 68.960938 C 52.128906 68.949219 51.765625 68.585938 51.765625 68.136719 C 51.765625 67.757812 52.023438 67.441406 52.367188 67.34375 L 52.367188 67.296875 C 51.996094 67.394531 51.722656 67.734375 51.722656 68.136719 C 51.722656 68.613281 52.113281 69.003906 52.589844 69.003906 C 52.601562 69.003906 52.613281 69.003906 52.621094 69.003906 L 52.621094 68.136719 C 52.621094 68.132812 52.621094 68.132812 52.621094 68.128906 C 52.621094 67.976562 52.734375 67.855469 52.894531 67.855469 Z M 52.894531 67.855469 " fill-opacity="1" fill-rule="nonzero"/><path fill="#ffffff" d="M 52.589844 67.265625 C 52.53125 67.265625 52.472656 67.273438 52.414062 67.285156 L 52.414062 68.121094 L 52.011719 68.121094 L 52.011719 67.820312 L 51.960938 67.820312 L 51.960938 68.453125 L 52.011719 68.453125 L 52.011719 68.164062 L 52.414062 68.164062 L 52.414062 68.453125 L 52.460938 68.453125 L 52.460938 67.324219 C 52.503906 67.316406 52.546875 67.3125 52.589844 67.3125 C 53.046875 67.3125 53.414062 67.683594 53.414062 68.136719 C 53.414062 68.5625 53.085938 68.917969 52.667969 68.957031 L 52.667969 69 C 53.113281 68.960938 53.460938 68.589844 53.460938 68.136719 C 53.460938 67.65625 53.070312 67.265625 52.589844 67.265625 Z M 52.589844 67.265625 " fill-opacity="1" fill-rule="nonzero"/></g><path fill="#666666" d="M 61.433594 0.929688 C 58.929688 0.285156 56.34375 0.09375 53.75 0.367188 C 47.964844 0.96875 42.761719 3.789062 39.101562 8.304688 C 35.4375 12.820312 33.753906 18.492188 34.355469 24.277344 C 34.960938 30.058594 37.78125 35.261719 42.292969 38.921875 C 46.210938 42.097656 50.996094 43.789062 55.964844 43.789062 C 56.730469 43.789062 57.496094 43.746094 58.265625 43.667969 C 64.050781 43.066406 69.25 40.246094 72.914062 35.730469 C 76.578125 31.210938 78.261719 25.542969 77.660156 19.757812 C 77.542969 18.632812 77.335938 17.507812 77.046875 16.421875 C 76.832031 15.605469 75.996094 15.121094 75.179688 15.335938 C 74.367188 15.550781 73.878906 16.386719 74.097656 17.203125 C 74.34375 18.136719 74.519531 19.105469 74.621094 20.074219 C 75.691406 30.339844 68.214844 39.5625 57.949219 40.632812 C 52.976562 41.148438 48.101562 39.699219 44.21875 36.550781 C 40.335938 33.402344 37.910156 28.929688 37.394531 23.960938 C 36.875 18.988281 38.324219 14.109375 41.472656 10.226562 C 44.621094 6.34375 49.09375 3.921875 54.066406 3.402344 C 56.296875 3.167969 58.519531 3.332031 60.671875 3.886719 C 61.488281 4.097656 62.320312 3.605469 62.53125 2.789062 C 62.742188 1.972656 62.25 1.140625 61.433594 0.929688 " fill-opacity="1" fill-rule="nonzero"/><path fill="#666666" d="M 48.421875 13.769531 C 47.878906 13.125 46.917969 13.042969 46.273438 13.585938 C 45.628906 14.128906 45.542969 15.09375 46.089844 15.738281 L 55.550781 26.972656 C 55.839844 27.320312 56.269531 27.519531 56.71875 27.519531 C 56.734375 27.519531 56.75 27.515625 56.765625 27.515625 C 57.230469 27.503906 57.664062 27.277344 57.945312 26.902344 L 72.839844 6.847656 C 73.34375 6.171875 73.199219 5.214844 72.523438 4.714844 C 71.847656 4.210938 70.890625 4.351562 70.386719 5.027344 L 56.644531 23.53125 L 48.421875 13.769531 " fill-opacity="1" fill-rule="nonzero"/><g clip-path="url(#f3bd8916fb)"><path fill="#666666" d="M 34.847656 48.433594 L 14.746094 68.535156 C 14.492188 68.789062 14.082031 68.789062 13.828125 68.535156 L 7.082031 61.789062 C 6.828125 61.539062 6.828125 61.125 7.082031 60.871094 L 27.183594 40.773438 C 27.4375 40.519531 27.847656 40.519531 28.101562 40.773438 L 34.847656 47.515625 C 35.097656 47.769531 35.097656 48.183594 34.847656 48.433594 Z M 38.910156 54 C 39.882812 54.976562 41.175781 55.511719 42.554688 55.511719 C 43.929688 55.511719 45.222656 54.976562 46.195312 54 C 47.875 52.324219 50.605469 52.324219 52.28125 54 L 68.082031 69.800781 C 64.273438 72.59375 58.875 72.273438 55.433594 68.832031 L 51.851562 65.25 C 51.269531 64.667969 50.328125 64.667969 49.746094 65.25 C 49.429688 65.566406 49.289062 65.992188 49.316406 66.40625 L 32.378906 83.503906 L 18.183594 69.304688 L 36.199219 51.289062 Z M 65.03125 54.769531 C 66.136719 53.664062 67.761719 53.246094 69.269531 53.679688 C 71.238281 54.246094 73.378906 53.714844 74.855469 52.292969 L 75.855469 51.328125 L 93.851562 69.324219 L 81.863281 81.3125 L 77.789062 77.238281 C 75.625 75.070312 72.097656 75.070312 69.933594 77.238281 C 68.882812 78.289062 68.304688 79.683594 68.304688 81.167969 C 68.304688 81.234375 68.308594 81.304688 68.308594 81.371094 C 68.242188 81.367188 68.175781 81.367188 68.105469 81.367188 C 66.621094 81.367188 65.226562 81.945312 64.179688 82.992188 C 63.042969 84.128906 62.503906 85.636719 62.558594 87.128906 C 61.066406 87.074219 59.558594 87.613281 58.421875 88.75 C 57.285156 89.882812 56.746094 91.390625 56.800781 92.882812 C 56.734375 92.878906 56.664062 92.875 56.597656 92.875 C 55.113281 92.875 53.71875 93.453125 52.667969 94.503906 C 51.378906 95.792969 50.855469 97.5625 51.101562 99.242188 L 47.53125 102.8125 C 46.53125 103.453125 45.1875 103.335938 44.3125 102.464844 C 43.824219 101.976562 43.554688 101.328125 43.554688 100.636719 C 43.554688 99.949219 43.824219 99.300781 44.3125 98.8125 L 44.269531 98.769531 L 51.90625 91.132812 L 49.804688 89.027344 L 41.777344 97.054688 C 40.78125 97.695312 39.433594 97.582031 38.558594 96.707031 C 37.550781 95.703125 37.550781 94.0625 38.558594 93.054688 L 38.515625 93.015625 L 46.152344 85.375 L 44.050781 83.273438 L 36.023438 91.300781 C 35.023438 91.941406 33.675781 91.828125 32.804688 90.953125 C 32.316406 90.464844 32.046875 89.816406 32.046875 89.128906 C 32.046875 88.4375 32.316406 87.789062 32.808594 87.296875 L 51.164062 68.765625 L 53.328125 70.933594 C 55.808594 73.414062 59.066406 74.652344 62.324219 74.652344 C 65.582031 74.652344 68.839844 73.414062 71.320312 70.933594 L 72.371094 69.882812 L 61.164062 58.675781 Z M 77.167969 47.515625 L 83.914062 40.773438 C 84.039062 40.644531 84.207031 40.582031 84.371094 40.582031 C 84.539062 40.582031 84.707031 40.644531 84.832031 40.773438 L 104.929688 60.871094 C 105.183594 61.125 105.183594 61.539062 104.929688 61.789062 L 98.1875 68.535156 C 97.933594 68.789062 97.523438 68.789062 97.269531 68.535156 L 77.167969 48.433594 C 76.914062 48.183594 76.914062 47.769531 77.167969 47.515625 Z M 82.003906 89.308594 C 80.996094 90.316406 79.359375 90.316406 78.351562 89.308594 L 72.035156 82.992188 C 71.546875 82.503906 71.277344 81.859375 71.277344 81.167969 C 71.277344 80.476562 71.546875 79.828125 72.035156 79.339844 C 72.539062 78.839844 73.199219 78.585938 73.863281 78.585938 C 74.523438 78.585938 75.183594 78.839844 75.6875 79.339844 L 82.003906 85.65625 C 82.488281 86.144531 82.757812 86.792969 82.757812 87.484375 C 82.757812 88.171875 82.488281 88.820312 82.003906 89.308594 Z M 76.246094 95.0625 C 75.757812 95.550781 75.113281 95.820312 74.421875 95.820312 C 73.730469 95.820312 73.082031 95.550781 72.59375 95.0625 L 66.28125 88.75 C 65.273438 87.742188 65.273438 86.101562 66.28125 85.097656 C 66.769531 84.609375 67.417969 84.339844 68.105469 84.339844 C 68.796875 84.339844 69.445312 84.609375 69.933594 85.097656 L 76.246094 91.410156 C 76.734375 91.898438 77.003906 92.546875 77.003906 93.238281 C 77.003906 93.925781 76.734375 94.574219 76.246094 95.0625 Z M 70.492188 100.820312 C 69.484375 101.824219 67.847656 101.824219 66.839844 100.820312 L 60.523438 94.503906 C 59.519531 93.496094 59.519531 91.859375 60.523438 90.851562 C 61.027344 90.347656 61.691406 90.097656 62.351562 90.097656 C 63.011719 90.097656 63.671875 90.347656 64.179688 90.851562 L 70.492188 97.167969 C 71.5 98.175781 71.5 99.8125 70.492188 100.820312 Z M 64.738281 106.574219 C 64.25 107.0625 63.601562 107.332031 62.910156 107.332031 C 62.222656 107.332031 61.574219 107.0625 61.085938 106.574219 L 54.769531 100.257812 C 54.28125 99.769531 54.015625 99.121094 54.015625 98.433594 C 54.015625 97.742188 54.28125 97.09375 54.769531 96.605469 C 55.257812 96.121094 55.90625 95.851562 56.597656 95.851562 C 57.285156 95.851562 57.933594 96.121094 58.421875 96.605469 L 64.738281 102.921875 C 65.742188 103.929688 65.742188 105.566406 64.738281 106.574219 Z M 53.789062 108.148438 C 52.777344 109.160156 51.140625 109.21875 50.136719 108.285156 C 49.617188 107.800781 49.324219 107.144531 49.3125 106.4375 C 49.300781 105.734375 49.566406 105.070312 50.0625 104.570312 C 50.066406 104.570312 50.066406 104.570312 50.070312 104.566406 L 50.023438 104.523438 L 52.433594 102.113281 C 52.507812 102.199219 52.585938 102.28125 52.667969 102.363281 L 56.121094 105.816406 Z M 25.078125 38.667969 L 4.980469 58.769531 C 3.566406 60.183594 3.566406 62.480469 4.980469 63.894531 L 11.722656 70.636719 C 12.429688 71.34375 13.359375 71.699219 14.285156 71.699219 C 14.863281 71.699219 15.4375 71.5625 15.960938 71.289062 L 30.304688 85.636719 C 29.507812 86.621094 29.074219 87.839844 29.074219 89.128906 C 29.074219 90.609375 29.652344 92.007812 30.699219 93.054688 C 31.835938 94.191406 33.347656 94.730469 34.835938 94.679688 C 34.78125 96.167969 35.320312 97.675781 36.457031 98.8125 C 37.589844 99.945312 39.097656 100.488281 40.585938 100.433594 C 40.582031 100.5 40.582031 100.570312 40.582031 100.636719 C 40.582031 102.121094 41.160156 103.519531 42.210938 104.566406 C 43.34375 105.703125 44.855469 106.242188 46.339844 106.1875 C 46.335938 106.289062 46.335938 106.390625 46.339844 106.492188 C 46.367188 108.011719 46.996094 109.421875 48.109375 110.460938 C 49.152344 111.429688 50.5 111.914062 51.859375 111.914062 C 53.320312 111.914062 54.789062 111.355469 55.894531 110.253906 L 58.226562 107.921875 L 58.980469 108.675781 C 60.03125 109.726562 61.425781 110.304688 62.910156 110.304688 C 64.394531 110.304688 65.789062 109.726562 66.839844 108.675781 C 67.976562 107.542969 68.515625 106.03125 68.460938 104.542969 C 68.53125 104.546875 68.597656 104.546875 68.667969 104.546875 C 70.089844 104.546875 71.511719 104.003906 72.59375 102.921875 C 73.730469 101.789062 74.269531 100.277344 74.214844 98.789062 C 74.285156 98.792969 74.351562 98.792969 74.421875 98.792969 C 75.90625 98.792969 77.300781 98.214844 78.351562 97.167969 C 79.488281 96.03125 80.027344 94.523438 79.972656 93.03125 C 80.039062 93.035156 80.109375 93.035156 80.175781 93.035156 C 81.597656 93.035156 83.023438 92.496094 84.105469 91.410156 C 85.15625 90.363281 85.734375 88.964844 85.734375 87.484375 C 85.734375 86 85.15625 84.601562 84.105469 83.554688 L 83.96875 83.414062 L 96.082031 71.300781 C 96.597656 71.566406 97.160156 71.699219 97.726562 71.699219 C 98.65625 71.699219 99.582031 71.34375 100.289062 70.636719 L 107.035156 63.894531 C 108.449219 62.480469 108.449219 60.183594 107.035156 58.769531 L 86.933594 38.667969 C 85.523438 37.257812 83.222656 37.257812 81.808594 38.667969 L 75.066406 45.414062 C 74.128906 46.347656 73.816406 47.671875 74.121094 48.871094 L 72.792969 50.152344 C 72.078125 50.839844 71.042969 51.09375 70.09375 50.820312 C 67.546875 50.085938 64.800781 50.796875 62.921875 52.671875 L 59.058594 56.570312 L 54.386719 51.898438 C 53.011719 50.523438 51.183594 49.765625 49.238281 49.765625 C 47.296875 49.765625 45.46875 50.523438 44.09375 51.898438 C 43.683594 52.308594 43.136719 52.535156 42.554688 52.535156 C 41.972656 52.535156 41.425781 52.308594 41.011719 51.898438 L 38.558594 49.441406 L 38.574219 49.429688 L 37.914062 48.792969 C 38.183594 47.617188 37.863281 46.328125 36.949219 45.414062 L 30.207031 38.667969 C 28.792969 37.257812 26.492188 37.257812 25.078125 38.667969 " fill-opacity="1" fill-rule="nonzero"/></g></svg>