<svg xmlns="http://www.w3.org/2000/svg" xmlns:xlink="http://www.w3.org/1999/xlink" width="1366" zoomAndPan="magnify" viewBox="0 0 1024.5 576" height="768" preserveAspectRatio="xMidYMid meet" version="1.0"><defs><clipPath id="42aca90984"><path d="M 384.308594 509.835938 L 392 509.835938 L 392 518.082031 L 384.308594 518.082031 Z M 384.308594 509.835938 " clip-rule="nonzero"/></clipPath><clipPath id="efa8e34d7d"><path d="M 385 509.835938 L 392.554688 509.835938 L 392.554688 518.082031 L 385 518.082031 Z M 385 509.835938 " clip-rule="nonzero"/></clipPath></defs><g clip-path="url(#42aca90984)"><path fill="#ffffff" d="M 390.003906 512.703125 C 390.886719 512.703125 391.324219 513.332031 391.324219 514.058594 C 391.324219 514.765625 390.886719 515.402344 390.003906 515.402344 C 389.488281 515.402344 389.121094 515.1875 388.90625 514.859375 L 388.90625 515.226562 C 389.164062 515.472656 389.53125 515.628906 390.003906 515.628906 C 390.441406 515.628906 390.800781 515.492188 391.054688 515.269531 L 391.441406 515.640625 L 391.589844 515.488281 L 391.199219 515.109375 C 391.4375 514.816406 391.558594 514.429688 391.558594 514.058594 C 391.5625 513.214844 391.042969 512.476562 390.003906 512.476562 C 388.976562 512.476562 388.457031 513.210938 388.449219 514.03125 C 388.449219 514.039062 388.449219 514.050781 388.449219 514.058594 L 388.449219 518.058594 C 386.277344 518.015625 384.527344 516.238281 384.527344 514.058594 C 384.527344 512.226562 385.765625 510.679688 387.449219 510.207031 L 387.449219 509.976562 C 385.644531 510.457031 384.308594 512.105469 384.308594 514.058594 C 384.308594 516.386719 386.203125 518.28125 388.53125 518.28125 C 388.578125 518.28125 388.628906 518.28125 388.675781 518.277344 L 388.675781 514.058594 L 388.679688 514.058594 C 388.679688 514.050781 388.679688 514.039062 388.679688 514.03125 C 388.679688 513.277344 389.222656 512.703125 390.003906 512.703125 Z M 390.003906 512.703125 " fill-opacity="1" fill-rule="nonzero"/></g><g clip-path="url(#efa8e34d7d)"><path fill="#ffffff" d="M 388.53125 509.835938 C 388.234375 509.835938 387.949219 509.867188 387.667969 509.925781 L 387.667969 513.980469 L 385.707031 513.980469 L 385.707031 512.515625 L 385.46875 512.515625 L 385.46875 515.597656 L 385.707031 515.597656 L 385.707031 514.199219 L 387.667969 514.199219 L 387.667969 515.597656 L 387.90625 515.597656 L 387.90625 510.105469 C 388.109375 510.074219 388.316406 510.054688 388.53125 510.054688 C 390.738281 510.054688 392.53125 511.851562 392.53125 514.058594 C 392.53125 516.136719 390.9375 517.851562 388.90625 518.042969 L 388.90625 518.261719 C 391.058594 518.070312 392.75 516.257812 392.75 514.058594 C 392.753906 511.730469 390.859375 509.835938 388.53125 509.835938 Z M 388.53125 509.835938 " fill-opacity="1" fill-rule="nonzero"/></g><path fill="#000000" d="M 260.054688 291.863281 C 259.171875 291.644531 258.113281 291.90625 256.773438 292.640625 C 253.492188 294.410156 250.726562 297.046875 249.042969 300.375 C 244.355469 309.316406 253.359375 311.929688 261.328125 312.492188 C 260.445312 306.378906 259.773438 300.242188 259.667969 294 C 259.667969 293.179688 259.816406 292.511719 260.054688 291.863281 Z M 260.164062 107.8125 C 260.273438 102.714844 260.597656 97.59375 261.15625 92.496094 C 256.125 91.394531 250.835938 91.785156 245.847656 93.101562 C 247.011719 98.070312 248.113281 103.101562 249.042969 108.15625 C 252.757812 108.070312 256.449219 107.878906 260.164062 107.8125 Z M 270.722656 14.6875 C 267.613281 14.835938 264.742188 15.441406 262.710938 16.671875 C 256.902344 20.214844 249.992188 26.933594 246.582031 32.808594 C 237.574219 48.34375 240.878906 65.816406 245.347656 82.257812 C 247.269531 81.824219 249.238281 81.542969 251.222656 81.351562 C 250.316406 66.746094 254.960938 53.136719 258.070312 39.011719 C 259.949219 30.585938 264.074219 20.714844 270.722656 14.6875 Z M 277.742188 222.367188 C 277.785156 222.324219 277.851562 222.367188 277.894531 222.324219 C 270.441406 188.0625 261.199219 153.089844 260.207031 118.460938 C 257.054688 118.527344 253.921875 118.636719 250.8125 118.742188 C 253.597656 137.105469 255.347656 155.832031 258.046875 173.785156 C 260.550781 190.589844 262.863281 207.507812 265.304688 224.335938 C 269.535156 223.945312 273.683594 223.535156 277.742188 222.367188 Z M 283.984375 254.316406 C 282.882812 247.144531 281.542969 239.953125 280.097656 232.757812 C 275.777344 233.925781 271.328125 234.421875 266.859375 234.832031 C 268.046875 242.457031 269.277344 250.0625 270.59375 257.644531 C 275.023438 256.433594 279.449219 255.09375 283.984375 254.316406 Z M 271.046875 287.324219 C 276.835938 287.324219 282.535156 287.324219 288.777344 287.324219 C 287.179688 279.851562 286.230469 272.246094 285.949219 264.621094 C 279.988281 265.398438 274.242188 267.429688 268.347656 268.855469 C 269.386719 274.796875 269.988281 280.84375 271.003906 286.785156 C 271.046875 286.980469 271.003906 287.152344 271.046875 287.324219 Z M 186.394531 425.621094 C 220.210938 425.621094 254.074219 425.621094 291.003906 425.621094 C 289.726562 416.980469 289.015625 408.082031 289.402344 399.460938 C 254.484375 398.75 219.542969 399.460938 184.578125 400.304688 C 184.019531 408.492188 184.839844 417.152344 186.394531 425.621094 Z M 295.234375 448.089844 C 294.15625 443.226562 293.097656 438.085938 292.148438 432.730469 C 256.382812 432.730469 198.703125 432.730469 187.882812 432.730469 C 189.394531 439.253906 191.253906 445.5625 193.132812 451.328125 C 227.1875 451.371094 261.265625 451.371094 295.234375 448.089844 Z M 305.730469 353.925781 C 301.324219 335.238281 295.34375 316.964844 292.363281 297.953125 C 284.480469 297.953125 277.546875 297.953125 270.53125 297.953125 C 271.046875 306.488281 272.582031 314.78125 273.683594 323.25 C 275.023438 333.855469 275.84375 345.132812 280.226562 355.027344 C 289.597656 355.867188 297.242188 355.457031 305.730469 353.925781 Z M 299.792969 366.800781 C 299.121094 366.84375 298.496094 366.949219 297.828125 366.90625 C 287.070312 366.625 276.46875 364.746094 265.734375 364.660156 C 244.527344 364.488281 223.40625 364.769531 202.265625 366.476562 C 191.988281 373.386719 186.953125 383.542969 185.183594 394.992188 C 220.082031 394.148438 254.960938 393.433594 289.835938 394.148438 C 290.722656 386.328125 292.644531 378.898438 296.226562 372.285156 C 297.308594 370.277344 298.519531 368.464844 299.792969 366.800781 Z M 204.253906 481.441406 C 236.667969 474.679688 269.730469 474.03125 302.707031 474.3125 C 300.222656 467.445312 298.128906 460.421875 296.445312 453.292969 C 262.648438 456.664062 228.785156 456.6875 194.902344 456.664062 C 195.398438 458.113281 195.894531 459.558594 196.390625 460.917969 C 198.832031 467.875 201.46875 474.679688 204.253906 481.441406 Z M 310.179688 276.699219 C 310.179688 253.5625 305.859375 231.375 302.46875 208.609375 C 299.511719 188.949219 298.019531 169.140625 294.652344 149.527344 C 287.914062 110.144531 282.300781 70.722656 276.683594 31.167969 C 276.230469 27.777344 278.671875 25.335938 281.304688 24.6875 C 283.636719 22.785156 286.359375 21.597656 289.125 20.539062 C 288.171875 19.546875 287.007812 18.703125 285.648438 17.949219 C 280.765625 20.152344 274.675781 26.460938 273.683594 28.230469 C 271.265625 32.550781 269.320312 36.914062 268.347656 41.816406 C 265.671875 55.191406 260.941406 67.804688 261.871094 81.628906 C 261.914062 81.675781 261.871094 81.71875 261.871094 81.761719 C 263.707031 82.105469 265.519531 82.539062 267.289062 83.164062 C 268.457031 83.597656 269.320312 84.308594 269.925781 85.152344 C 271.371094 85.90625 272.320312 87.378906 272.042969 89.625 C 264.957031 145.011719 287.113281 201.542969 294.867188 255.765625 C 294.976562 256.371094 294.867188 256.929688 294.804688 257.472656 C 295.730469 258.3125 296.226562 259.566406 296.226562 261.164062 C 296.292969 268.164062 296.789062 275.097656 298.0625 281.945312 C 302.144531 278.554688 306.636719 276.976562 310.179688 276.699219 Z M 309.292969 519.613281 C 314.132812 519.613281 318.902344 519.417969 323.65625 518.898438 C 316.464844 506.261719 309.941406 493.195312 304.695312 479.671875 C 271.804688 479.324219 238.761719 479.777344 206.414062 486.453125 C 213.515625 503 221.550781 519.117188 230.167969 534.972656 C 229.929688 533.871094 229.671875 532.769531 229.433594 531.667969 C 229.390625 531.492188 229.433594 531.300781 229.390625 531.125 C 229.109375 530.457031 228.9375 529.742188 228.9375 529.074219 C 228.9375 525.878906 231.375 524.105469 234.25 523.761719 C 237.660156 523.285156 241.050781 522.765625 244.421875 522.160156 C 242.910156 519.136719 241.3125 516.136719 239.710938 513.109375 C 236.515625 507.039062 245.695312 501.703125 248.890625 507.753906 C 251.4375 512.613281 254.007812 517.429688 256.253906 522.441406 C 260.832031 522.011719 265.390625 521.558594 269.925781 521.167969 C 268.003906 516.71875 266.058594 512.289062 263.640625 508.121094 C 260.230469 502.160156 269.429688 496.800781 272.820312 502.71875 C 275.972656 508.183594 278.21875 514.320312 280.832031 520.195312 C 281.003906 520.195312 281.15625 520.195312 281.328125 520.195312 C 281.390625 520.195312 281.480469 520.195312 281.542969 520.195312 C 281.976562 520.175781 282.386719 520.175781 282.773438 520.195312 C 283.25 520.238281 283.746094 520.238281 284.199219 520.238281 C 285.0625 520.066406 285.90625 520.023438 286.746094 520.238281 C 289.449219 520.238281 292.167969 520.175781 294.867188 520 C 292.601562 515.59375 290.398438 511.125 287.847656 506.910156 C 284.351562 501.035156 293.527344 495.65625 297.070312 501.554688 C 300.503906 507.300781 303.246094 514.0625 306.679688 520.304688 C 307.394531 519.894531 308.277344 519.613281 309.292969 519.613281 Z M 328.730469 351.332031 C 329.441406 351.441406 330.003906 351.699219 330.5 351.9375 C 327.089844 338.457031 321.96875 315.085938 305.96875 312.816406 C 309.054688 325.863281 313.050781 338.71875 316.117188 351.785156 C 320.394531 350.945312 324.195312 350.664062 328.730469 351.332031 Z M 339.722656 345.242188 C 350.886719 337.507812 344.601562 321.15625 338.449219 310.160156 C 331.039062 296.894531 316.421875 277.691406 302.273438 293.136719 C 302.664062 296.117188 303.140625 299.035156 303.65625 301.972656 C 326.226562 302.144531 334.648438 326.339844 339.722656 345.242188 Z M 342.097656 141.921875 C 342.097656 140.648438 342.441406 139.589844 343.027344 138.769531 C 336.460938 134.683594 330.285156 130.042969 325.316406 124.382812 C 319.378906 117.535156 310.65625 104.097656 317.132812 94.828125 C 320.675781 89.773438 326.226562 87.464844 332.378906 86.792969 C 330.15625 81.046875 326.117188 77.675781 318.625 78.089844 C 316.140625 78.238281 314.585938 76.921875 313.871094 75.195312 C 312.945312 74.589844 312.164062 73.703125 311.710938 72.429688 C 306.507812 57.890625 299.164062 44.195312 295.625 29.160156 C 292.707031 30.152344 289.769531 31.253906 287.675781 33.265625 C 293.765625 75.539062 301 117.640625 306.960938 159.917969 C 312.359375 198.238281 322.144531 237.878906 321.710938 276.699219 C 321.710938 277.367188 321.558594 277.929688 321.386719 278.492188 C 329.226562 281.621094 336.527344 288.382812 342.097656 295.945312 C 342.097656 243.453125 342.097656 191.175781 342.097656 141.921875 Z M 342.269531 529.183594 C 343.609375 522.960938 339.9375 511.902344 336.851562 503.324219 C 336.289062 503.539062 335.683594 503.648438 335.015625 503.648438 C 333.4375 503.648438 330.566406 503.648438 327.78125 503.648438 C 332.207031 512.289062 337.066406 520.800781 342.269531 529.183594 Z M 332.636719 461.914062 C 338.449219 436.703125 353.003906 410.976562 376.757812 399.03125 C 369.609375 380.90625 347.734375 362.695312 327.605469 363.320312 C 304.261719 364.035156 300.007812 389.070312 300.828125 408.039062 C 302.144531 438.390625 310.265625 466.449219 322.597656 493 C 327.457031 493 330.542969 493 333.265625 493 C 330.542969 482.824219 330.261719 472.261719 332.636719 461.914062 Z M 360.28125 136.15625 C 361.621094 125.117188 360.042969 113.796875 359.847656 102.734375 C 353.21875 100.015625 327.605469 92.238281 325.964844 101.160156 C 324.128906 110.964844 336.007812 120.839844 342.984375 125.71875 C 348.511719 129.628906 354.320312 133.023438 360.28125 136.15625 Z M 394.1875 529.074219 C 392.804688 526.65625 391.832031 524.0625 391.398438 521.382812 C 388.507812 521.382812 385.03125 521.382812 382.933594 521.382812 C 382.695312 524.949219 382.828125 528.511719 383.496094 531.839844 C 387.230469 531.515625 390.710938 530.5 394.1875 529.074219 Z M 391.832031 105.976562 C 391.875 105.933594 391.898438 105.867188 391.941406 105.824219 C 376.132812 94.765625 360.28125 83.726562 343.414062 74.265625 C 340.78125 72.816406 340.328125 70.183594 341.167969 68.023438 C 341.167969 67.523438 341.210938 67.007812 341.386719 66.507812 C 342.207031 64.328125 343.132812 62.253906 344.019531 60.179688 C 343.976562 60.160156 343.910156 60.113281 343.824219 60.070312 C 331.816406 52.554688 320.328125 44.324219 308.6875 36.222656 C 312.316406 46.785156 317.21875 56.917969 321.148438 67.417969 C 333.050781 67.804688 340.78125 75.753906 343.652344 87.097656 C 351.75 88.285156 359.785156 91.070312 365.527344 93.664062 C 366.132812 93.769531 366.757812 93.988281 367.363281 94.332031 C 375.246094 98.914062 383.476562 102.628906 391.832031 105.976562 Z M 394.53125 506.695312 C 391.59375 506.566406 388.636719 506.457031 385.699219 506.371094 C 384.707031 509.957031 383.820312 513.867188 383.28125 517.839844 C 386.585938 517.839844 389.066406 517.839844 391.164062 517.839844 C 391.207031 515.960938 391.507812 513.996094 392.15625 512.050781 C 392.824219 510.066406 393.644531 508.335938 394.53125 506.695312 Z M 400.902344 536.960938 C 399.628906 535.878906 398.441406 534.753906 397.359375 533.503906 C 393.367188 535.167969 389.390625 536.527344 385.160156 537.089844 C 386.347656 539.679688 388.011719 542.058594 390.277344 544.109375 C 390.449219 544.175781 390.621094 544.21875 390.816406 544.324219 C 391.011719 544.042969 391.226562 543.785156 391.550781 543.613281 C 394.855469 541.625 398.117188 539.53125 400.902344 536.960938 Z M 398.179688 501.488281 C 399.628906 499.847656 401.292969 498.464844 403.0625 497.253906 C 399.5 495.785156 395.847656 494.574219 391.984375 494.273438 C 390.167969 496.175781 388.679688 498.441406 387.511719 501.121094 C 391.054688 501.230469 394.597656 501.378906 398.179688 501.488281 Z M 408.847656 494.078125 C 410.792969 493.257812 412.867188 492.546875 415.027344 491.875 C 413.644531 489.5 411.9375 487.359375 409.28125 486.128906 C 409.066406 486.023438 408.914062 485.890625 408.742188 485.742188 C 404.703125 486.625 400.945312 487.964844 397.640625 489.886719 C 401.507812 490.882812 405.199219 492.4375 408.847656 494.078125 Z M 411.785156 548.019531 C 412.605469 546.3125 412.972656 544.5 413.039062 542.617188 C 410.273438 541.949219 407.574219 540.957031 405.480469 539.898438 C 402.976562 542.402344 400.125 544.5 397.125 546.421875 C 397.144531 546.421875 397.1875 546.421875 397.230469 546.441406 C 401.789062 547.542969 406.734375 547.933594 411.785156 548.019531 Z M 419.691406 532.507812 C 420.230469 528.964844 420.058594 525.164062 419.625 521.621094 C 418.890625 515.183594 417.726562 508.789062 417.035156 502.332031 C 409.84375 504.597656 402.199219 508.359375 401.980469 517.128906 C 401.789062 523.761719 405.847656 529.3125 412.390625 531.167969 C 414.636719 531.796875 416.90625 532.378906 419.238281 532.507812 C 419.410156 532.507812 419.519531 532.507812 419.691406 532.507812 Z M 422.21875 491.488281 C 423.554688 488.332031 425.542969 485.589844 428.175781 483.753906 C 424.160156 483.859375 420.121094 484.078125 416.148438 484.53125 C 418.027344 486.410156 419.496094 488.785156 420.683594 491.226562 C 420.878906 491.269531 421.007812 491.378906 421.179688 491.445312 C 421.503906 491.445312 421.871094 491.445312 422.21875 491.488281 Z M 428.070312 547.261719 C 426.859375 545.859375 425.867188 544.21875 425.089844 542.382812 C 423.210938 543.289062 420.835938 543.570312 418.308594 543.441406 C 418.242188 544.953125 418.007812 546.484375 417.574219 547.933594 C 421.074219 547.804688 424.59375 547.542969 428.070312 547.261719 Z M 428.847656 118.074219 C 431.890625 113.234375 433.316406 107.640625 434.765625 102.066406 C 421.007812 94.332031 408.957031 83.941406 394.878906 76.683594 C 382.199219 70.136719 369.179688 64.261719 356.566406 57.675781 C 355.25 60.894531 353.800781 64.046875 352.484375 67.242188 C 379.003906 82.601562 403.105469 101.546875 428.847656 118.074219 Z M 443.445312 497.082031 C 442 494.078125 438.78125 491.121094 435.691406 491.941406 C 432.820312 492.652344 431.761719 495.074219 431.15625 497.6875 C 435.261719 497.449219 439.34375 497.234375 443.445312 497.082031 Z M 434.871094 538.535156 C 437.421875 544.066406 444.65625 543.613281 448.953125 539.398438 C 444.265625 539.207031 439.558594 538.925781 434.871094 538.535156 Z M 449.621094 487.511719 C 451.351562 485.675781 453.378906 484.097656 455.582031 482.804688 C 451.738281 483.019531 447.914062 483.148438 444.113281 483.363281 C 446.1875 484.402344 448.066406 485.804688 449.621094 487.511719 Z M 471.5625 134.339844 C 471.605469 133.28125 471.671875 132.222656 471.777344 131.144531 C 462.167969 125.160156 452.710938 118.355469 442.214844 114.011719 C 441.265625 116.820312 440.121094 119.542969 438.695312 122.132812 C 440.832031 122.890625 442.949219 123.605469 445.085938 124.382812 C 453.832031 127.558594 462.730469 130.863281 471.5625 134.339844 Z M 475.796875 496.519531 C 475.6875 496.238281 475.601562 495.957031 475.535156 495.589844 C 473.378906 484.464844 460.851562 489.929688 455.992188 496.691406 C 462.601562 496.585938 469.1875 496.519531 475.796875 496.519531 Z M 476.183594 547.113281 C 479.746094 545.816406 481.128906 542.683594 482.015625 539.03125 C 475.601562 539.292969 469.167969 539.507812 462.730469 539.53125 C 463.097656 542.726562 464.933594 545.253906 467.589844 546.636719 C 470.460938 546.765625 473.335938 546.9375 476.183594 547.113281 Z M 488.90625 303.636719 C 492.898438 303.03125 496.851562 302.144531 500.804688 301.476562 C 495.273438 289.765625 488.730469 280.152344 479.660156 271.75 C 481.90625 282.574219 486.074219 293.007812 488.90625 303.636719 Z M 501.128906 328.109375 C 500.285156 323.59375 499.617188 319.039062 499.25 314.394531 C 495.707031 314.78125 492.015625 314.953125 488.644531 315.796875 C 486.355469 316.378906 489.421875 327.398438 490.222656 330.164062 C 493.980469 330.207031 497.652344 329.664062 501.128906 328.109375 Z M 500.847656 401.664062 C 499.53125 397.042969 498.191406 392.464844 496.808594 387.863281 C 495.082031 382.160156 493.179688 376.542969 491.28125 370.902344 C 491.0625 371.164062 490.804688 371.378906 490.523438 371.550781 C 490.566406 381.230469 489.359375 391.296875 486.765625 400.585938 C 491.496094 400.671875 496.203125 401.0625 500.847656 401.664062 Z M 507.734375 425.621094 C 506.484375 421.410156 505.253906 417.199219 504.042969 412.964844 C 492.339844 410.671875 480.070312 410.867188 468.195312 411.90625 C 468.195312 416.332031 468.171875 420.761719 468.128906 425.210938 C 481.109375 427.976562 494.539062 425.707031 507.734375 425.621094 Z M 508.339844 537.757812 C 503.609375 538.019531 498.945312 538.234375 494.21875 538.472656 C 494.972656 542.015625 496.269531 546.203125 499.03125 546.808594 C 504.28125 548.019531 507.800781 542.511719 508.339844 537.757812 Z M 511.492188 496.84375 C 511.40625 496.628906 511.34375 496.414062 511.277344 496.195312 C 509.746094 489.886719 505.035156 483.601562 497.628906 484.597656 C 491.777344 485.351562 488.90625 491.507812 487.242188 496.5625 C 495.316406 496.628906 503.394531 496.734375 511.492188 496.84375 Z M 515.8125 446.230469 C 515.8125 445.992188 515.8125 445.777344 515.8125 445.5625 C 514.601562 445 513.566406 444.003906 513.046875 442.40625 C 512.335938 440.355469 511.730469 438.28125 511.0625 436.230469 C 510.84375 436.230469 510.714844 436.273438 510.5 436.273438 C 496.3125 435.949219 482.101562 438.367188 468.066406 435.992188 C 468.019531 439.425781 467.976562 442.859375 467.976562 446.296875 C 483.9375 446.273438 499.851562 446.230469 515.8125 446.230469 Z M 522.832031 481.160156 C 520.175781 481.117188 517.539062 481.160156 514.925781 481.160156 C 516.027344 482.261719 517.023438 483.492188 517.863281 484.855469 C 519.246094 483.363281 520.910156 482.113281 522.832031 481.160156 Z M 520.238281 358.246094 C 521.945312 358.246094 523.652344 358.246094 525.335938 358.246094 C 520.996094 348.394531 516.375 338.628906 512.097656 328.78125 C 514.214844 338.71875 517.347656 348.460938 520.238281 358.246094 Z M 521.773438 434.953125 C 524.214844 434.523438 526.589844 433.9375 528.964844 433.226562 C 521.125 410.695312 517.714844 387.234375 510.996094 364.421875 C 508.425781 355.761719 505.75 347.183594 503.503906 338.542969 C 500.113281 339.777344 496.59375 340.511719 492.984375 340.726562 C 495.425781 349.5625 498.253906 358.179688 501.234375 366.949219 C 505.488281 379.414062 509.074219 392.117188 512.703125 404.777344 C 513.71875 405.921875 514.085938 407.433594 513.867188 408.921875 C 516.375 417.652344 518.921875 426.335938 521.773438 434.953125 Z M 526.242188 544.152344 C 531.296875 543.785156 532.65625 540.914062 533.867188 537.023438 C 528.964844 537.046875 524.0625 537.152344 519.203125 537.328125 C 519.679688 541.300781 521.339844 544.5 526.242188 544.152344 Z M 532.398438 375.417969 C 531.578125 373.214844 530.734375 371.054688 529.894531 368.894531 C 528.078125 368.894531 525.421875 368.894531 523.21875 368.894531 C 523.566406 370.234375 523.933594 371.574219 524.257812 372.933594 C 524.539062 374.144531 524.816406 375.375 525.097656 376.585938 C 527.472656 376.585938 529.804688 376.628906 532.117188 376.695312 C 532.160156 376.261719 532.269531 375.851562 532.398438 375.417969 Z M 535.722656 515.746094 C 535.765625 513.089844 536.113281 510.386719 536.867188 507.730469 C 500.847656 507.472656 464.824219 506.242188 428.890625 508.421875 C 429.277344 510.667969 429.6875 512.980469 430.078125 515.25 C 446.082031 518.511719 463.488281 515.464844 479.683594 515.464844 C 498.363281 515.464844 517.042969 515.660156 535.722656 515.746094 Z M 536.328125 219.019531 C 536.371094 218.957031 536.371094 218.957031 536.371094 218.804688 C 536.328125 218.394531 535.832031 217.398438 535.25 216.40625 C 531.621094 216.40625 529.09375 216.425781 526.695312 216.535156 C 526.933594 218.175781 527.324219 219.734375 527.753906 221.289062 C 530.582031 221.265625 533.5625 220.898438 535.550781 219.667969 C 535.765625 219.558594 536.261719 219.0625 536.328125 219.019531 Z M 431.179688 527.519531 C 466.53125 531.191406 501.839844 526.308594 537.300781 526.332031 C 536.71875 524.601562 536.328125 522.875 536.046875 521.058594 C 515.316406 520.996094 494.585938 520.777344 473.808594 520.777344 C 459.511719 520.777344 445.023438 523.113281 430.832031 520.777344 C 431.070312 523.070312 431.222656 525.359375 431.179688 527.519531 Z M 538.1875 497.125 C 538.53125 494.46875 538.097656 492.046875 536.328125 490.644531 C 535.207031 489.738281 532.679688 489.347656 530.347656 489.628906 C 528.617188 489.84375 526.265625 490.925781 525.140625 492.308594 C 525.140625 492.308594 524.667969 493.429688 524.601562 493.429688 C 524.601562 493.992188 524.644531 494.683594 525.140625 495.632812 C 525.335938 496.089844 525.488281 496.5625 525.59375 497.015625 C 529.804688 497.058594 533.996094 497.082031 538.1875 497.125 Z M 541.835938 365.351562 C 541.792969 353.601562 542.332031 341.871094 543.324219 330.164062 C 539.199219 329.0625 535.25 326.769531 534.0625 322.363281 C 533.175781 319.039062 533.757812 315.625 534.167969 312.253906 C 525.769531 298.386719 523.609375 282.507812 515.597656 268.316406 C 505.382812 250.234375 485.277344 237.683594 469.230469 224.980469 C 435.195312 198.109375 400.015625 172.75 363.542969 149.308594 C 362.871094 149.203125 362.203125 149.050781 361.554688 148.75 C 358.660156 147.324219 355.703125 145.832031 352.722656 144.277344 C 352.722656 152.703125 352.722656 162.464844 352.722656 172.964844 C 374.921875 188.28125 396.085938 205.042969 418.417969 220.121094 C 438.671875 233.773438 461.929688 243.777344 481.214844 258.679688 C 498.234375 271.792969 507.195312 286.765625 514.667969 306.679688 C 522.160156 326.640625 531.902344 345.628906 539.847656 365.351562 C 540.582031 365.351562 541.273438 365.351562 541.835938 365.351562 Z M 556.152344 545.039062 C 551.726562 544.21875 547.621094 542.488281 544.320312 539.121094 C 543.453125 542.058594 542.460938 545.363281 540.734375 547.910156 C 546.109375 547.414062 551.46875 546.550781 556.152344 545.039062 Z M 536.804688 423.136719 C 540.085938 423.355469 543.390625 423.546875 546.695312 423.679688 C 544.707031 411.796875 543.347656 399.914062 542.570312 388.011719 C 538.316406 387.539062 531.902344 387.363281 527.539062 387.257812 C 530.28125 399.355469 533.066406 411.34375 536.804688 423.136719 Z M 547.710938 446.296875 C 547.710938 441.738281 547.710938 436.832031 547.710938 434.347656 C 545.3125 434.285156 542.871094 434.175781 540.453125 434.023438 C 540.453125 434.070312 540.453125 434.070312 540.496094 434.113281 C 541.664062 436.8125 540.90625 440.484375 537.320312 441.695312 C 533.714844 442.902344 530.109375 443.917969 526.4375 444.738281 C 526.4375 445.171875 526.4375 445.710938 526.4375 446.273438 C 533.542969 446.273438 540.625 446.273438 547.710938 446.296875 Z M 550.949219 491.703125 C 554.554688 489.78125 558.421875 488.65625 562.070312 488.570312 C 558.484375 484.464844 553.324219 481.765625 545.808594 481.507812 C 544.425781 481.484375 543.042969 481.484375 541.664062 481.441406 C 542.613281 482.046875 543.5 482.695312 544.277344 483.492188 C 546.714844 485.976562 548.011719 488.9375 548.53125 492.027344 C 548.8125 491.941406 549.132812 491.875 549.480469 491.832031 C 549.976562 491.769531 550.453125 491.722656 550.949219 491.703125 Z M 556.5 268.46875 C 561.226562 267.582031 566.109375 266.695312 571.03125 265.832031 C 562.242188 242.542969 552.847656 219.601562 541.488281 197.394531 C 529.460938 173.914062 512.507812 164.238281 489.25 153.847656 C 451.003906 136.78125 407.855469 127.664062 370.625 108.265625 C 371.101562 119.195312 372.09375 130.148438 370.28125 140.972656 C 408.847656 165.835938 446.015625 192.75 481.777344 221.484375 C 496.59375 233.386719 516.375 245.160156 524.773438 262.957031 C 531.058594 276.222656 534.386719 290.542969 541.296875 303.3125 C 541.488281 302.8125 541.664062 302.359375 541.792969 301.863281 C 541.769531 301.757812 541.726562 301.691406 541.683594 301.582031 C 535.269531 278.640625 529.957031 255.613281 527.300781 231.9375 C 526.589844 231.9375 525.855469 231.9375 525.097656 231.9375 C 524.644531 231.894531 524.214844 231.828125 523.824219 231.722656 C 521.664062 231.785156 519.460938 230.683594 518.640625 228.007812 C 517.238281 223.320312 515.921875 218.675781 515.8125 213.75 C 515.769531 212.214844 516.308594 211.046875 517.085938 210.183594 C 517.691406 207.894531 519.785156 206.40625 522.226562 206.1875 C 527.128906 205.800781 530 205.757812 537.085938 205.757812 C 537.257812 205.757812 537.429688 205.800781 537.625 205.800781 C 539.179688 205.648438 540.734375 206.082031 541.726562 207.3125 C 545.980469 212.710938 550.234375 221.65625 543.347656 227.078125 C 541.664062 228.460938 539.742188 229.453125 537.710938 230.1875 C 539.804688 249.78125 543.996094 268.878906 549.003906 287.886719 C 549.910156 282.917969 550.839844 277.992188 551.898438 273.066406 C 552.15625 271.792969 552.742188 270.863281 553.496094 270.238281 C 554.125 269.375 555.09375 268.703125 556.5 268.46875 Z M 570.167969 529.636719 C 570.167969 522.335938 570.253906 513.605469 568.980469 505.636719 C 568.09375 504.859375 567.144531 504.082031 566.109375 503.367188 C 562.394531 502.417969 558.59375 502.050781 554.726562 502.113281 C 553.929688 502.65625 553.214844 503.195312 552.71875 503.539062 C 548.917969 506.457031 546.21875 509.785156 546.21875 514.882812 C 546.21875 521.101562 548.097656 530.695312 554.554688 533.652344 C 559.089844 535.75 564.273438 535.167969 569.175781 534.992188 C 569.800781 533.394531 570.167969 531.625 570.167969 529.636719 Z M 573.128906 484.421875 C 588.351562 484.316406 603.554688 483.320312 618.757812 484.140625 C 615.109375 480.449219 611.136719 477.121094 606.859375 473.902344 C 591.527344 474.011719 576.214844 473.902344 560.902344 473.816406 C 561.679688 474.207031 562.4375 474.59375 563.171875 475.027344 C 567.210938 477.511719 570.363281 480.773438 572.847656 484.507812 C 572.953125 484.507812 573.019531 484.421875 573.128906 484.421875 Z M 621.175781 542.726562 C 616.382812 542.683594 611.566406 542.488281 606.859375 542.511719 C 596.882812 542.617188 586.96875 542.664062 577.035156 542.664062 C 575.761719 544.777344 574.164062 546.636719 572.285156 548.191406 C 579.453125 547.585938 586.582031 546.984375 593.730469 546.550781 C 601.957031 546.03125 612.734375 546.097656 621.175781 542.726562 Z M 628.304688 495.980469 C 626.921875 493.777344 625.433594 491.769531 623.875 489.824219 C 607.851562 488.460938 591.828125 489.5 575.761719 489.714844 C 576.710938 491.8125 577.53125 493.992188 578.203125 496.238281 C 594.894531 496.195312 611.609375 496.066406 628.304688 495.980469 Z M 629.425781 537.132812 C 631.003906 535.253906 632.167969 533.050781 633.011719 530.628906 C 615.605469 529.613281 598.15625 531.386719 580.75 530.175781 C 580.554688 532.8125 580.125 535.167969 579.410156 537.328125 C 588.546875 537.328125 597.703125 537.328125 606.859375 537.195312 C 614.222656 537.089844 622 537.867188 629.425781 537.132812 Z M 633.722656 510.820312 C 633.078125 507.40625 632.125 504.167969 630.960938 501.316406 C 613.792969 501.335938 596.644531 501.511719 579.476562 501.554688 C 580.1875 504.964844 580.621094 508.464844 580.859375 511.945312 C 598.523438 512.203125 616.101562 512.203125 633.722656 510.820312 Z M 634.179688 525.378906 C 634.609375 522.398438 634.675781 519.222656 634.4375 516.046875 C 616.664062 517.515625 598.914062 517.515625 581.117188 517.257812 C 581.140625 519.851562 581.117188 522.398438 581.03125 524.863281 C 598.738281 526.09375 616.492188 524.214844 634.179688 525.378906 Z M 634.609375 429.273438 C 635.324219 429.316406 635.992188 429.273438 636.703125 429.316406 C 626.554688 377.578125 627.050781 321.371094 636.835938 269.65625 C 610.960938 270.171875 584.832031 273.996094 561.636719 278.273438 C 551.554688 327.074219 548.789062 376.867188 557.859375 426.054688 C 583.515625 425.882812 608.976562 428.644531 634.609375 429.273438 Z M 644.242188 462.128906 C 644.996094 460.488281 645.601562 458.824219 646.164062 457.117188 C 596.277344 457.054688 554.8125 456.945312 554.8125 456.945312 C 554.640625 456.945312 554.445312 456.902344 554.273438 456.902344 C 555.3125 458.953125 556.21875 461.050781 557.148438 463.1875 C 574.121094 463.210938 591.117188 463.402344 608.089844 463.210938 C 608.523438 463.144531 608.933594 463.144531 609.40625 463.210938 C 621.027344 463.082031 632.625 462.757812 644.242188 462.128906 Z M 695.054688 525.164062 C 695.054688 524.320312 694.992188 523.5 694.949219 522.679688 C 678.167969 522.335938 661.410156 521.339844 644.652344 521.382812 C 644.652344 522.789062 644.652344 524.171875 644.566406 525.640625 C 644.566406 526.136719 644.457031 526.527344 644.4375 526.980469 C 662.726562 526.957031 678.382812 526.742188 695.054688 525.164062 Z M 695.507812 537.910156 C 695.445312 537.238281 695.378906 536.527344 695.292969 535.8125 C 678.167969 537.261719 649.25 537.542969 641.738281 537.628906 C 641.390625 538.40625 640.914062 539.078125 640.484375 539.789062 C 640.699219 539.8125 640.960938 539.855469 641.195312 539.898438 C 659.292969 539.722656 677.371094 540.070312 695.445312 540.242188 C 695.445312 539.464844 695.488281 538.6875 695.507812 537.910156 Z M 697.820312 512.117188 C 697.929688 512.007812 698.035156 511.902344 698.164062 511.792969 C 697.429688 501.617188 695.164062 491.617188 694.882812 481.421875 C 672.617188 481.054688 650.460938 479.714844 628.238281 479.261719 C 636.230469 488.332031 641.671875 498.464844 643.722656 510.734375 C 661.777344 510.625 679.765625 511.792969 697.820312 512.117188 Z M 701.621094 381.554688 C 701.621094 380.34375 701.621094 379.089844 701.621094 377.902344 C 699.546875 377.339844 697.886719 377.253906 695.445312 377.472656 C 693.566406 377.621094 691.902344 376.476562 690.972656 374.945312 C 690.519531 374.339844 690.152344 373.605469 690.023438 372.675781 C 685.339844 343.425781 683.738281 313.960938 683.609375 284.386719 C 683.609375 281.859375 685.015625 280.304688 686.785156 279.636719 C 687.648438 278.554688 688.964844 277.886719 690.695312 277.863281 C 693.609375 277.863281 696.480469 277.820312 699.308594 278.035156 C 699.308594 277.777344 699.265625 277.539062 699.265625 277.28125 C 683.136719 272.246094 665.492188 270.023438 647.480469 269.65625 C 647.480469 270.085938 647.480469 270.5625 647.371094 271.015625 C 637.589844 321.714844 637.09375 377.96875 647.371094 428.644531 C 647.417969 428.820312 647.417969 428.992188 647.4375 429.144531 C 665.339844 428.472656 682.960938 425.988281 700.820312 425.339844 C 701.363281 412.726562 701.511719 400.089844 701.578125 387.429688 C 697.992188 387.6875 694.496094 387.191406 691.578125 387.257812 C 690.929688 387.320312 690.242188 387.363281 689.636719 387.472656 C 689.140625 387.6875 688.75 387.644531 688.144531 387.90625 L 686.265625 388.898438 L 684.300781 390.195312 C 681.6875 391.902344 679.160156 393.566406 676.765625 395.121094 C 671.949219 398.253906 667.476562 400.972656 663.546875 403.070312 C 655.816406 407.304688 650.675781 408.96875 650.308594 408.363281 C 649.8125 407.542969 654.390625 404.496094 661.367188 399.460938 C 664.886719 396.914062 669.035156 393.933594 673.632812 390.582031 C 675.988281 388.921875 678.46875 387.148438 681.019531 385.335938 L 682.917969 383.996094 C 683.71875 383.542969 684.496094 383.109375 685.273438 382.65625 C 686.117188 382.265625 687.367188 381.898438 688.425781 381.617188 C 689.460938 381.445312 690.371094 381.382812 691.363281 381.273438 C 695.445312 381.273438 698.707031 381.726562 701.621094 381.554688 Z M 701.859375 340.878906 C 702.183594 325.972656 706.179688 307.046875 702.183594 292.511719 C 701.835938 291.257812 701.511719 290.089844 701.230469 288.925781 C 701.082031 288.925781 700.929688 288.925781 700.800781 288.925781 C 698.664062 288.425781 696.480469 288.382812 694.277344 288.46875 C 694.515625 314.695312 695.898438 340.878906 699.851562 366.84375 C 700.453125 366.863281 701.039062 366.972656 701.644531 367.039062 C 701.644531 358.332031 701.730469 349.605469 701.859375 340.878906 Z M 706.089844 540.285156 C 708.769531 540.308594 711.46875 540.351562 714.167969 540.308594 C 714.082031 538.644531 713.953125 536.980469 713.800781 535.316406 C 711.230469 535.058594 708.703125 534.777344 706.222656 534.605469 C 706.15625 536.484375 706.089844 538.40625 706.089844 540.285156 Z M 715.226562 525.273438 C 715.160156 514.039062 714.945312 502.785156 714.773438 491.59375 C 711.683594 491.617188 708.8125 491.703125 706.371094 491.769531 C 707.429688 500.34375 709.027344 508.855469 709.027344 517.539062 C 709.027344 519.527344 708.101562 520.953125 706.78125 521.773438 C 706.78125 522.550781 706.71875 523.285156 706.71875 524.0625 C 709.203125 524.386719 712.117188 524.820312 715.226562 525.273438 Z M 735.375 540.738281 C 735.222656 539.355469 735.074219 537.929688 734.964844 536.546875 C 729.824219 536.65625 724.449219 536.3125 719.15625 535.8125 C 719.308594 537.328125 719.414062 538.816406 719.480469 540.351562 C 724.726562 540.414062 730.039062 540.675781 735.375 540.738281 Z M 738.140625 359.324219 C 738.226562 357.855469 738.226562 356.257812 737.339844 355.480469 C 734.835938 353.277344 731.789062 351.546875 728.746094 350.167969 C 723.519531 347.789062 718.054688 346.082031 712.503906 344.851562 C 712.460938 345.847656 712.417969 346.839844 712.417969 347.832031 C 712.398438 351.007812 712.398438 354.207031 712.398438 357.359375 C 721.015625 357.359375 729.628906 358.007812 738.140625 359.324219 Z M 755.933594 517.515625 C 765.566406 496.800781 744.726562 492.371094 725.398438 491.660156 C 725.570312 503.261719 725.828125 514.816406 725.851562 526.417969 C 725.851562 526.460938 725.851562 526.527344 725.851562 526.589844 C 738.441406 527.757812 751.464844 527.042969 755.933594 517.515625 Z M 754.960938 486.691406 C 756.992188 485.394531 759.195312 484.421875 761.484375 483.6875 C 751.3125 479.929688 737.730469 479.996094 725.269531 480.597656 C 725.269531 480.835938 725.289062 481.054688 725.289062 481.269531 C 735.460938 481.722656 746.496094 483.082031 754.960938 486.691406 Z M 764.117188 535.640625 C 762.414062 533.589844 760.640625 531.558594 759 529.398438 C 753.859375 533.652344 747.339844 535.578125 740.191406 536.269531 C 740.300781 537.757812 740.429688 539.207031 740.644531 540.695312 C 743.277344 540.632812 745.890625 540.457031 748.527344 540.179688 C 754.898438 539.464844 760.039062 537.972656 764.117188 535.640625 Z M 766.625 446.621094 C 766.992188 443.679688 767.054688 440.742188 766.925781 437.761719 C 747.640625 438.539062 728.484375 436.488281 709.203125 435.234375 C 708.769531 435.496094 708.25 435.625 707.667969 435.730469 C 706.589844 436.121094 705.378906 436.164062 704.234375 435.90625 C 678.601562 436.378906 653.679688 440.980469 627.765625 439.664062 C 604.613281 438.496094 581.550781 436.488281 558.355469 436.660156 C 558.355469 440.09375 558.355469 442.902344 558.355469 446.296875 C 626.664062 446.339844 695.011719 446.574219 766.625 446.621094 Z M 768.113281 427.089844 C 768.15625 416.09375 768.199219 408.425781 766.730469 399.03125 C 765.671875 392.050781 764.746094 384.554688 765.003906 377.363281 C 748.375 370.578125 730.214844 368.007812 712.355469 368.007812 C 712.332031 386.933594 712.246094 405.835938 711.46875 424.78125 C 715.613281 425.058594 719.738281 425.339844 723.886719 425.664062 C 724.230469 397.257812 725.375 376.433594 726.757812 376.414062 C 728.140625 376.414062 729.308594 397.476562 729.628906 426.097656 C 732.976562 426.3125 736.347656 426.550781 739.695312 426.722656 C 740.320312 426.722656 740.925781 426.703125 741.574219 426.660156 C 747.878906 426.335938 754.359375 425.664062 760.707031 426.484375 C 760.597656 415.125 758.417969 405.164062 757.554688 397.820312 C 756.539062 389.785156 756.710938 384.878906 757.335938 384.859375 C 758.007812 384.859375 759 389.480469 761.03125 397.195312 C 762.738281 404.429688 765.824219 414.605469 766.277344 427.15625 C 766.882812 427.15625 767.507812 427.089844 768.113281 427.089844 Z M 766.773438 496.023438 C 769.605469 495.785156 772.453125 495.589844 775.285156 495.527344 C 773.6875 492.089844 771.375 489.390625 768.480469 487.296875 C 765.824219 487.902344 763.0625 488.550781 760.535156 489.671875 C 763.082031 491.421875 765.21875 493.496094 766.773438 496.023438 Z M 776.621094 516.046875 C 773.835938 515.378906 771.03125 514.882812 768.222656 514.320312 C 766.949219 518.921875 765.070312 522.617188 762.78125 525.574219 C 764.464844 528.039062 766.449219 530.285156 768.394531 532.550781 C 772.734375 528.640625 775.347656 523.199219 776.621094 516.046875 Z M 777.441406 508.964844 C 777.617188 505.917969 777.398438 503.214844 776.945312 500.777344 C 774.246094 500.839844 771.589844 500.992188 768.933594 501.164062 C 769.496094 503.539062 769.648438 506.175781 769.300781 509.136719 C 771.957031 509.675781 774.636719 510.128906 777.269531 510.777344 C 777.335938 510.171875 777.398438 509.609375 777.441406 508.964844 Z M 808.21875 484.097656 C 803.335938 481.160156 797.785156 479.324219 791.847656 479.171875 C 786.902344 479.109375 782.023438 479.324219 777.121094 479.5625 C 779.320312 481.332031 781.242188 483.40625 782.84375 485.742188 C 791.308594 485.242188 799.773438 484.964844 808.21875 484.097656 Z M 817.652344 533.589844 C 805.410156 532.875 793.121094 534.066406 780.878906 534.324219 C 778.976562 537.414062 776.664062 540.070312 773.859375 542.339844 C 776.558594 542.101562 779.214844 541.839844 781.914062 541.515625 C 790.53125 540.457031 807.289062 539.679688 817.652344 533.589844 Z M 787.789062 498.789062 C 799.148438 501.445312 810.875 499.542969 822.46875 499.609375 C 820.375 495.503906 817.546875 491.8125 814.21875 488.679688 C 804.738281 489.929688 795.214844 490.34375 785.671875 490.925781 C 786.664062 493.300781 787.378906 495.914062 787.789062 498.789062 Z M 826.574219 514.210938 C 826.378906 511.058594 825.6875 507.96875 824.695312 504.988281 C 812.515625 504.578125 800.203125 506.738281 788.21875 504.363281 C 788.21875 505.851562 788.175781 507.363281 788.089844 508.964844 C 787.894531 511.058594 787.65625 513.046875 787.378906 514.96875 C 800.441406 515.378906 813.617188 516.199219 826.574219 514.210938 Z M 826.183594 522.398438 C 826.335938 521.492188 826.445312 520.519531 826.507812 519.613281 C 813.226562 521.449219 799.773438 520.628906 786.382812 520.238281 C 785.671875 523.371094 784.785156 526.265625 783.640625 528.921875 C 796.902344 528.535156 810.097656 527.367188 823.289062 528.75 C 824.695312 526.957031 825.730469 524.863281 826.183594 522.398438 Z M 791.847656 468.546875 C 816.554688 471.050781 842.101562 493.367188 837.21875 520.910156 C 831.476562 553.117188 786.902344 552.578125 761.570312 553.894531 C 721.402344 555.949219 679.917969 557.199219 640.074219 550.523438 C 637.246094 550.570312 634.4375 550.570312 631.628906 550.632812 C 630.613281 550.675781 629.792969 550.417969 629.082031 550.070312 C 620.183594 554.671875 608.738281 556.269531 598.265625 556.917969 C 559.976562 559.253906 521.96875 562.558594 483.546875 562.0625 C 463.765625 561.800781 443.8125 559.578125 424.097656 559.921875 C 412.996094 560.136719 403.214844 560.375 393.148438 556.207031 C 390.210938 555.429688 387.339844 554.433594 384.597656 553.160156 C 383.667969 552.730469 383.042969 552.125 382.589844 551.453125 C 370.105469 540.457031 370.429688 520.671875 374.816406 505.59375 C 380.949219 484.640625 391.660156 476.472656 412.886719 474.746094 C 446.683594 471.980469 480.222656 472.324219 514.042969 472.023438 C 524.386719 471.9375 537.105469 469.429688 548.574219 470.554688 C 548.398438 470.101562 548.292969 469.648438 548.25 469.148438 C 546.414062 464.960938 544.554688 460.8125 542.160156 456.945312 C 515.640625 456.773438 489.140625 456.945312 462.644531 456.945312 C 459.167969 456.945312 457.460938 454.246094 457.484375 451.542969 C 457.375 451.132812 457.308594 450.660156 457.308594 450.160156 C 457.351562 435.882812 457.589844 421.582031 457.589844 407.304688 C 457.589844 404.34375 459.621094 402.636719 461.84375 402.25 C 462.449219 401.96875 463.097656 401.773438 463.808594 401.6875 C 467.742188 401.296875 471.734375 400.972656 475.710938 400.78125 C 475.753906 400.585938 475.796875 400.457031 475.816406 400.28125 C 479.144531 389.566406 480.289062 377.707031 479.746094 366.519531 C 479.554688 362.113281 483.871094 360.558594 487.089844 361.832031 C 487.199219 361.832031 487.304688 361.789062 487.457031 361.789062 C 487.738281 361.789062 487.976562 361.832031 488.257812 361.875 C 485.191406 352.585938 482.230469 343.253906 480.136719 333.640625 C 478.691406 327.074219 472.621094 314.738281 478.648438 308.667969 C 478.796875 308.539062 479.011719 308.453125 479.144531 308.324219 C 475.40625 293.136719 469.058594 278.769531 467.675781 263.109375 C 467.632812 262.851562 467.675781 262.613281 467.675781 262.398438 C 465.472656 260.90625 463.164062 259.480469 460.742188 258.078125 C 422.863281 236.257812 388.507812 210.679688 352.722656 185.859375 C 352.722656 241.160156 352.722656 308.605469 352.722656 308.605469 C 352.722656 310.265625 352.140625 311.519531 351.234375 312.40625 C 358.058594 328.738281 359.613281 346.839844 342.984375 355.632812 C 363.089844 362.371094 382.222656 380.582031 388.011719 398.792969 C 388.289062 399.785156 388.332031 400.628906 388.140625 401.40625 C 388.679688 403.394531 388.054688 405.488281 385.570312 406.589844 C 358.335938 418.320312 334.539062 457.789062 342.832031 487.835938 C 346.503906 501.054688 360.171875 527.800781 348.230469 539.917969 C 347.300781 540.804688 346.308594 541.300781 345.359375 541.453125 C 343.089844 543.546875 339.074219 543.980469 336.914062 540.589844 C 334.410156 536.699219 331.925781 532.726562 329.464844 528.730469 C 326.914062 529.140625 324.367188 529.421875 321.820312 529.679688 C 321.601562 533.222656 321.28125 536.722656 320.652344 540.242188 C 320.003906 543.484375 315.511719 545.253906 312.8125 543.398438 C 307.566406 539.789062 303.742188 535.101562 300.484375 530.003906 C 297.71875 530.347656 294.933594 530.609375 292.148438 530.695312 C 292.6875 533.761719 292.859375 536.851562 292.472656 540.003906 C 291.929688 544.347656 286.964844 547.371094 283.378906 543.765625 C 279.730469 540.089844 277.007812 535.878906 274.699219 531.40625 C 269.773438 531.839844 264.851562 532.273438 259.925781 532.726562 C 260.597656 534.605469 261.417969 536.355469 262.539062 537.738281 C 266.902344 542.941406 259.429688 550.480469 255.023438 545.253906 C 252.042969 541.691406 250.941406 537.910156 249.453125 533.761719 C 249.324219 533.761719 249.171875 533.785156 249.042969 533.785156 C 247.445312 533.957031 246.277344 533.503906 245.414062 532.726562 C 243.859375 532.960938 242.304688 533.265625 240.707031 533.460938 C 241.246094 535.597656 241.828125 537.695312 242.691406 539.679688 C 243.75 542.058594 243.535156 544.714844 241.546875 546.378906 C 240.878906 547.199219 239.992188 547.804688 238.933594 548.085938 C 236.019531 548.796875 233.105469 549.402344 230.144531 549.464844 C 228.9375 549.464844 227.792969 549.035156 226.90625 548.320312 C 225.804688 548.019531 224.789062 547.261719 224.035156 545.925781 C 206.28125 513.824219 189.199219 479.84375 180.085938 444.113281 C 172.527344 414.496094 167.949219 376.628906 197.019531 357.1875 C 197.945312 356.582031 198.875 356.34375 199.761719 356.34375 C 200.257812 356.128906 200.820312 355.933594 201.46875 355.867188 C 223.515625 354.097656 246.34375 352.695312 268.566406 354.074219 C 266.125 346.558594 264.980469 338.71875 263.984375 330.765625 C 263.683594 328.238281 263.296875 325.734375 262.929688 323.207031 C 262.863281 323.207031 262.820312 323.25 262.753906 323.207031 C 254.527344 322.859375 243.578125 321.304688 239.066406 313.203125 C 235.738281 307.265625 236.6875 300.050781 240.210938 294.347656 C 244.183594 287.824219 252.085938 281.578125 259.539062 281.363281 C 258.933594 276.761719 258.285156 272.183594 257.335938 267.6875 C 256.125 265.097656 257.117188 261.230469 260.230469 259.871094 C 255.457031 232.242188 251.9375 204.308594 247.789062 176.570312 C 243.535156 148.230469 241.65625 117.878906 234.140625 90.140625 C 233.621094 88.199219 234.140625 86.597656 235.175781 85.433594 C 228.007812 58.882812 227.46875 34.257812 248.824219 14.125 C 258.71875 4.792969 276.640625 1.183594 289.339844 7.425781 C 295.753906 7.621094 301.109375 11.144531 302.363281 18.984375 C 317.671875 29.289062 332.53125 40.371094 348.1875 50.222656 C 348.621094 49.550781 349.160156 49.011719 349.765625 48.621094 C 350.953125 46.074219 353.976562 44.257812 357.191406 46.007812 C 373.042969 54.648438 390.019531 61.21875 405.589844 70.398438 C 418.285156 77.914062 429.582031 87.464844 442.710938 94.332031 C 443.640625 94.828125 444.265625 95.476562 444.699219 96.148438 C 445.972656 97.3125 446.683594 99.0625 446.039062 101.222656 C 445.800781 102.109375 445.539062 102.996094 445.304688 103.835938 C 457.308594 108.699219 468.019531 116.433594 479.035156 123.128906 C 480.070312 123.777344 480.742188 124.597656 481.128906 125.441406 C 482.125 126.390625 482.769531 127.664062 482.554688 129.089844 C 482.167969 132.179688 482.125 135.269531 482.125 138.378906 C 482.125 138.445312 482.101562 138.53125 482.101562 138.640625 C 492.835938 143.089844 503.375 147.882812 513.480469 153.285156 C 552.933594 174.410156 566.972656 224.484375 581.742188 264.101562 C 616.988281 258.703125 655.816406 255.917969 690.066406 263.714844 C 690.929688 263.390625 692.011719 263.28125 693.132812 263.5625 C 697.648438 264.664062 701.921875 265.59375 706.285156 267.214844 C 707.820312 267.796875 708.855469 268.703125 709.480469 269.871094 C 712.136719 272.117188 711.859375 276.308594 709.699219 278.359375 C 709.804688 287.78125 714.125 297.867188 713.714844 307.546875 C 713.304688 316.378906 712.957031 325.195312 712.742188 334.03125 C 722.007812 335.800781 731.746094 338.738281 739.609375 343.988281 C 746.734375 348.742188 748.613281 352.929688 748.613281 361.292969 C 756.777344 363.148438 764.832031 365.65625 772.5625 369.023438 C 773.449219 369.390625 774.054688 369.890625 774.507812 370.449219 C 775.433594 371.378906 775.953125 372.652344 775.78125 374.339844 C 774.832031 384.773438 777.335938 395.054688 778.265625 405.335938 C 779.085938 414.128906 778.761719 422.078125 778.761719 432.730469 C 778.761719 433.335938 778.414062 433.851562 777.875 434.242188 C 778.414062 440.484375 777.941406 446.621094 776.773438 452.753906 C 776.492188 454.394531 775.628906 455.453125 774.570312 456.015625 C 773.6875 456.773438 772.5625 457.269531 771.074219 457.269531 C 739.824219 457.269531 696.71875 457.183594 657.21875 457.160156 C 657.199219 457.378906 657.199219 457.550781 657.113281 457.789062 C 656.226562 461.199219 654.929688 464.484375 653.398438 467.679688 C 653.722656 467.660156 654.046875 467.574219 654.347656 467.574219 C 679.875 467.679688 705.335938 468.738281 730.820312 469.429688 C 750.792969 469.929688 772.085938 466.558594 791.847656 468.546875 " fill-opacity="1" fill-rule="nonzero"/><path fill="#000000" d="M 746.433594 505.746094 C 748.332031 508.574219 748.808594 514.816406 745.070312 516.523438 C 741.574219 518.121094 737.382812 518.53125 734.359375 515.59375 C 731.855469 513.175781 731.316406 509.632812 732.242188 506.371094 C 732.914062 504.101562 734.941406 502.589844 737.210938 502.503906 C 740.710938 501.617188 744.335938 502.65625 746.433594 505.746094 " fill-opacity="1" fill-rule="nonzero"/><path fill="#000000" d="M 672.058594 370.882812 C 671.410156 341.980469 668.6875 313.917969 670.132812 284.882812 C 667.003906 284.34375 663.894531 283.890625 660.761719 283.632812 C 655.167969 315.625 649.597656 348.222656 659.574219 379.695312 C 664.042969 377.902344 668.386719 374.058594 672.058594 370.882812 Z M 682.683594 370.34375 C 683.914062 372.179688 684 374.597656 681.753906 376.476562 C 674.28125 382.761719 665.988281 390.410156 655.839844 391.339844 C 652.664062 391.664062 650.980469 389.460938 650.785156 386.976562 C 650.785156 386.933594 650.742188 386.910156 650.699219 386.867188 C 637.804688 351.332031 644.714844 314.070312 651.023438 277.929688 C 651.347656 275.984375 652.46875 274.839844 653.851562 274.34375 C 654.714844 273.414062 655.945312 272.832031 657.609375 272.851562 C 663.742188 272.9375 669.8125 274.105469 675.878906 275.097656 C 676.269531 275.164062 676.65625 275.316406 677.003906 275.488281 C 679.25 275.875 681.148438 277.539062 680.953125 280.519531 C 678.988281 310.980469 681.96875 340.164062 682.683594 370.34375 " fill-opacity="1" fill-rule="nonzero"/><path fill="#000000" d="M 613.683594 354.746094 C 610.703125 331.4375 613.898438 309.316406 620.183594 286.765625 C 619.082031 290.761719 579.910156 290.457031 575.09375 294.84375 C 569.628906 299.8125 570.082031 314.566406 568.808594 321.414062 C 566.714844 332.648438 566.820312 343.683594 566.886719 354.984375 C 582.5 354.917969 598.09375 354.765625 613.683594 354.746094 Z M 627.203125 276.394531 C 630.507812 276.761719 633.402344 279.527344 632.300781 283.136719 C 624.785156 308.0625 620.355469 332.648438 624.933594 358.613281 C 625.386719 361.160156 624.15625 363.171875 622.410156 364.273438 C 621.609375 364.921875 620.53125 365.351562 619.234375 365.351562 C 600.121094 365.375 581.007812 365.632812 561.898438 365.632812 C 558.570312 365.632812 556.867188 363.105469 556.757812 360.511719 C 556.476562 359.886719 556.304688 359.132812 556.304688 358.246094 C 556.152344 339.320312 557.253906 319.039062 562.179688 300.699219 C 564.726562 291.128906 567.144531 284.839844 577.035156 282.53125 C 591.957031 278.988281 611.804688 274.667969 627.203125 276.394531 " fill-opacity="1" fill-rule="nonzero"/><path fill="#000000" d="M 616.46875 385.441406 C 600.359375 385.484375 584.269531 385.484375 568.183594 384.707031 C 568.3125 393.652344 568.980469 402.355469 571.464844 411.019531 C 586.882812 411.515625 602.238281 410.671875 617.59375 412.121094 C 615.648438 403.457031 616.210938 394.492188 616.46875 385.441406 Z M 629.707031 415.554688 C 631.996094 420.417969 626.8125 424.78125 623.054688 423.398438 C 622.992188 423.355469 622.90625 423.398438 622.796875 423.355469 C 604.398438 420.523438 585.71875 422.445312 567.210938 421.472656 C 564.207031 421.34375 562.546875 419.183594 562.15625 416.875 C 562.15625 416.808594 562.113281 416.765625 562.070312 416.699219 C 557.859375 404.324219 557.46875 391.578125 557.46875 378.636719 C 557.46875 374.210938 561.855469 372.652344 565.027344 373.949219 C 583.839844 374.988281 602.691406 374.8125 621.566406 374.8125 C 624.566406 374.8125 626.273438 376.824219 626.640625 379.132812 C 626.988281 379.847656 627.203125 380.625 627.203125 381.574219 C 627.050781 392.722656 624.785156 405.121094 629.707031 415.554688 " fill-opacity="1" fill-rule="nonzero"/><path fill="#000000" d="M 563.496094 514.925781 C 564.121094 517.472656 563 519.460938 561.054688 520.953125 C 559.976562 521.730469 558.875 521.988281 557.707031 522.097656 C 555.914062 522.507812 553.820312 522.011719 552.546875 520.714844 C 550.839844 519.007812 550.667969 516.695312 551.554688 514.753906 C 551.617188 514.492188 551.617188 514.253906 551.683594 514.039062 C 551.898438 512.765625 552.246094 511.707031 553.433594 510.519531 C 555.441406 508.464844 558.917969 508.464844 560.949219 510.519531 C 562.179688 511.792969 563.019531 513.175781 563.496094 514.925781 " fill-opacity="1" fill-rule="nonzero"/><path fill="#000000" d="M 528.574219 195.085938 L 530.671875 200.832031 L 524.753906 198.628906 C 523.003906 198 520.78125 198.128906 518.621094 198.910156 C 516.480469 199.601562 514.324219 201.371094 513.089844 202.882812 C 511.667969 204.589844 510.910156 206.964844 510.890625 209.601562 C 510.78125 212.214844 511.0625 215.046875 511.621094 217.898438 C 512.226562 221.179688 513.089844 224.441406 513.957031 227.746094 L 516.09375 235.871094 L 509.421875 230.964844 C 496.851562 221.828125 485.039062 213.144531 474.414062 205.195312 C 469.058594 201.21875 464.089844 197.394531 459.449219 193.765625 C 454.828125 190.09375 450.398438 187.136719 446.402344 184.132812 C 438.347656 178.320312 431.871094 173.136719 427.960938 169.226562 C 424.160156 165.230469 422.175781 162.875 422.453125 162.59375 C 422.714844 162.316406 425.199219 164.128906 429.496094 167.628906 C 433.878906 171.042969 440.292969 175.363281 448.695312 180.761719 C 452.816406 183.527344 457.570312 186.445312 462.277344 189.898438 C 467.027344 193.355469 472.125 197.007812 477.523438 200.832031 C 486.421875 207.226562 496.097656 214.136719 506.265625 221.394531 C 506.09375 220.574219 505.878906 219.796875 505.75 219 C 505.144531 215.867188 504.777344 212.648438 504.929688 209.277344 C 504.992188 205.972656 505.941406 202.320312 508.253906 199.492188 C 510.671875 196.46875 513.328125 194.589844 516.589844 193.464844 C 518.230469 192.882812 519.957031 192.492188 521.773438 192.472656 C 520.457031 188.019531 519.398438 183.875 517.367188 180.613281 L 516.332031 179.011719 L 515.144531 177.566406 C 514.429688 176.550781 513.371094 175.792969 512.488281 174.953125 L 511.945312 174.453125 L 511.105469 173.871094 L 509.421875 172.75 C 508.339844 171.992188 507.238281 171.257812 506.136719 170.546875 C 497.757812 165.554688 488.90625 162.53125 481.820312 160.109375 C 474.609375 157.714844 468.800781 155.789062 464.890625 154.277344 C 461.046875 152.703125 458.972656 151.707031 459.082031 151.40625 C 459.1875 151.082031 461.457031 151.46875 465.472656 152.421875 C 469.554688 153.394531 475.429688 154.730469 482.835938 156.675781 C 490.285156 158.730469 499.140625 161.105469 508.816406 166.441406 C 509.917969 167.152344 511.019531 167.824219 512.164062 168.535156 L 513.867188 169.617188 L 514.753906 170.15625 C 515.316406 170.546875 515.378906 170.695312 515.746094 170.933594 C 516.871094 171.96875 518.125 172.8125 519.074219 174.066406 L 520.628906 175.835938 L 521.945312 177.824219 C 525.445312 183.3125 526.523438 189.488281 528.574219 195.085938 " fill-opacity="1" fill-rule="nonzero"/><path fill="#000000" d="M 363.390625 396.976562 L 366.089844 400.132812 L 362.09375 400.953125 C 357.019531 401.96875 352.875 404.042969 349.828125 406.828125 C 346.699219 409.570312 344.710938 412.898438 342.917969 415.449219 C 339.441406 420.738281 337.195312 423.679688 336.785156 423.417969 C 336.351562 423.136719 337.734375 419.855469 340.5 414.066406 C 342.03125 411.234375 343.695312 407.542969 347.066406 404.0625 C 349.570312 401.339844 353.132812 399.03125 357.234375 397.429688 C 353.003906 392.9375 348.339844 388.1875 342.660156 384.730469 C 339.289062 382.65625 335.25 380.96875 331.148438 380.105469 C 327.089844 379.285156 322.8125 379.175781 319.789062 381.382812 C 315.835938 383.929688 313.914062 389.417969 313.03125 394.644531 C 312.144531 399.957031 312.078125 405.335938 312.253906 410.480469 C 312.75 420.761719 314.152344 430.09375 315.535156 437.890625 C 318.300781 453.511719 320.761719 463.035156 319.941406 463.296875 C 319.183594 463.578125 315.296875 454.394531 311.386719 438.777344 C 309.488281 430.957031 307.566406 421.5625 306.746094 410.78125 C 306.398438 405.425781 306.3125 399.679688 307.242188 393.652344 C 307.675781 390.671875 308.496094 387.582031 309.832031 384.535156 C 311.152344 381.488281 313.355469 378.421875 316.507812 376.371094 C 317.671875 375.441406 319.121094 375.03125 320.4375 374.425781 C 321.820312 374.144531 323.246094 373.710938 324.582031 373.667969 C 327.347656 373.476562 329.980469 373.777344 332.378906 374.339844 C 337.28125 375.417969 341.644531 377.339844 345.574219 379.847656 C 353.523438 384.988281 358.726562 391.492188 363.390625 396.976562 " fill-opacity="1" fill-rule="nonzero"/><path fill="#000000" d="M 327.089844 144.234375 C 329.183594 146.761719 330.285156 148.339844 329.980469 148.75 C 329.679688 149.09375 327.996094 148.164062 325.253906 146.070312 C 323.9375 145.011719 322.378906 143.605469 320.652344 142.074219 C 320.070312 141.578125 319.488281 141.035156 318.839844 140.476562 C 319.445312 148.445312 319.832031 157.820312 321.367188 167.929688 C 321.753906 171.472656 322.144531 174.953125 322.53125 178.277344 C 322.984375 181.691406 323.417969 184.910156 323.804688 188.019531 C 324.582031 194.199219 325.230469 199.792969 325.578125 204.523438 C 326.3125 213.945312 326.355469 219.839844 325.535156 219.949219 C 324.734375 220.058594 323.203125 214.375 321.367188 205.085938 C 320.5 200.441406 319.488281 194.910156 318.34375 188.777344 C 317.84375 185.6875 317.285156 182.46875 316.699219 179.121094 C 316.246094 175.730469 315.835938 172.207031 315.40625 168.601562 C 313.527344 156.179688 313.871094 144.449219 313.765625 135.398438 L 313.742188 130.128906 L 317.414062 133.519531 C 318.601562 134.597656 319.679688 135.613281 320.761719 136.566406 C 321.753906 137.558594 322.53125 138.550781 323.308594 139.480469 C 324.90625 141.316406 326.074219 142.894531 327.089844 144.234375 " fill-opacity="1" fill-rule="nonzero"/></svg>