<svg xmlns="http://www.w3.org/2000/svg" xmlns:xlink="http://www.w3.org/1999/xlink" width="1366" zoomAndPan="magnify" viewBox="0 0 1024.5 576" height="768" preserveAspectRatio="xMidYMid meet" version="1.0"><defs><clipPath id="446c915c6d"><path d="M 384.308594 509.835938 L 392 509.835938 L 392 518.082031 L 384.308594 518.082031 Z M 384.308594 509.835938 " clip-rule="nonzero"/></clipPath><clipPath id="6982f3c222"><path d="M 385 509.835938 L 392.554688 509.835938 L 392.554688 518.082031 L 385 518.082031 Z M 385 509.835938 " clip-rule="nonzero"/></clipPath><clipPath id="bdc2c17727"><path d="M 216 16.746094 L 807 16.746094 L 807 477 L 216 477 Z M 216 16.746094 " clip-rule="nonzero"/></clipPath><clipPath id="588c11af8b"><path d="M 119.40625 477 L 904 477 L 904 489 L 119.40625 489 Z M 119.40625 477 " clip-rule="nonzero"/></clipPath><clipPath id="91a9cc4d6d"><path d="M 434 508 L 590 508 L 590 518.253906 L 434 518.253906 Z M 434 508 " clip-rule="nonzero"/></clipPath></defs><g clip-path="url(#446c915c6d)"><path fill="#ffffff" d="M 390.003906 512.703125 C 390.886719 512.703125 391.324219 513.332031 391.324219 514.058594 C 391.324219 514.765625 390.886719 515.402344 390.003906 515.402344 C 389.488281 515.402344 389.121094 515.1875 388.90625 514.859375 L 388.90625 515.226562 C 389.164062 515.472656 389.53125 515.628906 390.003906 515.628906 C 390.441406 515.628906 390.800781 515.492188 391.054688 515.269531 L 391.441406 515.640625 L 391.589844 515.488281 L 391.199219 515.109375 C 391.4375 514.816406 391.558594 514.429688 391.558594 514.058594 C 391.5625 513.214844 391.042969 512.476562 390.003906 512.476562 C 388.976562 512.476562 388.457031 513.210938 388.449219 514.03125 C 388.449219 514.039062 388.449219 514.050781 388.449219 514.058594 L 388.449219 518.058594 C 386.277344 518.015625 384.527344 516.238281 384.527344 514.058594 C 384.527344 512.226562 385.765625 510.679688 387.449219 510.207031 L 387.449219 509.976562 C 385.644531 510.457031 384.308594 512.105469 384.308594 514.058594 C 384.308594 516.386719 386.203125 518.28125 388.53125 518.28125 C 388.578125 518.28125 388.628906 518.28125 388.675781 518.277344 L 388.675781 514.058594 L 388.679688 514.058594 C 388.679688 514.050781 388.679688 514.039062 388.679688 514.03125 C 388.679688 513.277344 389.222656 512.703125 390.003906 512.703125 Z M 390.003906 512.703125 " fill-opacity="1" fill-rule="nonzero"/></g><g clip-path="url(#6982f3c222)"><path fill="#ffffff" d="M 388.53125 509.835938 C 388.234375 509.835938 387.949219 509.867188 387.667969 509.925781 L 387.667969 513.980469 L 385.707031 513.980469 L 385.707031 512.515625 L 385.46875 512.515625 L 385.46875 515.597656 L 385.707031 515.597656 L 385.707031 514.199219 L 387.667969 514.199219 L 387.667969 515.597656 L 387.90625 515.597656 L 387.90625 510.105469 C 388.109375 510.074219 388.316406 510.054688 388.53125 510.054688 C 390.738281 510.054688 392.53125 511.851562 392.53125 514.058594 C 392.53125 516.136719 390.9375 517.851562 388.90625 518.042969 L 388.90625 518.261719 C 391.058594 518.070312 392.75 516.257812 392.75 514.058594 C 392.753906 511.730469 390.859375 509.835938 388.53125 509.835938 Z M 388.53125 509.835938 " fill-opacity="1" fill-rule="nonzero"/></g><path fill="#1a1a1a" d="M 436.195312 187.003906 C 437.738281 187.003906 438.507812 186.230469 438.507812 185.074219 C 438.507812 183.914062 437.738281 183.144531 436.578125 183.144531 C 436.578125 183.144531 436.195312 183.144531 436.195312 183.144531 C 436.964844 183.144531 437.738281 183.914062 437.738281 185.074219 C 437.351562 186.230469 436.964844 187.003906 436.195312 187.003906 Z M 436.195312 187.003906 " fill-opacity="1" fill-rule="nonzero"/><path fill="#1a1a1a" d="M 586.710938 400.5 C 586.710938 400.5 587.097656 400.5 587.097656 400.5 C 588.640625 400.5 589.796875 399.34375 589.796875 397.796875 C 589.796875 396.253906 588.640625 395.097656 587.097656 395.097656 C 587.097656 395.097656 586.710938 395.097656 586.710938 395.097656 C 587.867188 395.480469 588.640625 396.253906 588.640625 397.796875 C 589.027344 398.957031 588.253906 400.113281 586.710938 400.5 Z M 586.710938 400.5 " fill-opacity="1" fill-rule="nonzero"/><path fill="#1a1a1a" d="M 274.484375 90.101562 C 274.484375 90.101562 274.871094 90.101562 274.871094 90.101562 C 276.414062 90.101562 277.570312 88.941406 277.570312 87.398438 C 277.570312 85.855469 276.414062 84.695312 274.871094 84.695312 C 274.871094 84.695312 274.484375 84.695312 274.484375 84.695312 C 275.640625 85.082031 276.414062 85.855469 276.414062 87.398438 C 276.414062 88.941406 275.640625 89.714844 274.484375 90.101562 Z M 274.484375 90.101562 " fill-opacity="1" fill-rule="nonzero"/><path fill="#1a1a1a" d="M 310.375 105.542969 C 310.375 105.542969 309.992188 105.542969 309.992188 105.542969 C 311.148438 105.929688 311.921875 106.703125 311.921875 108.246094 C 311.921875 109.789062 311.148438 110.5625 309.992188 110.949219 C 309.992188 110.949219 310.375 110.949219 310.375 110.949219 C 311.921875 110.949219 313.078125 109.789062 313.078125 108.246094 C 313.078125 106.703125 311.921875 105.542969 310.375 105.542969 Z M 310.375 105.542969 " fill-opacity="1" fill-rule="nonzero"/><path fill="#1a1a1a" d="M 457.804688 432.542969 C 457.421875 432.542969 457.421875 432.542969 457.035156 432.542969 C 458.964844 432.929688 460.507812 434.476562 460.507812 436.792969 C 460.507812 438.722656 458.964844 440.652344 457.035156 441.039062 C 457.421875 441.039062 457.421875 441.039062 457.804688 441.039062 C 460.121094 441.039062 462.050781 439.109375 462.050781 436.792969 C 462.050781 434.476562 460.121094 432.542969 457.804688 432.542969 Z M 457.804688 432.542969 " fill-opacity="1" fill-rule="nonzero"/><path fill="#1a1a1a" d="M 426.160156 168.472656 C 425.773438 168.472656 425.773438 168.472656 425.386719 168.472656 C 427.316406 168.859375 428.859375 170.402344 428.859375 172.71875 C 428.859375 174.648438 427.316406 176.582031 425.386719 176.964844 C 425.773438 176.964844 425.773438 176.964844 426.160156 176.964844 C 428.476562 176.964844 430.40625 175.035156 430.40625 172.71875 C 430.40625 170.402344 428.476562 168.472656 426.160156 168.472656 Z M 426.160156 168.472656 " fill-opacity="1" fill-rule="nonzero"/><path fill="#1a1a1a" d="M 551.976562 427.527344 C 551.976562 427.527344 551.589844 427.527344 551.589844 427.527344 C 552.75 427.910156 553.519531 428.683594 553.519531 430.226562 C 553.519531 431.386719 552.75 432.542969 551.589844 432.929688 C 551.589844 432.929688 551.976562 432.929688 551.976562 432.929688 C 553.519531 432.929688 554.679688 431.773438 554.679688 430.226562 C 554.679688 428.683594 553.519531 427.527344 551.976562 427.527344 Z M 551.976562 427.527344 " fill-opacity="1" fill-rule="nonzero"/><path fill="#1a1a1a" d="M 425 200.515625 C 425.773438 200.515625 426.546875 201.289062 426.546875 202.445312 C 426.546875 203.21875 425.773438 203.992188 425 204.378906 C 425 204.378906 425.386719 204.378906 425.386719 204.378906 C 426.546875 204.378906 427.316406 203.605469 427.316406 202.445312 C 427.316406 201.289062 426.160156 200.515625 425 200.515625 Z M 425 200.515625 " fill-opacity="1" fill-rule="nonzero"/><g clip-path="url(#bdc2c17727)"><path fill="#1a1a1a" d="M 234.730469 435.632812 C 234.730469 434.089844 233.574219 432.929688 232.03125 432.929688 L 231.257812 432.929688 L 231.257812 419.417969 C 231.257812 417.875 230.101562 416.714844 228.558594 416.714844 L 226.628906 416.714844 L 226.628906 236.421875 L 228.941406 236.421875 L 228.941406 234.105469 L 231.257812 234.105469 L 231.257812 220.976562 L 227.785156 220.976562 L 227.785156 199.359375 L 226.628906 199.359375 L 226.628906 197.8125 L 234.730469 199.359375 L 283.359375 102.453125 L 413.039062 166.929688 L 372.128906 441.039062 L 361.707031 441.039062 L 352.832031 470.378906 L 346.65625 470.378906 L 346.65625 476.941406 L 806.699219 476.941406 L 806.699219 464.589844 L 797.050781 464.589844 L 788.171875 439.492188 L 769.648438 439.492188 L 769.648438 422.121094 L 761.15625 422.121094 L 761.15625 383.515625 C 761.15625 374.25 753.824219 366.914062 744.5625 366.914062 C 735.296875 366.914062 727.964844 374.25 727.964844 383.515625 L 727.964844 394.710938 L 718.316406 394.710938 L 718.316406 320.96875 C 718.316406 314.019531 694.773438 308.230469 665.828125 308.230469 C 636.882812 308.230469 613.339844 314.019531 613.339844 320.96875 L 613.339844 394.710938 L 600.21875 394.710938 L 600.21875 344.90625 L 604.851562 344.90625 L 604.851562 332.550781 C 604.851562 319.425781 594.042969 308.617188 580.921875 308.617188 L 563.554688 308.617188 L 550.433594 270.007812 C 550.433594 269.625 550.433594 268.851562 550.433594 268.464844 C 550.433594 265.375 548.886719 262.289062 546.957031 260.355469 L 547.730469 260.355469 L 547.730469 251.089844 L 573.589844 224.453125 L 573.589844 207.464844 L 516.46875 178.511719 L 516.46875 166.15625 L 507.59375 161.523438 L 501.804688 163.839844 L 491.382812 158.820312 L 483.664062 161.523438 L 402.617188 120.214844 L 402.617188 110.5625 L 393.355469 106.703125 L 383.320312 110.5625 L 300.34375 68.480469 L 323.113281 23.308594 L 309.992188 16.746094 C 225.46875 43.386719 224.699219 197.042969 224.699219 197.042969 L 225.082031 197.042969 L 225.082031 198.972656 L 223.925781 198.972656 L 223.925781 220.59375 L 220.453125 220.59375 L 220.453125 233.71875 L 222.769531 233.71875 L 222.769531 236.035156 L 225.082031 236.035156 L 225.082031 416.714844 L 223.152344 416.714844 C 221.609375 416.714844 220.453125 417.875 220.453125 419.417969 L 220.453125 432.929688 L 219.679688 432.929688 C 218.136719 432.929688 216.980469 434.089844 216.980469 435.632812 L 216.980469 476.941406 L 234.730469 476.941406 Z M 369.039062 456.480469 C 367.496094 456.480469 366.339844 455.324219 366.339844 453.777344 C 366.339844 452.234375 367.496094 451.074219 369.039062 451.074219 C 370.582031 451.074219 371.742188 452.234375 371.742188 453.777344 C 371.742188 455.324219 370.582031 456.480469 369.039062 456.480469 Z M 782.769531 451.460938 C 785.085938 451.460938 786.628906 453.390625 786.628906 455.324219 C 786.628906 457.640625 784.699219 459.183594 782.769531 459.183594 C 780.453125 459.183594 778.910156 457.253906 778.910156 455.324219 C 778.910156 453.390625 780.839844 451.460938 782.769531 451.460938 Z M 760 428.683594 C 762.3125 428.683594 763.859375 430.613281 763.859375 432.542969 C 763.859375 434.859375 761.929688 436.40625 760 436.40625 C 757.683594 436.40625 756.140625 434.476562 756.140625 432.542969 C 756.140625 430.613281 757.683594 428.683594 760 428.683594 Z M 617.585938 322.128906 C 617.585938 322.128906 643.445312 307.84375 678.179688 314.40625 C 678.179688 314.40625 659.269531 314.792969 647.691406 319.8125 C 647.691406 319.8125 666.988281 319.039062 676.636719 322.515625 C 676.636719 322.515625 644.988281 331.78125 636.113281 338.34375 C 636.113281 338.34375 670.074219 336.027344 681.652344 341.433594 C 681.652344 341.433594 656.179688 343.75 650.390625 345.679688 C 650.390625 345.679688 672.777344 349.925781 681.652344 356.101562 C 681.652344 356.101562 663.128906 358.804688 654.25 363.824219 C 654.25 363.824219 676.25 368.84375 681.652344 372.316406 C 681.652344 372.316406 661.582031 372.703125 656.566406 375.019531 C 656.566406 375.019531 687.828125 380.039062 692.074219 386.601562 C 696.320312 393.164062 692.074219 387.761719 692.074219 387.761719 C 692.074219 387.761719 663.511719 388.917969 655.792969 393.550781 C 655.792969 393.550781 679.335938 396.253906 685.125 400.113281 C 685.125 400.113281 658.496094 397.027344 650.777344 399.34375 C 650.777344 399.34375 670.460938 400.113281 674.707031 404.363281 C 674.707031 404.363281 638.8125 397.027344 617.585938 408.222656 Z M 587.484375 353.398438 C 589.796875 353.398438 591.34375 355.332031 591.34375 357.261719 C 591.34375 359.578125 589.414062 361.121094 587.484375 361.121094 C 585.167969 361.121094 583.625 359.191406 583.625 357.261719 C 583.625 355.332031 585.167969 353.398438 587.484375 353.398438 Z M 587.484375 366.914062 C 589.796875 366.914062 591.34375 368.84375 591.34375 370.773438 C 591.34375 373.089844 589.414062 374.632812 587.484375 374.632812 C 585.167969 374.632812 583.625 372.703125 583.625 370.773438 C 583.625 368.84375 585.167969 366.914062 587.484375 366.914062 Z M 587.484375 380.425781 C 589.796875 380.425781 591.34375 382.355469 591.34375 384.285156 C 591.34375 386.601562 589.414062 388.148438 587.484375 388.148438 C 585.167969 388.148438 583.625 386.214844 583.625 384.285156 C 583.625 381.96875 585.167969 380.425781 587.484375 380.425781 Z M 587.484375 393.550781 C 589.796875 393.550781 591.34375 395.480469 591.34375 397.414062 C 591.34375 399.730469 589.414062 401.273438 587.484375 401.273438 C 585.167969 401.273438 583.625 399.34375 583.625 397.414062 C 583.625 395.480469 585.167969 393.550781 587.484375 393.550781 Z M 310.375 112.105469 C 308.0625 112.105469 306.515625 110.175781 306.515625 108.246094 C 306.515625 105.929688 308.445312 104.386719 310.375 104.386719 C 312.691406 104.386719 314.234375 106.316406 314.234375 108.246094 C 314.621094 110.175781 312.691406 112.105469 310.375 112.105469 Z M 414.195312 167.699219 L 416.511719 168.859375 L 416.511719 181.214844 L 419.984375 182.757812 L 418.441406 192.796875 L 410.722656 192.796875 Z M 410.335938 193.566406 L 418.054688 193.566406 L 416.125 205.148438 L 408.40625 205.148438 Z M 408.40625 206.308594 L 416.125 206.308594 L 414.195312 217.890625 L 406.476562 217.890625 Z M 406.476562 218.660156 L 414.195312 218.660156 L 412.265625 230.242188 L 404.546875 230.242188 Z M 404.546875 231.402344 L 412.265625 231.402344 L 410.335938 242.984375 L 402.617188 242.984375 Z M 403.003906 243.757812 L 410.722656 243.757812 L 408.792969 255.339844 L 401.074219 255.339844 Z M 401.074219 256.109375 L 408.792969 256.109375 L 406.863281 267.691406 L 399.144531 267.691406 Z M 399.144531 268.851562 L 406.863281 268.851562 L 404.933594 280.433594 L 397.597656 280.433594 Z M 397.214844 281.207031 L 404.546875 281.207031 L 402.617188 292.789062 L 395.285156 292.789062 Z M 395.285156 293.945312 L 402.617188 293.945312 L 400.6875 305.527344 L 393.738281 305.527344 Z M 393.355469 306.300781 L 400.6875 306.300781 L 398.757812 317.882812 L 391.425781 317.882812 Z M 391.808594 319.039062 L 399.144531 319.039062 L 397.214844 330.621094 L 389.878906 330.621094 Z M 389.878906 331.394531 L 397.214844 331.394531 L 395.285156 342.976562 L 387.949219 342.976562 Z M 380.230469 441.039062 L 373.285156 441.039062 L 374.828125 431.773438 L 381.777344 431.773438 Z M 381.777344 430.613281 L 374.828125 430.613281 L 376.371094 419.03125 L 383.320312 419.03125 Z M 383.707031 418.261719 L 376.757812 418.261719 L 378.300781 406.679688 L 385.25 406.679688 Z M 385.636719 405.519531 L 378.6875 405.519531 L 380.230469 393.9375 L 387.179688 393.9375 Z M 387.566406 393.164062 L 380.617188 393.164062 L 382.160156 381.582031 L 389.109375 381.582031 Z M 389.496094 380.425781 L 382.546875 380.425781 L 384.089844 368.84375 L 391.039062 368.84375 Z M 391.425781 368.070312 L 384.476562 368.070312 L 386.019531 356.488281 L 393.355469 356.488281 Z M 386.40625 355.332031 L 387.949219 343.75 L 395.285156 343.75 L 393.355469 355.332031 Z M 394.511719 441.039062 L 423.457031 204.761719 L 404.546875 441.039062 Z M 426.160156 178.898438 C 422.6875 178.898438 419.597656 176.195312 419.597656 172.332031 C 419.597656 168.859375 422.300781 165.769531 426.160156 165.769531 C 429.632812 165.769531 432.71875 168.472656 432.71875 172.332031 C 432.71875 175.808594 429.632812 178.898438 426.160156 178.898438 Z M 428.089844 202.0625 C 428.089844 203.605469 426.929688 204.761719 425.386719 204.761719 C 423.84375 204.761719 422.6875 203.605469 422.6875 202.0625 C 422.6875 200.515625 423.84375 199.359375 425.386719 199.359375 C 426.929688 199.359375 428.089844 200.515625 428.089844 202.0625 Z M 445.457031 440.652344 L 419.984375 440.652344 L 423.070312 403.976562 L 440.824219 403.976562 L 430.40625 409.378906 L 439.667969 412.46875 L 432.335938 414.785156 L 451.246094 417.101562 L 432.335938 419.03125 L 444.683594 420.960938 L 433.878906 423.277344 L 443.140625 427.140625 L 430.019531 428.296875 L 445.457031 431.386719 L 431.949219 434.476562 L 447.386719 437.175781 L 435.421875 437.5625 Z M 457.804688 442.96875 C 454.332031 442.96875 451.246094 440.265625 451.246094 436.40625 C 451.246094 432.929688 453.945312 429.84375 457.804688 429.84375 C 461.28125 429.84375 464.367188 432.542969 464.367188 436.40625 C 464.367188 439.878906 461.28125 442.96875 457.804688 442.96875 Z M 479.804688 427.140625 L 469.769531 427.140625 L 469.769531 416.328125 L 456.261719 416.328125 L 456.261719 401.660156 L 419.597656 401.660156 L 415.738281 441.425781 L 410.335938 441.425781 L 425.773438 208.625 L 430.789062 208.625 L 482.507812 397.027344 C 478.648438 411.695312 479.804688 427.140625 479.804688 427.140625 Z M 432.335938 208.238281 L 433.878906 208.238281 L 486.367188 387.375 C 486.367188 387.375 484.4375 389.691406 483.664062 392.78125 Z M 433.878906 185.074219 C 433.878906 183.53125 435.035156 182.371094 436.578125 182.371094 C 438.125 182.371094 439.28125 183.53125 439.28125 185.074219 C 439.28125 186.617188 438.125 187.777344 436.578125 187.777344 C 435.035156 187.777344 433.878906 186.617188 433.878906 185.074219 Z M 510.292969 395.480469 L 499.875 398.183594 L 512.222656 401.660156 L 499.875 403.976562 L 511.453125 405.90625 L 501.417969 408.222656 L 513.769531 411.3125 L 501.417969 414.785156 L 509.910156 418.261719 L 499.875 420.191406 L 511.839844 424.050781 C 511.839844 424.050781 492.925781 420.960938 486.367188 424.050781 C 486.367188 424.050781 481.734375 394.710938 496.402344 383.898438 C 496.402344 383.898438 495.242188 389.304688 496.402344 390.464844 C 504.503906 385.058594 519.558594 390.847656 519.558594 390.847656 L 505.277344 394.710938 Z M 535.765625 381.582031 L 505.664062 381.582031 L 505.664062 373.476562 C 501.804688 373.863281 498.332031 374.632812 495.628906 376.566406 L 439.28125 207.078125 L 442.367188 205.148438 L 442.367188 188.164062 L 450.472656 185.847656 L 531.519531 226.382812 L 531.519531 260.355469 L 532.292969 260.355469 C 529.976562 262.289062 528.820312 265.375 528.820312 268.464844 C 528.820312 272.710938 531.136719 276.1875 534.609375 278.117188 L 544.257812 308.617188 L 542.714844 308.617188 C 529.589844 308.617188 518.785156 319.425781 518.785156 332.550781 L 518.785156 344.90625 L 523.417969 344.90625 L 523.417969 360.347656 L 536.152344 360.347656 L 536.152344 381.582031 Z M 539.625 262.289062 C 540.785156 262.289062 541.941406 262.671875 543.097656 263.445312 C 542.714844 263.445312 541.941406 263.058594 541.554688 263.058594 C 538.855469 263.058594 536.539062 265.375 536.539062 268.078125 C 536.539062 270.78125 538.855469 273.097656 541.554688 273.097656 C 541.941406 273.097656 542.714844 273.097656 543.097656 272.710938 C 542.328125 273.484375 541.167969 273.871094 539.625 273.871094 C 536.539062 273.871094 533.835938 271.167969 533.835938 268.078125 C 533.449219 264.992188 536.152344 262.289062 539.625 262.289062 Z M 538.855469 234.105469 C 538.855469 232.558594 540.011719 231.402344 541.554688 231.402344 C 543.097656 231.402344 544.257812 232.558594 544.257812 234.105469 C 544.257812 235.648438 543.097656 236.808594 541.554688 236.808594 C 540.011719 236.808594 538.855469 235.648438 538.855469 234.105469 Z M 526.117188 357.648438 L 526.117188 344.90625 L 554.292969 344.90625 L 554.292969 357.648438 Z M 551.976562 434.089844 C 549.660156 434.089844 548.117188 432.160156 548.117188 430.226562 C 548.117188 427.910156 550.046875 426.367188 551.976562 426.367188 C 554.292969 426.367188 555.835938 428.296875 555.835938 430.226562 C 556.222656 432.160156 554.292969 434.089844 551.976562 434.089844 Z M 564.710938 403.203125 L 539.238281 403.203125 L 539.238281 360.347656 L 564.710938 360.347656 Z M 568.957031 311.703125 L 550.816406 316.335938 L 567.414062 317.882812 L 548.117188 320.96875 L 569.34375 326.375 L 552.746094 327.917969 C 552.746094 327.917969 574.359375 333.710938 572.046875 333.710938 C 569.34375 333.710938 557.765625 334.867188 557.765625 334.867188 L 569.34375 336.800781 L 557.765625 338.34375 L 569.730469 341.433594 L 521.101562 341.433594 C 521.101562 341.433594 517.242188 314.792969 541.554688 311.703125 Z M 555.835938 308.617188 L 551.203125 308.617188 L 541.554688 279.273438 C 543.097656 278.890625 544.644531 278.117188 546.1875 277.34375 Z M 565.097656 208.238281 L 565.097656 215.960938 L 296.484375 75.429688 L 298.027344 71.957031 Z M 288.378906 60.757812 C 290.695312 60.757812 292.238281 62.6875 292.238281 64.621094 C 292.238281 66.9375 290.308594 68.480469 288.378906 68.480469 C 286.0625 68.480469 284.519531 66.550781 284.519531 64.621094 C 284.132812 62.304688 286.0625 60.757812 288.378906 60.757812 Z M 274.871094 83.152344 C 277.1875 83.152344 278.730469 85.082031 278.730469 87.011719 C 278.730469 88.941406 276.800781 90.871094 274.871094 90.871094 C 272.554688 90.871094 271.011719 88.941406 271.011719 87.011719 C 271.011719 85.082031 272.554688 83.152344 274.871094 83.152344 Z M 314.621094 24.855469 L 309.21875 20.609375 L 316.9375 24.46875 L 232.800781 195.113281 Z M 314.621094 24.855469 " fill-opacity="1" fill-rule="nonzero"/></g><path fill="#1a1a1a" d="M 782.382812 458.410156 C 782.382812 458.410156 782.769531 458.410156 782.769531 458.410156 C 784.3125 458.410156 785.472656 457.253906 785.472656 455.707031 C 785.472656 454.164062 784.3125 453.007812 782.769531 453.007812 C 782.769531 453.007812 782.382812 453.007812 782.382812 453.007812 C 783.542969 453.390625 784.3125 454.164062 784.3125 455.707031 C 784.3125 457.253906 783.542969 458.023438 782.382812 458.410156 Z M 782.382812 458.410156 " fill-opacity="1" fill-rule="nonzero"/><path fill="#1a1a1a" d="M 586.710938 360.347656 C 586.710938 360.347656 587.097656 360.347656 587.097656 360.347656 C 588.640625 360.347656 589.796875 359.191406 589.796875 357.648438 C 589.796875 356.101562 588.640625 354.945312 587.097656 354.945312 C 587.097656 354.945312 586.710938 354.945312 586.710938 354.945312 C 587.867188 355.332031 588.640625 356.101562 588.640625 357.648438 C 589.027344 358.804688 588.253906 359.964844 586.710938 360.347656 Z M 586.710938 360.347656 " fill-opacity="1" fill-rule="nonzero"/><path fill="#1a1a1a" d="M 759.613281 435.632812 C 759.613281 435.632812 760 435.632812 760 435.632812 C 761.542969 435.632812 762.699219 434.476562 762.699219 432.929688 C 762.699219 431.386719 761.542969 430.226562 760 430.226562 C 760 430.226562 759.613281 430.226562 759.613281 430.226562 C 760.769531 430.613281 761.542969 431.386719 761.542969 432.929688 C 761.542969 434.476562 760.769531 435.246094 759.613281 435.632812 Z M 759.613281 435.632812 " fill-opacity="1" fill-rule="nonzero"/><path fill="#1a1a1a" d="M 541.167969 235.648438 C 541.167969 236.035156 541.167969 236.035156 541.167969 235.648438 C 542.714844 235.648438 543.484375 234.875 543.484375 233.71875 C 543.484375 232.558594 542.714844 231.789062 541.554688 231.789062 C 541.554688 231.789062 541.167969 231.789062 541.167969 231.789062 C 541.941406 231.789062 542.714844 232.558594 542.714844 233.71875 C 542.328125 234.875 541.941406 235.648438 541.167969 235.648438 Z M 541.167969 235.648438 " fill-opacity="1" fill-rule="nonzero"/><path fill="#1a1a1a" d="M 586.710938 386.988281 C 586.710938 386.988281 587.097656 386.988281 587.097656 386.988281 C 588.640625 386.988281 589.796875 385.832031 589.796875 384.285156 C 589.796875 382.742188 588.640625 381.582031 587.097656 381.582031 C 587.097656 381.582031 586.710938 381.582031 586.710938 381.582031 C 587.867188 381.96875 588.640625 382.742188 588.640625 384.285156 C 589.027344 385.832031 588.253906 386.601562 586.710938 386.988281 Z M 586.710938 386.988281 " fill-opacity="1" fill-rule="nonzero"/><path fill="#1a1a1a" d="M 586.710938 373.476562 C 586.710938 373.476562 587.097656 373.476562 587.097656 373.476562 C 588.640625 373.476562 589.796875 372.316406 589.796875 370.773438 C 589.796875 369.230469 588.640625 368.070312 587.097656 368.070312 C 587.097656 368.070312 586.710938 368.070312 586.710938 368.070312 C 587.867188 368.457031 588.640625 369.230469 588.640625 370.773438 C 589.027344 372.316406 588.253906 373.476562 586.710938 373.476562 Z M 586.710938 373.476562 " fill-opacity="1" fill-rule="nonzero"/><path fill="#1a1a1a" d="M 287.605469 67.320312 C 287.605469 67.320312 287.992188 67.320312 287.992188 67.320312 C 289.535156 67.320312 290.695312 66.164062 290.695312 64.621094 C 290.695312 63.074219 289.535156 61.917969 287.992188 61.917969 C 287.992188 61.917969 287.605469 61.917969 287.605469 61.917969 C 288.765625 62.304688 289.535156 63.074219 289.535156 64.621094 C 289.921875 66.164062 288.765625 66.9375 287.605469 67.320312 Z M 287.605469 67.320312 " fill-opacity="1" fill-rule="nonzero"/><path fill="#1a1a1a" d="M 369.039062 451.847656 C 369.039062 451.847656 369.039062 452.234375 369.039062 451.847656 C 369.425781 452.234375 370.199219 452.621094 370.199219 453.777344 C 370.199219 454.550781 369.425781 455.324219 368.652344 455.707031 C 368.652344 455.707031 369.039062 455.707031 369.039062 455.707031 C 370.199219 455.707031 370.96875 454.9375 370.96875 453.777344 C 370.96875 452.621094 370.199219 451.847656 369.039062 451.847656 Z M 369.039062 451.847656 " fill-opacity="1" fill-rule="nonzero"/><g clip-path="url(#588c11af8b)"><path fill="#1a1a1a" d="M 897.78125 482.347656 L 891.605469 482.347656 L 879.253906 481.960938 L 854.941406 481.191406 C 838.730469 480.804688 822.136719 480.417969 805.925781 480.03125 C 773.121094 479.257812 740.703125 478.875 707.898438 478.488281 C 642.671875 477.714844 577.0625 477.328125 511.839844 477.328125 C 446.613281 477.328125 381.003906 477.714844 315.78125 478.488281 C 282.976562 478.875 250.554688 479.257812 217.75 480.03125 C 201.542969 480.417969 184.945312 480.804688 168.734375 481.191406 L 144.421875 481.960938 L 132.070312 482.347656 L 125.894531 482.347656 L 119.722656 482.734375 L 125.894531 483.121094 L 132.070312 483.121094 L 144.421875 483.507812 L 168.734375 484.277344 C 184.945312 484.664062 201.542969 485.050781 217.75 485.4375 C 250.554688 486.207031 282.976562 486.59375 315.78125 486.980469 C 381.003906 487.753906 446.613281 488.140625 511.839844 488.140625 C 577.0625 488.140625 642.671875 487.753906 707.898438 486.980469 C 740.703125 486.59375 773.121094 486.207031 805.925781 485.4375 C 822.136719 485.050781 838.730469 484.664062 854.941406 484.277344 L 879.253906 483.507812 L 891.605469 483.121094 L 897.78125 483.121094 L 903.957031 482.734375 Z M 897.78125 482.347656 " fill-opacity="1" fill-rule="nonzero"/></g><path fill="#1a1a1a" d="M 809.785156 492.386719 L 780.839844 491.226562 C 768.105469 490.839844 755.367188 490.457031 742.246094 490.070312 C 716.773438 489.296875 690.914062 488.910156 665.441406 488.523438 C 614.113281 487.753906 562.78125 487.367188 511.453125 487.367188 C 460.121094 487.367188 408.792969 487.753906 357.460938 488.523438 C 331.988281 488.910156 306.132812 489.296875 280.660156 490.070312 C 267.921875 490.457031 255.1875 490.839844 242.066406 491.226562 L 213.121094 492.386719 L 208.488281 492.386719 L 203.855469 492.773438 L 208.488281 493.15625 L 213.121094 493.15625 L 242.066406 494.316406 C 254.800781 494.703125 267.535156 495.089844 280.660156 495.472656 C 306.132812 496.246094 331.988281 496.632812 357.460938 497.019531 C 408.792969 497.789062 460.121094 498.175781 511.453125 498.175781 C 562.78125 498.175781 614.113281 497.789062 665.441406 497.019531 C 690.914062 496.632812 716.773438 496.246094 742.246094 495.472656 C 754.980469 495.089844 767.71875 494.703125 780.839844 494.316406 L 809.785156 493.15625 L 814.417969 493.15625 L 819.046875 492.773438 L 814.417969 492.386719 Z M 809.785156 492.386719 " fill-opacity="1" fill-rule="nonzero"/><path fill="#1a1a1a" d="M 702.109375 502.808594 L 695.933594 502.421875 C 691.6875 502.039062 687.828125 502.039062 683.582031 501.652344 C 675.476562 501.265625 667.371094 500.878906 658.882812 500.492188 C 642.671875 499.722656 626.078125 499.335938 609.867188 498.949219 C 577.0625 498.175781 544.257812 497.789062 511.839844 497.789062 C 479.03125 497.789062 446.226562 498.175781 413.808594 498.949219 C 397.597656 499.335938 381.003906 499.722656 364.792969 500.492188 C 356.691406 500.878906 348.585938 501.265625 340.09375 501.652344 C 335.847656 501.652344 331.988281 502.039062 327.742188 502.421875 L 321.570312 502.808594 L 318.480469 502.808594 L 315.394531 503.195312 L 318.480469 503.582031 L 321.570312 503.582031 L 327.742188 503.96875 C 331.988281 504.355469 335.847656 504.355469 340.09375 504.738281 C 348.199219 505.125 356.304688 505.511719 364.792969 505.898438 C 381.003906 506.671875 397.597656 507.054688 413.808594 507.441406 C 446.613281 508.214844 479.417969 508.601562 511.839844 508.601562 C 544.644531 508.601562 577.449219 508.214844 609.867188 507.441406 C 626.078125 507.054688 642.671875 506.671875 658.882812 505.898438 C 666.988281 505.511719 675.089844 505.125 683.582031 504.738281 C 687.828125 504.738281 691.6875 504.355469 695.933594 503.96875 L 702.109375 503.582031 L 705.195312 503.582031 L 708.28125 503.195312 L 705.195312 502.808594 Z M 702.109375 502.808594 " fill-opacity="1" fill-rule="nonzero"/><g clip-path="url(#91a9cc4d6d)"><path fill="#1a1a1a" d="M 569.730469 510.917969 C 563.167969 510.144531 556.992188 509.757812 550.433594 509.371094 C 537.695312 508.601562 524.574219 508.214844 511.839844 508.214844 C 499.101562 508.214844 485.980469 508.601562 473.242188 509.371094 C 466.683594 509.757812 460.507812 510.144531 453.945312 510.917969 C 450.859375 511.304688 447.386719 511.6875 444.296875 512.074219 C 441.210938 512.460938 437.738281 512.847656 434.648438 513.234375 C 437.738281 513.621094 441.210938 514.003906 444.296875 514.390625 C 447.386719 514.777344 450.859375 515.164062 453.945312 515.550781 C 460.507812 516.320312 466.683594 516.707031 473.242188 517.09375 C 485.980469 517.867188 499.101562 518.253906 511.839844 518.253906 C 524.574219 518.253906 537.695312 517.867188 550.433594 517.09375 C 556.992188 516.707031 563.167969 516.320312 569.730469 515.550781 C 572.816406 515.164062 576.289062 514.777344 579.378906 514.390625 C 582.464844 514.003906 585.9375 513.621094 589.027344 513.234375 C 585.9375 512.847656 582.464844 512.460938 579.378906 512.074219 C 576.289062 511.6875 572.816406 511.304688 569.730469 510.917969 Z M 569.730469 510.917969 " fill-opacity="1" fill-rule="nonzero"/></g></svg>