<svg xmlns="http://www.w3.org/2000/svg" xmlns:xlink="http://www.w3.org/1999/xlink" width="1366" zoomAndPan="magnify" viewBox="0 0 1024.5 576" height="768" preserveAspectRatio="xMidYMid meet" version="1.0"><defs><clipPath id="8b3b75bae0"><path d="M 384.308594 509.835938 L 392 509.835938 L 392 518.082031 L 384.308594 518.082031 Z M 384.308594 509.835938 " clip-rule="nonzero"/></clipPath><clipPath id="d56e3cc65d"><path d="M 385 509.835938 L 392.554688 509.835938 L 392.554688 518.082031 L 385 518.082031 Z M 385 509.835938 " clip-rule="nonzero"/></clipPath><clipPath id="32de114a86"><path d="M 236.015625 2 L 778.75 2 L 778.75 325 L 236.015625 325 Z M 236.015625 2 " clip-rule="nonzero"/></clipPath><clipPath id="9dbe3fe934"><path d="M 236.015625 410 L 778.75 410 L 778.75 427 L 236.015625 427 Z M 236.015625 410 " clip-rule="nonzero"/></clipPath></defs><g clip-path="url(#8b3b75bae0)"><path fill="#ffffff" d="M 390.003906 512.703125 C 390.886719 512.703125 391.324219 513.332031 391.324219 514.058594 C 391.324219 514.765625 390.886719 515.402344 390.003906 515.402344 C 389.488281 515.402344 389.121094 515.1875 388.90625 514.859375 L 388.90625 515.226562 C 389.164062 515.472656 389.53125 515.628906 390.003906 515.628906 C 390.441406 515.628906 390.800781 515.492188 391.054688 515.269531 L 391.441406 515.640625 L 391.589844 515.488281 L 391.199219 515.109375 C 391.4375 514.816406 391.558594 514.429688 391.558594 514.058594 C 391.5625 513.214844 391.042969 512.476562 390.003906 512.476562 C 388.976562 512.476562 388.457031 513.210938 388.449219 514.03125 C 388.449219 514.039062 388.449219 514.050781 388.449219 514.058594 L 388.449219 518.058594 C 386.277344 518.015625 384.527344 516.238281 384.527344 514.058594 C 384.527344 512.226562 385.765625 510.679688 387.449219 510.207031 L 387.449219 509.976562 C 385.644531 510.457031 384.308594 512.105469 384.308594 514.058594 C 384.308594 516.386719 386.203125 518.28125 388.53125 518.28125 C 388.578125 518.28125 388.628906 518.28125 388.675781 518.277344 L 388.675781 514.058594 L 388.679688 514.058594 C 388.679688 514.050781 388.679688 514.039062 388.679688 514.03125 C 388.679688 513.277344 389.222656 512.703125 390.003906 512.703125 Z M 390.003906 512.703125 " fill-opacity="1" fill-rule="nonzero"/></g><g clip-path="url(#d56e3cc65d)"><path fill="#ffffff" d="M 388.53125 509.835938 C 388.234375 509.835938 387.949219 509.867188 387.667969 509.925781 L 387.667969 513.980469 L 385.707031 513.980469 L 385.707031 512.515625 L 385.46875 512.515625 L 385.46875 515.597656 L 385.707031 515.597656 L 385.707031 514.199219 L 387.667969 514.199219 L 387.667969 515.597656 L 387.90625 515.597656 L 387.90625 510.105469 C 388.109375 510.074219 388.316406 510.054688 388.53125 510.054688 C 390.738281 510.054688 392.53125 511.851562 392.53125 514.058594 C 392.53125 516.136719 390.9375 517.851562 388.90625 518.042969 L 388.90625 518.261719 C 391.058594 518.070312 392.75 516.257812 392.75 514.058594 C 392.753906 511.730469 390.859375 509.835938 388.53125 509.835938 Z M 388.53125 509.835938 " fill-opacity="1" fill-rule="nonzero"/></g><path fill="#c68104" d="M 637.996094 221.9375 L 648.652344 229.085938 L 654.601562 211.328125 L 644.824219 209.253906 Z M 637.996094 221.9375 " fill-opacity="1" fill-rule="nonzero"/><path fill="#c68104" d="M 688.175781 232.542969 L 670.421875 226.59375 L 668.34375 236.371094 L 681.027344 243.195312 Z M 688.175781 232.542969 " fill-opacity="1" fill-rule="nonzero"/><path fill="#c68104" d="M 664.054688 237.433594 L 655.246094 232.726562 L 652.109375 234.113281 L 657.921875 244.304688 Z M 664.054688 237.433594 " fill-opacity="1" fill-rule="nonzero"/><path fill="#c68104" d="M 692.972656 221.980469 L 688.914062 214.1875 L 684.902344 217.507812 L 689.054688 224.148438 Z M 692.972656 221.980469 " fill-opacity="1" fill-rule="nonzero"/><path fill="#c68104" d="M 662.117188 216.632812 L 658.105469 219.953125 L 662.257812 226.59375 L 666.132812 224.378906 Z M 662.117188 216.632812 " fill-opacity="1" fill-rule="nonzero"/><path fill="#c68104" d="M 674.894531 208.746094 L 667.101562 204.179688 L 661.796875 208.746094 L 666.59375 214.324219 Z M 674.894531 208.746094 " fill-opacity="1" fill-rule="nonzero"/><path fill="#c68104" d="M 682.828125 218.707031 L 675.03125 214.09375 L 669.683594 218.707031 L 674.523438 224.242188 Z M 682.828125 218.707031 " fill-opacity="1" fill-rule="nonzero"/><path fill="#c68104" d="M 326.871094 107.605469 C 330.285156 107.605469 333.144531 109.816406 334.113281 112.90625 C 334.113281 112.816406 334.113281 112.722656 334.113281 112.632812 C 334.113281 108.433594 330.699219 105.019531 326.503906 105.019531 C 322.304688 105.019531 318.894531 108.433594 318.894531 112.632812 C 318.894531 113.414062 319.03125 114.199219 319.261719 114.9375 C 319.398438 110.878906 322.765625 107.605469 326.871094 107.605469 Z M 326.871094 107.605469 " fill-opacity="1" fill-rule="nonzero"/><path fill="#c68104" d="M 310.40625 107.417969 C 310.359375 107.464844 310.269531 107.558594 310.222656 107.605469 C 307.269531 110.554688 307.269531 115.398438 310.222656 118.394531 C 313.171875 121.347656 318.015625 121.347656 321.015625 118.394531 C 321.566406 117.84375 322.027344 117.195312 322.398438 116.503906 C 319.398438 119.273438 314.742188 119.226562 311.835938 116.320312 C 309.390625 113.875 308.929688 110.277344 310.40625 107.417969 Z M 310.40625 107.417969 " fill-opacity="1" fill-rule="nonzero"/><path fill="#c68104" d="M 326.316406 123.191406 C 323.644531 125.269531 320 125.3125 317.324219 123.46875 C 317.371094 123.5625 317.417969 123.609375 317.464844 123.699219 C 320.046875 127.019531 324.84375 127.621094 328.164062 124.992188 C 331.484375 122.410156 332.082031 117.613281 329.453125 114.292969 C 328.945312 113.644531 328.394531 113.136719 327.746094 112.675781 C 330.191406 115.996094 329.546875 120.65625 326.316406 123.191406 Z M 326.316406 123.191406 " fill-opacity="1" fill-rule="nonzero"/><path fill="#c68104" d="M 635.691406 96.582031 C 623.65625 89.433594 610.972656 83.296875 597.78125 78.179688 C 597.644531 78.546875 597.550781 78.964844 597.503906 79.332031 L 591.96875 111.847656 C 602.023438 116.089844 611.710938 121.023438 620.933594 126.652344 L 620.933594 123.882812 C 620.933594 120.195312 622.179688 116.691406 624.390625 113.875 C 625.867188 107.742188 630.574219 102.898438 636.613281 101.238281 Z M 635.691406 96.582031 " fill-opacity="1" fill-rule="nonzero"/><path fill="#c68104" d="M 697.355469 205.378906 C 708.5625 225.027344 716.816406 246.519531 721.476562 269.347656 L 753.898438 270.871094 L 756.386719 274.421875 C 749.929688 232.867188 733.328125 194.679688 709.160156 162.488281 C 707.824219 177.152344 705.148438 188.039062 704.964844 188.683594 L 704.917969 188.914062 L 701.921875 198.828125 C 701.136719 201.550781 699.476562 203.8125 697.355469 205.378906 Z M 697.355469 205.378906 " fill-opacity="1" fill-rule="nonzero"/><path fill="#c68104" d="M 257.277344 298.679688 L 289.699219 279.402344 L 291.082031 279.402344 C 294.402344 258.140625 300.8125 237.941406 309.808594 219.167969 C 309.484375 218.984375 309.160156 218.800781 308.839844 218.613281 L 303.257812 215.15625 C 298.96875 212.480469 296.386719 207.871094 296.386719 202.84375 L 296.386719 193.203125 C 296.386719 186.238281 301.367188 180.382812 307.917969 178.996094 L 307.917969 158.980469 C 276.785156 199.058594 257.460938 248.777344 255.199219 302.921875 L 258.613281 301.585938 Z M 257.277344 298.679688 " fill-opacity="1" fill-rule="nonzero"/><path fill="#c68104" d="M 364.320312 124.667969 L 373.269531 124.667969 L 378.664062 114.84375 L 410.304688 114.84375 L 413.253906 115.996094 C 438.710938 103.867188 466.890625 96.535156 496.59375 95.105469 L 497.515625 90.816406 C 499.269531 82.929688 504.386719 76.378906 511.398438 72.785156 L 514.996094 61.484375 C 512.414062 61.390625 509.828125 61.34375 507.199219 61.34375 C 449.089844 61.34375 395.542969 81.039062 352.882812 114.0625 L 362.105469 118.949219 Z M 364.320312 124.667969 " fill-opacity="1" fill-rule="nonzero"/><path fill="#c68104" d="M 310.589844 102.4375 C 313.820312 103.546875 315.800781 106.589844 315.710938 109.816406 C 315.757812 109.726562 315.757812 109.632812 315.800781 109.585938 C 317.1875 105.621094 315.066406 101.285156 311.097656 99.902344 C 307.132812 98.519531 302.796875 100.640625 301.414062 104.605469 C 301.136719 105.390625 300.996094 106.128906 300.996094 106.914062 C 302.472656 103.085938 306.71875 101.101562 310.589844 102.4375 Z M 310.589844 102.4375 " fill-opacity="1" fill-rule="nonzero"/><g clip-path="url(#32de114a86)"><path fill="#c68104" d="M 762.292969 308.6875 L 757.632812 308.6875 L 738.632812 294.757812 L 716.355469 288.210938 L 739.96875 288.625 L 764.875 303.476562 L 748.6875 280.324219 L 704.964844 278.25 L 699.707031 262.84375 L 691.40625 264.136719 L 673.925781 252.789062 L 613.601562 258.046875 L 620.609375 248.871094 L 613 249.421875 C 613.738281 246.933594 614.015625 244.304688 613.832031 241.628906 L 613.230469 234.34375 C 612.261719 222.351562 601.65625 213.449219 589.664062 214.648438 L 542.804688 219.308594 C 539.484375 219.628906 536.210938 218.429688 533.949219 215.984375 L 533.8125 215.847656 C 531.78125 213.726562 528.96875 212.480469 526.019531 212.480469 L 513.886719 212.480469 L 513.886719 207.085938 L 538.886719 207.085938 C 544.144531 207.085938 548.617188 203.625 550.140625 198.828125 L 551.84375 198.828125 C 554.105469 198.828125 556.089844 197.125 556.273438 194.816406 C 556.363281 193.15625 555.535156 191.679688 554.242188 190.851562 L 578.457031 113.507812 L 579.746094 113.507812 C 580.945312 113.507812 581.960938 112.632812 582.191406 111.433594 L 587.957031 77.671875 C 589.109375 70.847656 594 65.21875 600.59375 63.097656 L 623.792969 55.625 C 630.757812 53.367188 638.136719 57.75 639.519531 64.941406 L 647.3125 105.988281 L 647.269531 105.988281 C 645.652344 105.988281 644.179688 106.957031 643.671875 108.480469 C 643.441406 109.125 643.394531 109.773438 643.484375 110.371094 L 641.085938 110.371094 C 636.9375 110.371094 633.523438 113.738281 633.523438 117.933594 L 633.523438 118.535156 C 631.679688 119.6875 630.527344 121.761719 630.527344 123.929688 L 630.527344 137.027344 C 630.527344 138.367188 630.988281 139.65625 631.773438 140.765625 C 640.949219 153.492188 640.949219 180.660156 640.949219 180.660156 L 640.949219 195.277344 C 640.949219 196.800781 642.195312 198.046875 643.714844 198.046875 L 644.410156 198.046875 C 645.746094 198.046875 646.898438 197.125 647.128906 195.785156 L 648.789062 187.4375 C 648.972656 186.5625 649.757812 185.917969 650.679688 185.917969 L 653.03125 185.917969 C 654.046875 185.917969 654.878906 186.699219 654.925781 187.761719 L 655.246094 195.417969 C 655.292969 196.894531 656.539062 198.089844 658.015625 198.089844 L 658.058594 198.089844 C 659.445312 198.089844 660.597656 197.078125 660.828125 195.695312 L 662.027344 187.4375 C 662.164062 186.515625 662.949219 185.824219 663.917969 185.824219 L 669.222656 185.824219 C 670.234375 185.824219 671.066406 186.609375 671.113281 187.621094 L 671.527344 195.460938 C 671.621094 196.9375 672.820312 198.089844 674.292969 198.089844 L 674.386719 198.089844 C 675.769531 198.089844 676.96875 197.078125 677.152344 195.695312 L 678.261719 187.621094 C 678.398438 186.699219 679.183594 185.960938 680.152344 185.960938 L 683.519531 185.960938 C 684.488281 185.960938 685.316406 186.699219 685.410156 187.667969 L 686.238281 195.601562 C 686.378906 197.03125 687.578125 198.089844 689.007812 198.089844 L 690.066406 198.089844 C 691.3125 198.089844 692.375 197.308594 692.742188 196.109375 L 695.648438 186.421875 C 695.648438 186.421875 701.414062 163.132812 700.167969 139.058594 C 699.707031 129.878906 698.738281 123.5625 697.769531 119.179688 C 696.617188 114.015625 692.003906 110.371094 686.699219 110.371094 L 680.707031 110.371094 L 679.78125 108.988281 C 678.398438 106.820312 676 105.527344 673.417969 105.527344 L 673.324219 104.835938 C 672.542969 99.761719 674.109375 94.550781 677.570312 90.769531 L 677.570312 90.402344 C 677.570312 86.757812 674.617188 83.761719 670.925781 83.761719 L 667.746094 30.582031 C 667.605469 28.460938 668.898438 26.570312 670.925781 25.878906 L 670.925781 10.9375 C 670.925781 10.058594 670.191406 9.320312 669.3125 9.320312 L 669.3125 8.167969 C 669.3125 8.03125 669.3125 7.890625 669.3125 7.800781 C 669.035156 2.542969 662.488281 0.238281 658.796875 4.019531 L 654.878906 8.078125 L 652.480469 8.078125 C 652.480469 6.507812 651.050781 5.355469 649.527344 5.632812 L 644.039062 6.648438 L 641.226562 9.460938 L 629.417969 9.460938 C 629.417969 8.214844 628.40625 7.199219 627.160156 7.246094 L 602.117188 7.660156 C 600.503906 7.707031 598.933594 7.0625 597.78125 5.957031 L 597.734375 5.910156 C 596.167969 4.386719 593.953125 3.832031 591.832031 4.433594 L 576.933594 8.628906 C 564.667969 5.355469 560.929688 16.378906 560.929688 16.378906 L 551.109375 19.054688 C 542.667969 21.359375 535.933594 27.769531 533.257812 36.117188 L 519.191406 80.117188 C 513.058594 81.777344 508.308594 86.710938 506.96875 92.9375 L 503.375 109.355469 L 488.984375 109.355469 C 479.484375 109.355469 471.78125 117.058594 471.78125 126.558594 L 471.78125 136.058594 C 471.78125 140.117188 468.507812 143.394531 464.449219 143.394531 L 441.570312 143.394531 L 432.164062 133.984375 L 408.503906 124.578125 L 384.429688 124.578125 L 378.988281 134.355469 L 358.371094 134.355469 C 358.140625 134.355469 357.957031 134.355469 357.726562 134.398438 L 354.359375 125.914062 L 343.476562 120.101562 C 343.707031 118.441406 342.738281 116.78125 341.078125 116.226562 C 339.277344 115.628906 337.339844 116.644531 336.648438 118.394531 L 333.511719 125.914062 C 332.773438 127.667969 333.464844 129.695312 335.128906 130.527344 C 336.511719 131.21875 338.078125 130.941406 339.140625 130.019531 L 345.828125 133.570312 L 347.257812 137.167969 C 346.105469 137.765625 345.042969 138.503906 343.980469 139.335938 L 335.128906 146.296875 L 328.578125 146.296875 C 322.535156 146.296875 317.601562 151.1875 317.601562 157.273438 L 317.601562 181.8125 C 317.601562 185.546875 314.558594 188.453125 310.820312 188.453125 C 308.191406 188.5 306.070312 190.621094 306.070312 193.25 L 306.070312 202.886719 C 306.070312 204.546875 306.949219 206.117188 308.378906 206.992188 L 313.957031 210.453125 C 314.695312 210.914062 315.570312 211.191406 316.496094 211.191406 L 327.792969 211.191406 C 330.46875 211.191406 332.589844 209.023438 332.589844 206.394531 L 428.335938 206.394531 L 428.335938 212.480469 L 426.304688 212.480469 L 363.765625 231.667969 C 352.882812 234.988281 346.148438 245.917969 347.996094 257.125 C 349.976562 269.117188 361.046875 277.371094 373.082031 275.988281 L 359.710938 278.25 L 368.011719 290.378906 L 350.945312 281.199219 L 338.261719 305.691406 L 341.308594 289.085938 L 292.417969 289.085938 L 262.257812 307.027344 L 292.417969 296.558594 L 314.28125 303.570312 L 280.199219 303.570312 L 267.054688 308.78125 L 252.15625 308.78125 C 243.253906 308.78125 236.0625 315.976562 236.0625 324.875 L 778.433594 324.875 C 778.386719 315.882812 771.191406 308.6875 762.292969 308.6875 Z M 686.609375 122.683594 C 686.609375 122.683594 691.867188 152.617188 686.609375 176.785156 C 686.609375 176.785156 687.808594 130.296875 684.257812 124.300781 L 642.980469 124.300781 L 637.996094 135.875 L 641.503906 122.640625 L 686.609375 122.640625 Z M 626.976562 17.347656 C 628.21875 17.347656 629.1875 16.332031 629.1875 15.132812 L 629.1875 15.085938 L 642.332031 15.085938 L 639.472656 18.59375 L 639.472656 23.851562 L 636.335938 29.476562 L 624.4375 29.476562 L 606.542969 17.347656 Z M 550.691406 163.269531 C 553.828125 161.011719 556.179688 157.691406 557.148438 153.769531 L 575.597656 78.363281 L 570.707031 110.417969 C 570.523438 111.707031 571.355469 112.90625 572.597656 113.183594 L 550.691406 179.460938 Z M 327.792969 181.027344 C 327.792969 181.535156 327.472656 181.902344 327.054688 181.902344 C 326.640625 181.902344 326.316406 181.488281 326.316406 181.027344 L 326.316406 156.628906 C 326.316406 156.121094 326.640625 155.753906 327.054688 155.753906 C 327.472656 155.753906 327.792969 156.167969 327.792969 156.628906 Z M 331.34375 181.027344 C 331.34375 181.535156 331.023438 181.902344 330.605469 181.902344 C 330.191406 181.902344 329.871094 181.488281 329.871094 181.027344 L 329.871094 156.628906 C 329.871094 156.121094 330.191406 155.753906 330.605469 155.753906 C 331.023438 155.753906 331.34375 156.167969 331.34375 156.628906 Z M 334.894531 181.027344 C 334.894531 181.535156 334.574219 181.902344 334.160156 181.902344 C 333.742188 181.902344 333.421875 181.488281 333.421875 181.027344 L 333.421875 156.628906 C 333.421875 156.121094 333.742188 155.753906 334.160156 155.753906 C 334.574219 155.753906 334.894531 156.167969 334.894531 156.628906 Z M 338.449219 181.027344 C 338.449219 181.535156 338.125 181.902344 337.710938 181.902344 C 337.292969 181.902344 336.972656 181.488281 336.972656 181.027344 L 336.972656 156.628906 C 336.972656 156.121094 337.292969 155.753906 337.710938 155.753906 C 338.125 155.753906 338.449219 156.167969 338.449219 156.628906 Z M 342 181.027344 C 342 181.535156 341.675781 181.902344 341.261719 181.902344 C 340.847656 181.902344 340.523438 181.488281 340.523438 181.027344 L 340.523438 156.628906 C 340.523438 156.121094 340.847656 155.753906 341.261719 155.753906 C 341.675781 155.753906 342 156.167969 342 156.628906 Z M 368.289062 308.6875 L 362.9375 305.414062 L 348.777344 304.90625 L 364.414062 300.15625 L 368.65625 308.6875 Z M 456.007812 293.515625 L 441.847656 293.007812 L 457.484375 288.257812 L 461.910156 297.113281 Z M 450.152344 275.527344 L 420.863281 278.25 L 430.550781 267.734375 L 461.773438 263.257812 C 461.773438 264.644531 461.910156 265.980469 462.140625 267.273438 Z M 527.125 285.167969 L 535.289062 275.621094 L 541.605469 274.464844 Z M 557.472656 278.25 L 545.15625 273.820312 L 573.984375 268.5625 Z M 615.308594 269.070312 L 593.675781 269.394531 L 616.597656 265.152344 L 622.179688 276.542969 Z M 650.726562 274.003906 L 636.476562 282.351562 L 647.773438 270.824219 L 667.792969 270.824219 Z M 650.726562 274.003906 " fill-opacity="1" fill-rule="nonzero"/></g><path fill="#c68104" d="M 507.199219 532.371094 C 429.488281 532.371094 361.277344 491.875 322.445312 430.8125 L 283.839844 430.8125 C 326.042969 511.0625 410.210938 565.808594 507.199219 565.808594 C 604.191406 565.808594 688.359375 511.0625 730.5625 430.8125 L 691.957031 430.8125 C 653.125 491.832031 584.914062 532.371094 507.199219 532.371094 Z M 507.199219 532.371094 " fill-opacity="1" fill-rule="nonzero"/><g clip-path="url(#9dbe3fe934)"><path fill="#c68104" d="M 252.109375 426.386719 L 762.292969 426.386719 C 771.191406 426.386719 778.386719 419.191406 778.386719 410.289062 L 236.015625 410.289062 C 236.015625 419.191406 243.210938 426.386719 252.109375 426.386719 Z M 252.109375 426.386719 " fill-opacity="1" fill-rule="nonzero"/></g></svg>